%TF.GenerationSoftware,KiCad,Pcbnew,7.99.0-unknown-e01ef0a38d~172~ubuntu23.04.1*%
%TF.CreationDate,2023-10-19T19:27:51-04:00*%
%TF.ProjectId,Koneko40Ortho,4b6f6e65-6b6f-4343-904f-7274686f2e6b,rev?*%
%TF.SameCoordinates,Original*%
%TF.FileFunction,Other,Comment*%
%FSLAX46Y46*%
G04 Gerber Fmt 4.6, Leading zero omitted, Abs format (unit mm)*
G04 Created by KiCad (PCBNEW 7.99.0-unknown-e01ef0a38d~172~ubuntu23.04.1) date 2023-10-19 19:27:51*
%MOMM*%
%LPD*%
G01*
G04 APERTURE LIST*
%ADD10C,0.070000*%
G04 APERTURE END LIST*
D10*
X171313907Y-69946279D02*
X170913907Y-69946279D01*
X171313907Y-70174850D02*
X171085336Y-70003421D01*
X170913907Y-70174850D02*
X171142479Y-69946279D01*
X171104383Y-70346279D02*
X171104383Y-70479612D01*
X171313907Y-70536755D02*
X171313907Y-70346279D01*
X171313907Y-70346279D02*
X170913907Y-70346279D01*
X170913907Y-70346279D02*
X170913907Y-70536755D01*
X171104383Y-70708184D02*
X171104383Y-70841517D01*
X171313907Y-70898660D02*
X171313907Y-70708184D01*
X171313907Y-70708184D02*
X170913907Y-70708184D01*
X170913907Y-70708184D02*
X170913907Y-70898660D01*
X171313907Y-71070089D02*
X170913907Y-71070089D01*
X170913907Y-71070089D02*
X170913907Y-71222470D01*
X170913907Y-71222470D02*
X170932955Y-71260565D01*
X170932955Y-71260565D02*
X170952002Y-71279612D01*
X170952002Y-71279612D02*
X170990098Y-71298660D01*
X170990098Y-71298660D02*
X171047240Y-71298660D01*
X171047240Y-71298660D02*
X171085336Y-71279612D01*
X171085336Y-71279612D02*
X171104383Y-71260565D01*
X171104383Y-71260565D02*
X171123431Y-71222470D01*
X171123431Y-71222470D02*
X171123431Y-71070089D01*
X170913907Y-71546279D02*
X170913907Y-71622470D01*
X170913907Y-71622470D02*
X170932955Y-71660565D01*
X170932955Y-71660565D02*
X170971050Y-71698660D01*
X170971050Y-71698660D02*
X171047240Y-71717708D01*
X171047240Y-71717708D02*
X171180574Y-71717708D01*
X171180574Y-71717708D02*
X171256764Y-71698660D01*
X171256764Y-71698660D02*
X171294860Y-71660565D01*
X171294860Y-71660565D02*
X171313907Y-71622470D01*
X171313907Y-71622470D02*
X171313907Y-71546279D01*
X171313907Y-71546279D02*
X171294860Y-71508184D01*
X171294860Y-71508184D02*
X171256764Y-71470089D01*
X171256764Y-71470089D02*
X171180574Y-71451041D01*
X171180574Y-71451041D02*
X171047240Y-71451041D01*
X171047240Y-71451041D02*
X170971050Y-71470089D01*
X170971050Y-71470089D02*
X170932955Y-71508184D01*
X170932955Y-71508184D02*
X170913907Y-71546279D01*
X170913907Y-71889137D02*
X171237717Y-71889137D01*
X171237717Y-71889137D02*
X171275812Y-71908184D01*
X171275812Y-71908184D02*
X171294860Y-71927232D01*
X171294860Y-71927232D02*
X171313907Y-71965327D01*
X171313907Y-71965327D02*
X171313907Y-72041518D01*
X171313907Y-72041518D02*
X171294860Y-72079613D01*
X171294860Y-72079613D02*
X171275812Y-72098660D01*
X171275812Y-72098660D02*
X171237717Y-72117708D01*
X171237717Y-72117708D02*
X170913907Y-72117708D01*
X170913907Y-72251042D02*
X170913907Y-72479613D01*
X171313907Y-72365327D02*
X170913907Y-72365327D01*
M02*
