M48
; DRILL file {KiCad 7.99.0-unknown-e01ef0a38d~172~ubuntu23.04.1} date 2023-10-19T19:27:51-0400
; FORMAT={-:-/ absolute / inch / decimal}
; #@! TF.CreationDate,2023-10-19T19:27:51-04:00
; #@! TF.GenerationSoftware,Kicad,Pcbnew,7.99.0-unknown-e01ef0a38d~172~ubuntu23.04.1
; #@! TF.FileFunction,NonPlated,1,4,NPTH
FMAT,2
INCH
; #@! TA.AperFunction,NonPlated,NPTH,ComponentDrill
T1C0.0390
; #@! TA.AperFunction,NonPlated,NPTH,ComponentDrill
T2C0.0689
; #@! TA.AperFunction,NonPlated,NPTH,ComponentDrill
T3C0.1570
%
G90
G05
T1
X6.6975Y-2.7025
X6.7375Y-2.9025
X6.7775Y-2.7025
T2
X1.6625Y-1.4531
X1.6625Y-2.2031
X1.6625Y-2.9531
X1.6625Y-3.7031
X2.0625Y-1.4531
X2.0625Y-2.2031
X2.0625Y-2.9531
X2.0625Y-3.7031
X2.4125Y-1.4531
X2.4125Y-2.2031
X2.4125Y-2.9531
X2.4125Y-3.7031
X2.8125Y-1.4531
X2.8125Y-2.2031
X2.8125Y-2.9531
X2.8125Y-3.7031
X3.1625Y-1.4531
X3.1625Y-2.2031
X3.1625Y-2.9531
X3.1625Y-3.7031
X3.5625Y-1.4531
X3.5625Y-2.2031
X3.5625Y-2.9531
X3.5625Y-3.7031
X3.9125Y-1.4531
X3.9125Y-2.2031
X3.9125Y-2.9531
X3.9125Y-3.7031
X4.3125Y-1.4531
X4.3125Y-2.2031
X4.3125Y-2.9531
X4.3125Y-3.7031
X4.6625Y-1.4531
X4.6625Y-2.2031
X4.6625Y-2.9531
X4.6625Y-3.7031
X5.0347Y-3.7031
X5.0625Y-1.4531
X5.0625Y-2.2031
X5.0625Y-2.9531
X5.0625Y-3.7031
X5.4125Y-1.4531
X5.4125Y-2.2031
X5.4125Y-2.9531
X5.4125Y-3.7031
X5.4347Y-3.7031
X5.7875Y-3.7031
X5.8125Y-1.4531
X5.8125Y-2.2031
X5.8125Y-2.9531
X5.8125Y-3.7031
X6.1625Y-1.4531
X6.1625Y-2.2031
X6.1625Y-2.9531
X6.1625Y-3.7031
X6.1875Y-3.7031
X6.5375Y-3.7031
X6.5625Y-1.4531
X6.5625Y-2.2031
X6.5625Y-2.9531
X6.5625Y-3.7031
X6.9125Y-1.4531
X6.9125Y-2.2031
X6.9125Y-2.9531
X6.9125Y-3.7031
X6.9375Y-3.7031
X7.3125Y-1.4531
X7.3125Y-2.2031
X7.3125Y-2.9531
X7.3125Y-3.7031
X7.6625Y-1.4531
X7.6625Y-2.2031
X7.6625Y-2.9531
X7.6625Y-3.7031
X8.0625Y-1.4531
X8.0625Y-2.2031
X8.0625Y-2.9531
X8.0625Y-3.7031
X8.4125Y-1.4531
X8.4125Y-2.2031
X8.4125Y-2.9531
X8.4125Y-3.7031
X8.8125Y-1.4531
X8.8125Y-2.2031
X8.8125Y-2.9531
X8.8125Y-3.7031
X9.1625Y-1.4531
X9.1625Y-2.2031
X9.1625Y-2.9531
X9.1625Y-3.7031
X9.5625Y-1.4531
X9.5625Y-2.2031
X9.5625Y-2.9531
X9.5625Y-3.7031
X9.9125Y-1.4531
X9.9125Y-2.2031
X9.9125Y-2.9531
X9.9125Y-3.7031
X10.3125Y-1.4531
X10.3125Y-2.2031
X10.3125Y-2.9531
X10.3125Y-3.7031
T3
X1.8625Y-1.4531
X1.8625Y-1.4531
X1.8625Y-2.2031
X1.8625Y-2.9531
X1.8625Y-3.7031
X2.6125Y-1.4531
X2.6125Y-2.2031
X2.6125Y-2.9531
X2.6125Y-3.7031
X3.3625Y-1.4531
X3.3625Y-2.2031
X3.3625Y-2.9531
X3.3625Y-3.7031
X3.7375Y-3.3781
X4.1125Y-1.4531
X4.1125Y-2.2031
X4.1125Y-2.9531
X4.1125Y-3.3781
X4.1125Y-3.3781
X4.1125Y-3.7031
X4.7687Y-3.3781
X4.8625Y-1.4531
X4.8625Y-2.2031
X4.8625Y-2.9531
X4.8625Y-3.7031
X5.2347Y-3.7031
X5.5187Y-3.3781
X5.6125Y-1.4531
X5.6125Y-2.2031
X5.6125Y-2.9531
X5.6125Y-3.3781
X5.6125Y-3.7031
X5.7062Y-3.3781
X5.9875Y-3.7031
X6.2687Y-3.3781
X6.3625Y-1.4531
X6.3625Y-2.2031
X6.3625Y-2.9531
X6.3625Y-3.3781
X6.3625Y-3.7031
X6.4562Y-3.3781
X6.7375Y-3.7031
X7.1125Y-1.4531
X7.1125Y-2.2031
X7.1125Y-2.9531
X7.1125Y-3.7031
X7.2062Y-3.3781
X7.8625Y-1.4531
X7.8625Y-2.2031
X7.8625Y-2.9531
X7.8625Y-3.3781
X7.8625Y-3.3781
X7.8625Y-3.7031
X8.2375Y-3.3781
X8.6125Y-1.4531
X8.6125Y-2.2031
X8.6125Y-2.9531
X8.6125Y-3.7031
X9.3625Y-1.4531
X9.3625Y-2.2031
X9.3625Y-2.9531
X9.3625Y-3.7031
X10.1125Y-1.4531
X10.1125Y-1.4531
X10.1125Y-2.2031
X10.1125Y-2.9531
X10.1125Y-3.7031
T0
M30
