%TF.GenerationSoftware,KiCad,Pcbnew,7.99.0-unknown-e01ef0a38d~172~ubuntu23.04.1*%
%TF.CreationDate,2023-10-19T19:27:51-04:00*%
%TF.ProjectId,Koneko40Ortho,4b6f6e65-6b6f-4343-904f-7274686f2e6b,rev?*%
%TF.SameCoordinates,Original*%
%TF.FileFunction,Paste,Bot*%
%TF.FilePolarity,Positive*%
%FSLAX46Y46*%
G04 Gerber Fmt 4.6, Leading zero omitted, Abs format (unit mm)*
G04 Created by KiCad (PCBNEW 7.99.0-unknown-e01ef0a38d~172~ubuntu23.04.1) date 2023-10-19 19:27:51*
%MOMM*%
%LPD*%
G01*
G04 APERTURE LIST*
G04 Aperture macros list*
%AMRoundRect*
0 Rectangle with rounded corners*
0 $1 Rounding radius*
0 $2 $3 $4 $5 $6 $7 $8 $9 X,Y pos of 4 corners*
0 Add a 4 corners polygon primitive as box body*
4,1,4,$2,$3,$4,$5,$6,$7,$8,$9,$2,$3,0*
0 Add four circle primitives for the rounded corners*
1,1,$1+$1,$2,$3*
1,1,$1+$1,$4,$5*
1,1,$1+$1,$6,$7*
1,1,$1+$1,$8,$9*
0 Add four rect primitives between the rounded corners*
20,1,$1+$1,$2,$3,$4,$5,0*
20,1,$1+$1,$4,$5,$6,$7,0*
20,1,$1+$1,$6,$7,$8,$9,0*
20,1,$1+$1,$8,$9,$2,$3,0*%
G04 Aperture macros list end*
%ADD10C,0.000000*%
%ADD11RoundRect,0.140000X-0.170000X0.140000X-0.170000X-0.140000X0.170000X-0.140000X0.170000X0.140000X0*%
%ADD12RoundRect,0.225000X-0.225000X-0.375000X0.225000X-0.375000X0.225000X0.375000X-0.225000X0.375000X0*%
%ADD13RoundRect,0.140000X-0.140000X-0.170000X0.140000X-0.170000X0.140000X0.170000X-0.140000X0.170000X0*%
%ADD14RoundRect,0.135000X0.135000X0.185000X-0.135000X0.185000X-0.135000X-0.185000X0.135000X-0.185000X0*%
%ADD15R,1.150000X1.000000*%
%ADD16RoundRect,0.140000X0.140000X0.170000X-0.140000X0.170000X-0.140000X-0.170000X0.140000X-0.170000X0*%
%ADD17RoundRect,0.249999X-0.395001X0.395001X-0.395001X-0.395001X0.395001X-0.395001X0.395001X0.395001X0*%
%ADD18RoundRect,0.050000X-0.050000X0.387500X-0.050000X-0.387500X0.050000X-0.387500X0.050000X0.387500X0*%
%ADD19RoundRect,0.050000X-0.387500X0.050000X-0.387500X-0.050000X0.387500X-0.050000X0.387500X0.050000X0*%
%ADD20R,0.700000X0.450000*%
%ADD21RoundRect,0.135000X0.185000X-0.135000X0.185000X0.135000X-0.185000X0.135000X-0.185000X-0.135000X0*%
%ADD22RoundRect,0.225000X0.225000X0.375000X-0.225000X0.375000X-0.225000X-0.375000X0.225000X-0.375000X0*%
%ADD23R,1.220000X0.650000*%
%ADD24RoundRect,0.140000X0.170000X-0.140000X0.170000X0.140000X-0.170000X0.140000X-0.170000X-0.140000X0*%
%ADD25RoundRect,0.045000X0.055000X0.045000X-0.055000X0.045000X-0.055000X-0.045000X0.055000X-0.045000X0*%
%ADD26RoundRect,0.135000X-0.135000X-0.185000X0.135000X-0.185000X0.135000X0.185000X-0.135000X0.185000X0*%
%ADD27RoundRect,0.150000X-0.625000X0.150000X-0.625000X-0.150000X0.625000X-0.150000X0.625000X0.150000X0*%
%ADD28RoundRect,0.250000X-0.650000X0.350000X-0.650000X-0.350000X0.650000X-0.350000X0.650000X0.350000X0*%
G04 APERTURE END LIST*
D10*
%TO.C,U1*%
G36*
X147082222Y-60788026D02*
G01*
X146531832Y-60788027D01*
X146531832Y-60438026D01*
X147082222Y-60438026D01*
X147082222Y-60788026D01*
G37*
G36*
X147082232Y-61538026D02*
G01*
X146553213Y-61538026D01*
X146553213Y-61188026D01*
X147082232Y-61188026D01*
X147082232Y-61538026D01*
G37*
%TD*%
D11*
%TO.C,C8*%
X153092500Y-69926250D03*
X153092500Y-70886250D03*
%TD*%
D12*
%TO.C,D37*%
X45657500Y-98821875D03*
X48957500Y-98821875D03*
%TD*%
%TO.C,D27*%
X83757500Y-79771875D03*
X87057500Y-79771875D03*
%TD*%
%TO.C,D13*%
X45657500Y-60721875D03*
X48957500Y-60721875D03*
%TD*%
D13*
%TO.C,C14*%
X164032500Y-64594375D03*
X164992500Y-64594375D03*
%TD*%
D12*
%TO.C,D10*%
X217107500Y-41671875D03*
X220407500Y-41671875D03*
%TD*%
D14*
%TO.C,R4*%
X162292500Y-65984375D03*
X161272500Y-65984375D03*
%TD*%
D12*
%TO.C,D22*%
X217107500Y-60721875D03*
X220407500Y-60721875D03*
%TD*%
D15*
%TO.C,Y1*%
X160907500Y-63194375D03*
X162657500Y-63194375D03*
X162657500Y-64594375D03*
X160907500Y-64594375D03*
%TD*%
D16*
%TO.C,C10*%
X145362500Y-66384375D03*
X144402500Y-66384375D03*
%TD*%
D12*
%TO.C,D30*%
X140907500Y-79771875D03*
X144207500Y-79771875D03*
%TD*%
D17*
%TO.C,U2*%
X152882500Y-63493750D03*
X151282500Y-63493750D03*
X152882500Y-65093750D03*
X151282500Y-65093750D03*
D18*
X149482500Y-60856250D03*
X149882501Y-60856250D03*
X150282500Y-60856250D03*
X150682500Y-60856250D03*
X151082500Y-60856250D03*
X151482499Y-60856250D03*
X151882500Y-60856250D03*
X152282500Y-60856250D03*
X152682501Y-60856250D03*
X153082500Y-60856250D03*
X153482500Y-60856250D03*
X153882500Y-60856250D03*
X154282499Y-60856250D03*
X154682500Y-60856250D03*
D19*
X155520000Y-61693750D03*
X155520000Y-62093751D03*
X155520000Y-62493750D03*
X155520000Y-62893750D03*
X155520000Y-63293750D03*
X155520000Y-63693749D03*
X155520000Y-64093750D03*
X155520000Y-64493750D03*
X155520000Y-64893751D03*
X155520000Y-65293750D03*
X155520000Y-65693750D03*
X155520000Y-66093750D03*
X155520000Y-66493749D03*
X155520000Y-66893750D03*
D18*
X154682500Y-67731250D03*
X154282499Y-67731250D03*
X153882500Y-67731250D03*
X153482500Y-67731250D03*
X153082500Y-67731250D03*
X152682501Y-67731250D03*
X152282500Y-67731250D03*
X151882500Y-67731250D03*
X151482499Y-67731250D03*
X151082500Y-67731250D03*
X150682500Y-67731250D03*
X150282500Y-67731250D03*
X149882501Y-67731250D03*
X149482500Y-67731250D03*
D19*
X148645000Y-66893750D03*
X148645000Y-66493749D03*
X148645000Y-66093750D03*
X148645000Y-65693750D03*
X148645000Y-65293750D03*
X148645000Y-64893751D03*
X148645000Y-64493750D03*
X148645000Y-64093750D03*
X148645000Y-63693749D03*
X148645000Y-63293750D03*
X148645000Y-62893750D03*
X148645000Y-62493750D03*
X148645000Y-62093751D03*
X148645000Y-61693750D03*
%TD*%
D13*
%TO.C,C12*%
X146352232Y-59564375D03*
X147312232Y-59564375D03*
%TD*%
D12*
%TO.C,D18*%
X131382500Y-60721875D03*
X134682500Y-60721875D03*
%TD*%
D11*
%TO.C,C16*%
X63592500Y-45774375D03*
X63592500Y-46734375D03*
%TD*%
D20*
%TO.C,Q3*%
X55451250Y-41021875D03*
X55451250Y-42321875D03*
X53451250Y-41671875D03*
%TD*%
D12*
%TO.C,D2*%
X64707500Y-41671875D03*
X68007500Y-41671875D03*
%TD*%
D16*
%TO.C,C11*%
X145362500Y-62584375D03*
X144402500Y-62584375D03*
%TD*%
D12*
%TO.C,D19*%
X169482500Y-60721875D03*
X172782500Y-60721875D03*
%TD*%
D14*
%TO.C,R5*%
X54961250Y-39671875D03*
X53941250Y-39671875D03*
%TD*%
D12*
%TO.C,D46*%
X217107500Y-98821875D03*
X220407500Y-98821875D03*
%TD*%
%TO.C,D32*%
X179007500Y-79771875D03*
X182307500Y-79771875D03*
%TD*%
%TO.C,D8*%
X179007500Y-41671875D03*
X182307500Y-41671875D03*
%TD*%
D21*
%TO.C,R3*%
X148352500Y-59594375D03*
X148352500Y-58574375D03*
%TD*%
D22*
%TO.C,D42*%
X148970000Y-97631250D03*
X145670000Y-97631250D03*
%TD*%
%TO.C,D44*%
X189428750Y-98821875D03*
X186128750Y-98821875D03*
%TD*%
D23*
%TO.C,U3*%
X65042500Y-47204375D03*
X65042500Y-45304375D03*
X67662500Y-46254375D03*
%TD*%
D12*
%TO.C,D31*%
X159957500Y-79771875D03*
X163257500Y-79771875D03*
%TD*%
D22*
%TO.C,D41*%
X129432500Y-98584375D03*
X126132500Y-98584375D03*
%TD*%
D24*
%TO.C,C4*%
X153072500Y-58654375D03*
X153072500Y-57694375D03*
%TD*%
D13*
%TO.C,C3*%
X157802500Y-64734375D03*
X158762500Y-64734375D03*
%TD*%
D12*
%TO.C,D25*%
X45657500Y-79771875D03*
X48957500Y-79771875D03*
%TD*%
%TO.C,D23*%
X236157500Y-60721875D03*
X239457500Y-60721875D03*
%TD*%
D13*
%TO.C,C9*%
X157802500Y-65734375D03*
X158762500Y-65734375D03*
%TD*%
D22*
%TO.C,D40*%
X110350000Y-97854375D03*
X107050000Y-97854375D03*
%TD*%
D24*
%TO.C,C5*%
X149482500Y-58654375D03*
X149482500Y-57694375D03*
%TD*%
D12*
%TO.C,D14*%
X64707500Y-60721875D03*
X68007500Y-60721875D03*
%TD*%
D22*
%TO.C,D43*%
X170432500Y-98584375D03*
X167132500Y-98584375D03*
%TD*%
D12*
%TO.C,D48*%
X255207500Y-98821875D03*
X258507500Y-98821875D03*
%TD*%
%TO.C,D34*%
X217107500Y-79771875D03*
X220407500Y-79771875D03*
%TD*%
%TO.C,D39*%
X83757500Y-98821875D03*
X87057500Y-98821875D03*
%TD*%
D16*
%TO.C,C15*%
X66832500Y-48564375D03*
X65872500Y-48564375D03*
%TD*%
D12*
%TO.C,D16*%
X102807500Y-60721875D03*
X106107500Y-60721875D03*
%TD*%
%TO.C,D7*%
X159957500Y-41671875D03*
X163257500Y-41671875D03*
%TD*%
%TO.C,D47*%
X236157500Y-98821875D03*
X239457500Y-98821875D03*
%TD*%
D14*
%TO.C,R1*%
X142092500Y-64984375D03*
X141072500Y-64984375D03*
%TD*%
D12*
%TO.C,D3*%
X83757500Y-41671875D03*
X87057500Y-41671875D03*
%TD*%
D25*
%TO.C,U1*%
X147482231Y-60388026D03*
X147482232Y-60788026D03*
X147482232Y-61188026D03*
X147482231Y-61588026D03*
X146182233Y-61588026D03*
X146182232Y-61188026D03*
X146182232Y-60788026D03*
X146182233Y-60388026D03*
%TD*%
D12*
%TO.C,D11*%
X236157500Y-41671875D03*
X239457500Y-41671875D03*
%TD*%
%TO.C,D29*%
X121857500Y-79771875D03*
X125157500Y-79771875D03*
%TD*%
%TO.C,D1*%
X45657500Y-41671875D03*
X48957500Y-41671875D03*
%TD*%
%TO.C,D38*%
X64707500Y-98821875D03*
X68007500Y-98821875D03*
%TD*%
%TO.C,D21*%
X198057500Y-60721875D03*
X201357500Y-60721875D03*
%TD*%
%TO.C,D24*%
X255207500Y-60721875D03*
X258507500Y-60721875D03*
%TD*%
%TO.C,D35*%
X236157500Y-79771875D03*
X239457500Y-79771875D03*
%TD*%
D16*
%TO.C,C7*%
X147452500Y-67964375D03*
X146492500Y-67964375D03*
%TD*%
D26*
%TO.C,R6*%
X250022900Y-43589575D03*
X251042900Y-43589575D03*
%TD*%
D12*
%TO.C,D15*%
X83757500Y-60721875D03*
X87057500Y-60721875D03*
%TD*%
D20*
%TO.C,Q2*%
X249532900Y-42334575D03*
X249532900Y-41034575D03*
X251532900Y-41684575D03*
%TD*%
D12*
%TO.C,D20*%
X179007500Y-60721875D03*
X182307500Y-60721875D03*
%TD*%
D16*
%TO.C,C2*%
X145362500Y-63584375D03*
X144402500Y-63584375D03*
%TD*%
D14*
%TO.C,R2*%
X142092500Y-65984375D03*
X141072500Y-65984375D03*
%TD*%
D16*
%TO.C,C6*%
X145352500Y-67394375D03*
X144392500Y-67394375D03*
%TD*%
D12*
%TO.C,D5*%
X121857500Y-41671875D03*
X125157500Y-41671875D03*
%TD*%
D16*
%TO.C,C1*%
X145362500Y-64584375D03*
X144402500Y-64584375D03*
%TD*%
D12*
%TO.C,D17*%
X121857500Y-60721875D03*
X125157500Y-60721875D03*
%TD*%
%TO.C,D36*%
X255207500Y-79771875D03*
X258507500Y-79771875D03*
%TD*%
%TO.C,D33*%
X198057500Y-79771875D03*
X201357500Y-79771875D03*
%TD*%
%TO.C,D9*%
X198057500Y-41671875D03*
X201357500Y-41671875D03*
%TD*%
D13*
%TO.C,C13*%
X161302500Y-61814375D03*
X162262500Y-61814375D03*
%TD*%
D12*
%TO.C,D12*%
X255207500Y-41671875D03*
X258507500Y-41671875D03*
%TD*%
%TO.C,D26*%
X64707500Y-79771875D03*
X68007500Y-79771875D03*
%TD*%
%TO.C,D4*%
X102807500Y-41671875D03*
X106107500Y-41671875D03*
%TD*%
D27*
%TO.C,J1*%
X73882500Y-42553125D03*
X73882500Y-43553125D03*
X73882500Y-44553125D03*
X73882500Y-45553125D03*
D28*
X77757500Y-41253125D03*
X77757500Y-46853125D03*
%TD*%
D12*
%TO.C,D28*%
X102807500Y-79771875D03*
X106107500Y-79771875D03*
%TD*%
%TO.C,D6*%
X140907500Y-41671875D03*
X144207500Y-41671875D03*
%TD*%
D22*
%TO.C,D45*%
X206232500Y-98584375D03*
X202932500Y-98584375D03*
%TD*%
M02*
