%TF.GenerationSoftware,KiCad,Pcbnew,7.99.0-unknown-e01ef0a38d~172~ubuntu23.04.1*%
%TF.CreationDate,2023-10-19T19:27:51-04:00*%
%TF.ProjectId,Koneko40Ortho,4b6f6e65-6b6f-4343-904f-7274686f2e6b,rev?*%
%TF.SameCoordinates,Original*%
%TF.FileFunction,Soldermask,Top*%
%TF.FilePolarity,Negative*%
%FSLAX46Y46*%
G04 Gerber Fmt 4.6, Leading zero omitted, Abs format (unit mm)*
G04 Created by KiCad (PCBNEW 7.99.0-unknown-e01ef0a38d~172~ubuntu23.04.1) date 2023-10-19 19:27:51*
%MOMM*%
%LPD*%
G01*
G04 APERTURE LIST*
%ADD10C,0.000000*%
%ADD11C,1.750000*%
%ADD12C,3.987800*%
%ADD13C,1.500000*%
%ADD14R,1.000000X1.000000*%
%ADD15O,1.000000X1.000000*%
%ADD16C,0.990600*%
G04 APERTURE END LIST*
D10*
%TO.C,REF\u002A\u002A*%
G36*
X53159735Y-83219254D02*
G01*
X53165647Y-83219704D01*
X53171473Y-83220444D01*
X53177206Y-83221468D01*
X53182838Y-83222768D01*
X53188363Y-83224336D01*
X53193772Y-83226167D01*
X53199059Y-83228251D01*
X53204216Y-83230583D01*
X53209235Y-83233154D01*
X53214110Y-83235957D01*
X53218834Y-83238985D01*
X53223398Y-83242231D01*
X53227796Y-83245687D01*
X53232020Y-83249346D01*
X53236063Y-83253200D01*
X53239918Y-83257243D01*
X53243577Y-83261467D01*
X53247033Y-83265865D01*
X53250279Y-83270430D01*
X53253307Y-83275153D01*
X53256110Y-83280028D01*
X53258681Y-83285048D01*
X53261012Y-83290205D01*
X53263097Y-83295491D01*
X53264927Y-83300900D01*
X53266496Y-83306425D01*
X53267796Y-83312057D01*
X53268819Y-83317790D01*
X53269560Y-83323616D01*
X53270009Y-83329528D01*
X53270161Y-83335519D01*
X53270161Y-83758852D01*
X53270009Y-83764843D01*
X53269560Y-83770755D01*
X53268819Y-83776582D01*
X53267796Y-83782314D01*
X53266496Y-83787947D01*
X53264927Y-83793471D01*
X53263097Y-83798880D01*
X53261012Y-83804167D01*
X53258681Y-83809324D01*
X53256110Y-83814344D01*
X53253307Y-83819219D01*
X53250279Y-83823942D01*
X53247033Y-83828506D01*
X53243577Y-83832904D01*
X53239918Y-83837128D01*
X53236063Y-83841171D01*
X53232020Y-83845026D01*
X53227796Y-83848685D01*
X53223398Y-83852141D01*
X53218834Y-83855387D01*
X53214110Y-83858415D01*
X53209235Y-83861218D01*
X53204216Y-83863789D01*
X53199059Y-83866121D01*
X53193772Y-83868205D01*
X53188363Y-83870035D01*
X53182838Y-83871604D01*
X53177206Y-83872904D01*
X53171473Y-83873928D01*
X53165647Y-83874668D01*
X53159735Y-83875118D01*
X53153744Y-83875269D01*
X52730411Y-83875269D01*
X52724420Y-83875118D01*
X52718508Y-83874668D01*
X52712682Y-83873928D01*
X52706949Y-83872904D01*
X52701316Y-83871604D01*
X52695792Y-83870035D01*
X52690383Y-83868205D01*
X52685096Y-83866121D01*
X52679939Y-83863789D01*
X52674920Y-83861218D01*
X52670045Y-83858415D01*
X52665321Y-83855387D01*
X52660757Y-83852141D01*
X52656359Y-83848685D01*
X52652135Y-83845026D01*
X52648092Y-83841171D01*
X52644237Y-83837128D01*
X52640578Y-83832904D01*
X52637122Y-83828506D01*
X52633876Y-83823942D01*
X52630848Y-83819219D01*
X52628045Y-83814344D01*
X52625474Y-83809324D01*
X52623143Y-83804167D01*
X52621058Y-83798880D01*
X52619228Y-83793471D01*
X52617659Y-83787947D01*
X52616359Y-83782314D01*
X52615335Y-83776582D01*
X52614595Y-83770755D01*
X52614146Y-83764843D01*
X52613994Y-83758852D01*
X52613994Y-83335519D01*
X52614146Y-83329528D01*
X52614595Y-83323616D01*
X52615335Y-83317790D01*
X52616359Y-83312057D01*
X52617659Y-83306425D01*
X52619228Y-83300900D01*
X52621058Y-83295491D01*
X52623143Y-83290205D01*
X52625474Y-83285048D01*
X52628045Y-83280028D01*
X52630848Y-83275153D01*
X52633876Y-83270430D01*
X52637122Y-83265865D01*
X52640578Y-83261467D01*
X52644237Y-83257243D01*
X52648092Y-83253200D01*
X52652135Y-83249346D01*
X52656359Y-83245687D01*
X52660757Y-83242231D01*
X52665321Y-83238985D01*
X52670045Y-83235957D01*
X52674920Y-83233154D01*
X52679939Y-83230583D01*
X52685096Y-83228251D01*
X52690383Y-83226167D01*
X52695792Y-83224336D01*
X52701316Y-83222768D01*
X52706949Y-83221468D01*
X52712682Y-83220444D01*
X52718508Y-83219704D01*
X52724420Y-83219254D01*
X52730411Y-83219103D01*
X53153744Y-83219103D01*
X53159735Y-83219254D01*
G37*
G36*
X53159735Y-84187629D02*
G01*
X53165647Y-84188079D01*
X53171473Y-84188819D01*
X53177206Y-84189843D01*
X53182838Y-84191143D01*
X53188363Y-84192711D01*
X53193772Y-84194542D01*
X53199059Y-84196626D01*
X53204216Y-84198958D01*
X53209235Y-84201528D01*
X53214110Y-84204332D01*
X53218834Y-84207360D01*
X53223398Y-84210605D01*
X53227796Y-84214061D01*
X53232020Y-84217720D01*
X53236063Y-84221575D01*
X53239918Y-84225618D01*
X53243577Y-84229842D01*
X53247033Y-84234240D01*
X53250279Y-84238805D01*
X53253307Y-84243528D01*
X53256110Y-84248403D01*
X53258681Y-84253423D01*
X53261012Y-84258580D01*
X53263097Y-84263866D01*
X53264927Y-84269275D01*
X53266496Y-84274800D01*
X53267796Y-84280432D01*
X53268819Y-84286165D01*
X53269560Y-84291991D01*
X53270009Y-84297903D01*
X53270161Y-84303894D01*
X53270161Y-84727227D01*
X53270009Y-84733218D01*
X53269560Y-84739130D01*
X53268819Y-84744957D01*
X53267796Y-84750690D01*
X53266496Y-84756322D01*
X53264927Y-84761846D01*
X53263097Y-84767255D01*
X53261012Y-84772542D01*
X53258681Y-84777699D01*
X53256110Y-84782719D01*
X53253307Y-84787594D01*
X53250279Y-84792317D01*
X53247033Y-84796881D01*
X53243577Y-84801279D01*
X53239918Y-84805503D01*
X53236063Y-84809546D01*
X53232020Y-84813401D01*
X53227796Y-84817060D01*
X53223398Y-84820516D01*
X53218834Y-84823762D01*
X53214110Y-84826790D01*
X53209235Y-84829593D01*
X53204216Y-84832164D01*
X53199059Y-84834495D01*
X53193772Y-84836580D01*
X53188363Y-84838410D01*
X53182838Y-84839979D01*
X53177206Y-84841279D01*
X53171473Y-84842303D01*
X53165647Y-84843043D01*
X53159735Y-84843492D01*
X53153744Y-84843644D01*
X52730411Y-84843644D01*
X52724420Y-84843492D01*
X52718508Y-84843043D01*
X52712682Y-84842303D01*
X52706949Y-84841279D01*
X52701316Y-84839979D01*
X52695792Y-84838410D01*
X52690383Y-84836580D01*
X52685096Y-84834495D01*
X52679939Y-84832164D01*
X52674920Y-84829593D01*
X52670045Y-84826790D01*
X52665321Y-84823762D01*
X52660757Y-84820516D01*
X52656359Y-84817060D01*
X52652135Y-84813401D01*
X52648092Y-84809546D01*
X52644237Y-84805503D01*
X52640578Y-84801279D01*
X52637122Y-84796881D01*
X52633876Y-84792317D01*
X52630848Y-84787594D01*
X52628045Y-84782719D01*
X52625474Y-84777699D01*
X52623143Y-84772542D01*
X52621058Y-84767255D01*
X52619228Y-84761846D01*
X52617659Y-84756322D01*
X52616359Y-84750690D01*
X52615335Y-84744957D01*
X52614595Y-84739130D01*
X52614146Y-84733218D01*
X52613994Y-84727227D01*
X52613994Y-84303894D01*
X52614146Y-84297903D01*
X52614595Y-84291991D01*
X52615335Y-84286165D01*
X52616359Y-84280432D01*
X52617659Y-84274800D01*
X52619228Y-84269275D01*
X52621058Y-84263866D01*
X52623143Y-84258580D01*
X52625474Y-84253423D01*
X52628045Y-84248403D01*
X52630848Y-84243528D01*
X52633876Y-84238805D01*
X52637122Y-84234240D01*
X52640578Y-84229842D01*
X52644237Y-84225618D01*
X52648092Y-84221575D01*
X52652135Y-84217720D01*
X52656359Y-84214061D01*
X52660757Y-84210605D01*
X52665321Y-84207360D01*
X52670045Y-84204332D01*
X52674920Y-84201528D01*
X52679939Y-84198958D01*
X52685096Y-84196626D01*
X52690383Y-84194542D01*
X52695792Y-84192711D01*
X52701316Y-84191143D01*
X52706949Y-84189843D01*
X52712682Y-84188819D01*
X52718508Y-84188079D01*
X52724420Y-84187629D01*
X52730411Y-84187478D01*
X53153744Y-84187478D01*
X53159735Y-84187629D01*
G37*
G36*
X53159735Y-86105858D02*
G01*
X53165647Y-86106308D01*
X53171473Y-86107048D01*
X53177206Y-86108072D01*
X53182838Y-86109372D01*
X53188363Y-86110940D01*
X53193772Y-86112771D01*
X53199059Y-86114855D01*
X53204216Y-86117186D01*
X53209235Y-86119757D01*
X53214110Y-86122561D01*
X53218834Y-86125589D01*
X53223398Y-86128834D01*
X53227796Y-86132290D01*
X53232020Y-86135949D01*
X53236063Y-86139804D01*
X53239918Y-86143847D01*
X53243577Y-86148071D01*
X53247033Y-86152469D01*
X53250279Y-86157034D01*
X53253307Y-86161757D01*
X53256110Y-86166632D01*
X53258681Y-86171652D01*
X53261012Y-86176809D01*
X53263097Y-86182095D01*
X53264927Y-86187505D01*
X53266496Y-86193029D01*
X53267796Y-86198661D01*
X53268819Y-86204394D01*
X53269560Y-86210220D01*
X53270009Y-86216133D01*
X53270161Y-86222123D01*
X53270161Y-86645456D01*
X53270009Y-86651447D01*
X53269560Y-86657359D01*
X53268819Y-86663185D01*
X53267796Y-86668918D01*
X53266496Y-86674550D01*
X53264927Y-86680075D01*
X53263097Y-86685484D01*
X53261012Y-86690771D01*
X53258681Y-86695928D01*
X53256110Y-86700947D01*
X53253307Y-86705822D01*
X53250279Y-86710546D01*
X53247033Y-86715110D01*
X53243577Y-86719508D01*
X53239918Y-86723732D01*
X53236063Y-86727775D01*
X53232020Y-86731630D01*
X53227796Y-86735289D01*
X53223398Y-86738745D01*
X53218834Y-86741991D01*
X53214110Y-86745019D01*
X53209235Y-86747822D01*
X53204216Y-86750393D01*
X53199059Y-86752724D01*
X53193772Y-86754809D01*
X53188363Y-86756639D01*
X53182838Y-86758208D01*
X53177206Y-86759508D01*
X53171473Y-86760532D01*
X53165647Y-86761272D01*
X53159735Y-86761722D01*
X53153744Y-86761873D01*
X52730411Y-86761873D01*
X52724420Y-86761722D01*
X52718508Y-86761272D01*
X52712682Y-86760532D01*
X52706949Y-86759508D01*
X52701316Y-86758208D01*
X52695792Y-86756639D01*
X52690383Y-86754809D01*
X52685096Y-86752724D01*
X52679939Y-86750393D01*
X52674920Y-86747822D01*
X52670045Y-86745019D01*
X52665321Y-86741991D01*
X52660757Y-86738745D01*
X52656359Y-86735289D01*
X52652135Y-86731630D01*
X52648092Y-86727775D01*
X52644237Y-86723732D01*
X52640578Y-86719508D01*
X52637122Y-86715110D01*
X52633876Y-86710546D01*
X52630848Y-86705822D01*
X52628045Y-86700947D01*
X52625474Y-86695928D01*
X52623143Y-86690771D01*
X52621058Y-86685484D01*
X52619228Y-86680075D01*
X52617659Y-86674550D01*
X52616359Y-86668918D01*
X52615335Y-86663185D01*
X52614595Y-86657359D01*
X52614146Y-86651447D01*
X52613994Y-86645456D01*
X52613994Y-86222123D01*
X52614146Y-86216133D01*
X52614595Y-86210220D01*
X52615335Y-86204394D01*
X52616359Y-86198661D01*
X52617659Y-86193029D01*
X52619228Y-86187505D01*
X52621058Y-86182095D01*
X52623143Y-86176809D01*
X52625474Y-86171652D01*
X52628045Y-86166632D01*
X52630848Y-86161757D01*
X52633876Y-86157034D01*
X52637122Y-86152469D01*
X52640578Y-86148071D01*
X52644237Y-86143847D01*
X52648092Y-86139804D01*
X52652135Y-86135949D01*
X52656359Y-86132290D01*
X52660757Y-86128834D01*
X52665321Y-86125589D01*
X52670045Y-86122561D01*
X52674920Y-86119757D01*
X52679939Y-86117186D01*
X52685096Y-86114855D01*
X52690383Y-86112771D01*
X52695792Y-86110940D01*
X52701316Y-86109372D01*
X52706949Y-86108072D01*
X52712682Y-86107048D01*
X52718508Y-86106308D01*
X52724420Y-86105858D01*
X52730411Y-86105706D01*
X53153744Y-86105706D01*
X53159735Y-86105858D01*
G37*
G36*
X53159735Y-86119088D02*
G01*
X53165647Y-86119537D01*
X53171473Y-86120278D01*
X53177206Y-86121301D01*
X53182838Y-86122601D01*
X53188363Y-86124170D01*
X53193772Y-86126000D01*
X53199059Y-86128085D01*
X53204216Y-86130416D01*
X53209235Y-86132987D01*
X53214110Y-86135790D01*
X53218834Y-86138818D01*
X53223398Y-86142064D01*
X53227796Y-86145520D01*
X53232020Y-86149179D01*
X53236063Y-86153034D01*
X53239918Y-86157077D01*
X53243577Y-86161301D01*
X53247033Y-86165699D01*
X53250279Y-86170263D01*
X53253307Y-86174986D01*
X53256110Y-86179862D01*
X53258681Y-86184881D01*
X53261012Y-86190038D01*
X53263097Y-86195325D01*
X53264927Y-86200734D01*
X53266496Y-86206258D01*
X53267796Y-86211891D01*
X53268819Y-86217624D01*
X53269560Y-86223450D01*
X53270009Y-86229362D01*
X53270161Y-86235353D01*
X53270161Y-86658686D01*
X53270009Y-86664677D01*
X53269560Y-86670589D01*
X53268819Y-86676415D01*
X53267796Y-86682148D01*
X53266496Y-86687780D01*
X53264927Y-86693305D01*
X53263097Y-86698714D01*
X53261012Y-86704001D01*
X53258681Y-86709157D01*
X53256110Y-86714177D01*
X53253307Y-86719052D01*
X53250279Y-86723776D01*
X53247033Y-86728340D01*
X53243577Y-86732738D01*
X53239918Y-86736962D01*
X53236063Y-86741005D01*
X53232020Y-86744860D01*
X53227796Y-86748519D01*
X53223398Y-86751975D01*
X53218834Y-86755220D01*
X53214110Y-86758248D01*
X53209235Y-86761052D01*
X53204216Y-86763623D01*
X53199059Y-86765954D01*
X53193772Y-86768038D01*
X53188363Y-86769869D01*
X53182838Y-86771437D01*
X53177206Y-86772737D01*
X53171473Y-86773761D01*
X53165647Y-86774501D01*
X53159735Y-86774951D01*
X53153744Y-86775102D01*
X52730411Y-86775102D01*
X52724420Y-86774951D01*
X52718508Y-86774501D01*
X52712682Y-86773761D01*
X52706949Y-86772737D01*
X52701316Y-86771437D01*
X52695792Y-86769869D01*
X52690383Y-86768038D01*
X52685096Y-86765954D01*
X52679939Y-86763623D01*
X52674920Y-86761052D01*
X52670045Y-86758248D01*
X52665321Y-86755220D01*
X52660757Y-86751975D01*
X52656359Y-86748519D01*
X52652135Y-86744860D01*
X52648092Y-86741005D01*
X52644237Y-86736962D01*
X52640578Y-86732738D01*
X52637122Y-86728340D01*
X52633876Y-86723776D01*
X52630848Y-86719052D01*
X52628045Y-86714177D01*
X52625474Y-86709157D01*
X52623143Y-86704001D01*
X52621058Y-86698714D01*
X52619228Y-86693305D01*
X52617659Y-86687780D01*
X52616359Y-86682148D01*
X52615335Y-86676415D01*
X52614595Y-86670589D01*
X52614146Y-86664677D01*
X52613994Y-86658686D01*
X52613994Y-86235353D01*
X52614146Y-86229362D01*
X52614595Y-86223450D01*
X52615335Y-86217624D01*
X52616359Y-86211891D01*
X52617659Y-86206258D01*
X52619228Y-86200734D01*
X52621058Y-86195325D01*
X52623143Y-86190038D01*
X52625474Y-86184881D01*
X52628045Y-86179862D01*
X52630848Y-86174986D01*
X52633876Y-86170263D01*
X52637122Y-86165699D01*
X52640578Y-86161301D01*
X52644237Y-86157077D01*
X52648092Y-86153034D01*
X52652135Y-86149179D01*
X52656359Y-86145520D01*
X52660757Y-86142064D01*
X52665321Y-86138818D01*
X52670045Y-86135790D01*
X52674920Y-86132987D01*
X52679939Y-86130416D01*
X52685096Y-86128085D01*
X52690383Y-86126000D01*
X52695792Y-86124170D01*
X52701316Y-86122601D01*
X52706949Y-86121301D01*
X52712682Y-86120278D01*
X52718508Y-86119537D01*
X52724420Y-86119088D01*
X52730411Y-86118936D01*
X53153744Y-86118936D01*
X53159735Y-86119088D01*
G37*
G36*
X54130756Y-83219254D02*
G01*
X54136668Y-83219704D01*
X54142494Y-83220444D01*
X54148227Y-83221468D01*
X54153859Y-83222768D01*
X54159384Y-83224336D01*
X54164793Y-83226167D01*
X54170080Y-83228251D01*
X54175236Y-83230583D01*
X54180256Y-83233154D01*
X54185131Y-83235957D01*
X54189855Y-83238985D01*
X54194419Y-83242231D01*
X54198817Y-83245687D01*
X54203041Y-83249346D01*
X54207084Y-83253200D01*
X54210939Y-83257243D01*
X54214598Y-83261467D01*
X54218054Y-83265865D01*
X54221300Y-83270430D01*
X54224328Y-83275153D01*
X54227131Y-83280028D01*
X54229702Y-83285048D01*
X54232033Y-83290205D01*
X54234117Y-83295491D01*
X54235948Y-83300900D01*
X54237517Y-83306425D01*
X54238816Y-83312057D01*
X54239840Y-83317790D01*
X54240581Y-83323616D01*
X54241030Y-83329528D01*
X54241182Y-83335519D01*
X54241182Y-83758852D01*
X54241030Y-83764843D01*
X54240581Y-83770755D01*
X54239840Y-83776582D01*
X54238816Y-83782314D01*
X54237517Y-83787947D01*
X54235948Y-83793471D01*
X54234117Y-83798880D01*
X54232033Y-83804167D01*
X54229702Y-83809324D01*
X54227131Y-83814344D01*
X54224328Y-83819219D01*
X54221300Y-83823942D01*
X54218054Y-83828506D01*
X54214598Y-83832904D01*
X54210939Y-83837128D01*
X54207084Y-83841171D01*
X54203041Y-83845026D01*
X54198817Y-83848685D01*
X54194419Y-83852141D01*
X54189855Y-83855387D01*
X54185131Y-83858415D01*
X54180256Y-83861218D01*
X54175236Y-83863789D01*
X54170080Y-83866121D01*
X54164793Y-83868205D01*
X54159384Y-83870035D01*
X54153859Y-83871604D01*
X54148227Y-83872904D01*
X54142494Y-83873928D01*
X54136668Y-83874668D01*
X54130756Y-83875118D01*
X54124765Y-83875269D01*
X53701432Y-83875269D01*
X53695441Y-83875118D01*
X53689529Y-83874668D01*
X53683703Y-83873928D01*
X53677970Y-83872904D01*
X53672337Y-83871604D01*
X53666813Y-83870035D01*
X53661404Y-83868205D01*
X53656117Y-83866121D01*
X53650960Y-83863789D01*
X53645941Y-83861218D01*
X53641065Y-83858415D01*
X53636342Y-83855387D01*
X53631778Y-83852141D01*
X53627380Y-83848685D01*
X53623156Y-83845026D01*
X53619113Y-83841171D01*
X53615258Y-83837128D01*
X53611599Y-83832904D01*
X53608143Y-83828506D01*
X53604897Y-83823942D01*
X53601869Y-83819219D01*
X53599066Y-83814344D01*
X53596495Y-83809324D01*
X53594164Y-83804167D01*
X53592079Y-83798880D01*
X53590249Y-83793471D01*
X53588680Y-83787947D01*
X53587380Y-83782314D01*
X53586356Y-83776582D01*
X53585616Y-83770755D01*
X53585166Y-83764843D01*
X53585015Y-83758852D01*
X53585015Y-83335519D01*
X53585166Y-83329528D01*
X53585616Y-83323616D01*
X53586356Y-83317790D01*
X53587380Y-83312057D01*
X53588680Y-83306425D01*
X53590249Y-83300900D01*
X53592079Y-83295491D01*
X53594164Y-83290205D01*
X53596495Y-83285048D01*
X53599066Y-83280028D01*
X53601869Y-83275153D01*
X53604897Y-83270430D01*
X53608143Y-83265865D01*
X53611599Y-83261467D01*
X53615258Y-83257243D01*
X53619113Y-83253200D01*
X53623156Y-83249346D01*
X53627380Y-83245687D01*
X53631778Y-83242231D01*
X53636342Y-83238985D01*
X53641065Y-83235957D01*
X53645941Y-83233154D01*
X53650960Y-83230583D01*
X53656117Y-83228251D01*
X53661404Y-83226167D01*
X53666813Y-83224336D01*
X53672337Y-83222768D01*
X53677970Y-83221468D01*
X53683703Y-83220444D01*
X53689529Y-83219704D01*
X53695441Y-83219254D01*
X53701432Y-83219103D01*
X54124765Y-83219103D01*
X54130756Y-83219254D01*
G37*
G36*
X54130756Y-84187629D02*
G01*
X54136668Y-84188079D01*
X54142494Y-84188819D01*
X54148227Y-84189843D01*
X54153859Y-84191143D01*
X54159384Y-84192711D01*
X54164793Y-84194542D01*
X54170080Y-84196626D01*
X54175236Y-84198958D01*
X54180256Y-84201528D01*
X54185131Y-84204332D01*
X54189855Y-84207360D01*
X54194419Y-84210605D01*
X54198817Y-84214061D01*
X54203041Y-84217720D01*
X54207084Y-84221575D01*
X54210939Y-84225618D01*
X54214598Y-84229842D01*
X54218054Y-84234240D01*
X54221300Y-84238805D01*
X54224328Y-84243528D01*
X54227131Y-84248403D01*
X54229702Y-84253423D01*
X54232033Y-84258580D01*
X54234117Y-84263866D01*
X54235948Y-84269275D01*
X54237517Y-84274800D01*
X54238816Y-84280432D01*
X54239840Y-84286165D01*
X54240581Y-84291991D01*
X54241030Y-84297903D01*
X54241182Y-84303894D01*
X54241182Y-84727227D01*
X54241030Y-84733218D01*
X54240581Y-84739130D01*
X54239840Y-84744957D01*
X54238816Y-84750690D01*
X54237517Y-84756322D01*
X54235948Y-84761846D01*
X54234117Y-84767255D01*
X54232033Y-84772542D01*
X54229702Y-84777699D01*
X54227131Y-84782719D01*
X54224328Y-84787594D01*
X54221300Y-84792317D01*
X54218054Y-84796881D01*
X54214598Y-84801279D01*
X54210939Y-84805503D01*
X54207084Y-84809546D01*
X54203041Y-84813401D01*
X54198817Y-84817060D01*
X54194419Y-84820516D01*
X54189855Y-84823762D01*
X54185131Y-84826790D01*
X54180256Y-84829593D01*
X54175236Y-84832164D01*
X54170080Y-84834495D01*
X54164793Y-84836580D01*
X54159384Y-84838410D01*
X54153859Y-84839979D01*
X54148227Y-84841279D01*
X54142494Y-84842303D01*
X54136668Y-84843043D01*
X54130756Y-84843492D01*
X54124765Y-84843644D01*
X53701432Y-84843644D01*
X53695441Y-84843492D01*
X53689529Y-84843043D01*
X53683703Y-84842303D01*
X53677970Y-84841279D01*
X53672337Y-84839979D01*
X53666813Y-84838410D01*
X53661404Y-84836580D01*
X53656117Y-84834495D01*
X53650960Y-84832164D01*
X53645941Y-84829593D01*
X53641065Y-84826790D01*
X53636342Y-84823762D01*
X53631778Y-84820516D01*
X53627380Y-84817060D01*
X53623156Y-84813401D01*
X53619113Y-84809546D01*
X53615258Y-84805503D01*
X53611599Y-84801279D01*
X53608143Y-84796881D01*
X53604897Y-84792317D01*
X53601869Y-84787594D01*
X53599066Y-84782719D01*
X53596495Y-84777699D01*
X53594164Y-84772542D01*
X53592079Y-84767255D01*
X53590249Y-84761846D01*
X53588680Y-84756322D01*
X53587380Y-84750690D01*
X53586356Y-84744957D01*
X53585616Y-84739130D01*
X53585166Y-84733218D01*
X53585015Y-84727227D01*
X53585015Y-84303894D01*
X53585166Y-84297903D01*
X53585616Y-84291991D01*
X53586356Y-84286165D01*
X53587380Y-84280432D01*
X53588680Y-84274800D01*
X53590249Y-84269275D01*
X53592079Y-84263866D01*
X53594164Y-84258580D01*
X53596495Y-84253423D01*
X53599066Y-84248403D01*
X53601869Y-84243528D01*
X53604897Y-84238805D01*
X53608143Y-84234240D01*
X53611599Y-84229842D01*
X53615258Y-84225618D01*
X53619113Y-84221575D01*
X53623156Y-84217720D01*
X53627380Y-84214061D01*
X53631778Y-84210605D01*
X53636342Y-84207360D01*
X53641065Y-84204332D01*
X53645941Y-84201528D01*
X53650960Y-84198958D01*
X53656117Y-84196626D01*
X53661404Y-84194542D01*
X53666813Y-84192711D01*
X53672337Y-84191143D01*
X53677970Y-84189843D01*
X53683703Y-84188819D01*
X53689529Y-84188079D01*
X53695441Y-84187629D01*
X53701432Y-84187478D01*
X54124765Y-84187478D01*
X54130756Y-84187629D01*
G37*
G36*
X54130756Y-86105858D02*
G01*
X54136668Y-86106308D01*
X54142494Y-86107048D01*
X54148227Y-86108072D01*
X54153859Y-86109372D01*
X54159384Y-86110940D01*
X54164793Y-86112771D01*
X54170080Y-86114855D01*
X54175236Y-86117186D01*
X54180256Y-86119757D01*
X54185131Y-86122561D01*
X54189855Y-86125589D01*
X54194419Y-86128834D01*
X54198817Y-86132290D01*
X54203041Y-86135949D01*
X54207084Y-86139804D01*
X54210939Y-86143847D01*
X54214598Y-86148071D01*
X54218054Y-86152469D01*
X54221300Y-86157034D01*
X54224328Y-86161757D01*
X54227131Y-86166632D01*
X54229702Y-86171652D01*
X54232033Y-86176809D01*
X54234117Y-86182095D01*
X54235948Y-86187505D01*
X54237517Y-86193029D01*
X54238816Y-86198661D01*
X54239840Y-86204394D01*
X54240581Y-86210220D01*
X54241030Y-86216133D01*
X54241182Y-86222123D01*
X54241182Y-86645456D01*
X54241030Y-86651447D01*
X54240581Y-86657359D01*
X54239840Y-86663185D01*
X54238816Y-86668918D01*
X54237517Y-86674550D01*
X54235948Y-86680075D01*
X54234117Y-86685484D01*
X54232033Y-86690771D01*
X54229702Y-86695928D01*
X54227131Y-86700947D01*
X54224328Y-86705822D01*
X54221300Y-86710546D01*
X54218054Y-86715110D01*
X54214598Y-86719508D01*
X54210939Y-86723732D01*
X54207084Y-86727775D01*
X54203041Y-86731630D01*
X54198817Y-86735289D01*
X54194419Y-86738745D01*
X54189855Y-86741991D01*
X54185131Y-86745019D01*
X54180256Y-86747822D01*
X54175236Y-86750393D01*
X54170080Y-86752724D01*
X54164793Y-86754809D01*
X54159384Y-86756639D01*
X54153859Y-86758208D01*
X54148227Y-86759508D01*
X54142494Y-86760532D01*
X54136668Y-86761272D01*
X54130756Y-86761722D01*
X54124765Y-86761873D01*
X53701432Y-86761873D01*
X53695441Y-86761722D01*
X53689529Y-86761272D01*
X53683703Y-86760532D01*
X53677970Y-86759508D01*
X53672337Y-86758208D01*
X53666813Y-86756639D01*
X53661404Y-86754809D01*
X53656117Y-86752724D01*
X53650960Y-86750393D01*
X53645941Y-86747822D01*
X53641065Y-86745019D01*
X53636342Y-86741991D01*
X53631778Y-86738745D01*
X53627380Y-86735289D01*
X53623156Y-86731630D01*
X53619113Y-86727775D01*
X53615258Y-86723732D01*
X53611599Y-86719508D01*
X53608143Y-86715110D01*
X53604897Y-86710546D01*
X53601869Y-86705822D01*
X53599066Y-86700947D01*
X53596495Y-86695928D01*
X53594164Y-86690771D01*
X53592079Y-86685484D01*
X53590249Y-86680075D01*
X53588680Y-86674550D01*
X53587380Y-86668918D01*
X53586356Y-86663185D01*
X53585616Y-86657359D01*
X53585166Y-86651447D01*
X53585015Y-86645456D01*
X53585015Y-86222123D01*
X53585166Y-86216133D01*
X53585616Y-86210220D01*
X53586356Y-86204394D01*
X53587380Y-86198661D01*
X53588680Y-86193029D01*
X53590249Y-86187505D01*
X53592079Y-86182095D01*
X53594164Y-86176809D01*
X53596495Y-86171652D01*
X53599066Y-86166632D01*
X53601869Y-86161757D01*
X53604897Y-86157034D01*
X53608143Y-86152469D01*
X53611599Y-86148071D01*
X53615258Y-86143847D01*
X53619113Y-86139804D01*
X53623156Y-86135949D01*
X53627380Y-86132290D01*
X53631778Y-86128834D01*
X53636342Y-86125589D01*
X53641065Y-86122561D01*
X53645941Y-86119757D01*
X53650960Y-86117186D01*
X53656117Y-86114855D01*
X53661404Y-86112771D01*
X53666813Y-86110940D01*
X53672337Y-86109372D01*
X53677970Y-86108072D01*
X53683703Y-86107048D01*
X53689529Y-86106308D01*
X53695441Y-86105858D01*
X53701432Y-86105706D01*
X54124765Y-86105706D01*
X54130756Y-86105858D01*
G37*
G36*
X54130756Y-86119088D02*
G01*
X54136668Y-86119537D01*
X54142494Y-86120278D01*
X54148227Y-86121301D01*
X54153859Y-86122601D01*
X54159384Y-86124170D01*
X54164793Y-86126000D01*
X54170080Y-86128085D01*
X54175236Y-86130416D01*
X54180256Y-86132987D01*
X54185131Y-86135790D01*
X54189855Y-86138818D01*
X54194419Y-86142064D01*
X54198817Y-86145520D01*
X54203041Y-86149179D01*
X54207084Y-86153034D01*
X54210939Y-86157077D01*
X54214598Y-86161301D01*
X54218054Y-86165699D01*
X54221300Y-86170263D01*
X54224328Y-86174986D01*
X54227131Y-86179862D01*
X54229702Y-86184881D01*
X54232033Y-86190038D01*
X54234117Y-86195325D01*
X54235948Y-86200734D01*
X54237517Y-86206258D01*
X54238816Y-86211891D01*
X54239840Y-86217624D01*
X54240581Y-86223450D01*
X54241030Y-86229362D01*
X54241182Y-86235353D01*
X54241182Y-86658686D01*
X54241030Y-86664677D01*
X54240581Y-86670589D01*
X54239840Y-86676415D01*
X54238816Y-86682148D01*
X54237517Y-86687780D01*
X54235948Y-86693305D01*
X54234117Y-86698714D01*
X54232033Y-86704001D01*
X54229702Y-86709157D01*
X54227131Y-86714177D01*
X54224328Y-86719052D01*
X54221300Y-86723776D01*
X54218054Y-86728340D01*
X54214598Y-86732738D01*
X54210939Y-86736962D01*
X54207084Y-86741005D01*
X54203041Y-86744860D01*
X54198817Y-86748519D01*
X54194419Y-86751975D01*
X54189855Y-86755220D01*
X54185131Y-86758248D01*
X54180256Y-86761052D01*
X54175236Y-86763623D01*
X54170080Y-86765954D01*
X54164793Y-86768038D01*
X54159384Y-86769869D01*
X54153859Y-86771437D01*
X54148227Y-86772737D01*
X54142494Y-86773761D01*
X54136668Y-86774501D01*
X54130756Y-86774951D01*
X54124765Y-86775102D01*
X53701432Y-86775102D01*
X53695441Y-86774951D01*
X53689529Y-86774501D01*
X53683703Y-86773761D01*
X53677970Y-86772737D01*
X53672337Y-86771437D01*
X53666813Y-86769869D01*
X53661404Y-86768038D01*
X53656117Y-86765954D01*
X53650960Y-86763623D01*
X53645941Y-86761052D01*
X53641065Y-86758248D01*
X53636342Y-86755220D01*
X53631778Y-86751975D01*
X53627380Y-86748519D01*
X53623156Y-86744860D01*
X53619113Y-86741005D01*
X53615258Y-86736962D01*
X53611599Y-86732738D01*
X53608143Y-86728340D01*
X53604897Y-86723776D01*
X53601869Y-86719052D01*
X53599066Y-86714177D01*
X53596495Y-86709157D01*
X53594164Y-86704001D01*
X53592079Y-86698714D01*
X53590249Y-86693305D01*
X53588680Y-86687780D01*
X53587380Y-86682148D01*
X53586356Y-86676415D01*
X53585616Y-86670589D01*
X53585166Y-86664677D01*
X53585015Y-86658686D01*
X53585015Y-86235353D01*
X53585166Y-86229362D01*
X53585616Y-86223450D01*
X53586356Y-86217624D01*
X53587380Y-86211891D01*
X53588680Y-86206258D01*
X53590249Y-86200734D01*
X53592079Y-86195325D01*
X53594164Y-86190038D01*
X53596495Y-86184881D01*
X53599066Y-86179862D01*
X53601869Y-86174986D01*
X53604897Y-86170263D01*
X53608143Y-86165699D01*
X53611599Y-86161301D01*
X53615258Y-86157077D01*
X53619113Y-86153034D01*
X53623156Y-86149179D01*
X53627380Y-86145520D01*
X53631778Y-86142064D01*
X53636342Y-86138818D01*
X53641065Y-86135790D01*
X53645941Y-86132987D01*
X53650960Y-86130416D01*
X53656117Y-86128085D01*
X53661404Y-86126000D01*
X53666813Y-86124170D01*
X53672337Y-86122601D01*
X53677970Y-86121301D01*
X53683703Y-86120278D01*
X53689529Y-86119537D01*
X53695441Y-86119088D01*
X53701432Y-86118936D01*
X54124765Y-86118936D01*
X54130756Y-86119088D01*
G37*
G36*
X55093839Y-83219254D02*
G01*
X55099751Y-83219704D01*
X55105577Y-83220444D01*
X55111310Y-83221468D01*
X55116942Y-83222768D01*
X55122467Y-83224336D01*
X55127876Y-83226167D01*
X55133163Y-83228251D01*
X55138320Y-83230583D01*
X55143339Y-83233154D01*
X55148214Y-83235957D01*
X55152938Y-83238985D01*
X55157502Y-83242231D01*
X55161900Y-83245687D01*
X55166124Y-83249346D01*
X55170167Y-83253200D01*
X55174022Y-83257243D01*
X55177681Y-83261467D01*
X55181137Y-83265865D01*
X55184383Y-83270430D01*
X55187411Y-83275153D01*
X55190214Y-83280028D01*
X55192785Y-83285048D01*
X55195116Y-83290205D01*
X55197201Y-83295491D01*
X55199031Y-83300900D01*
X55200600Y-83306425D01*
X55201900Y-83312057D01*
X55202923Y-83317790D01*
X55203664Y-83323616D01*
X55204113Y-83329528D01*
X55204265Y-83335519D01*
X55204265Y-83758852D01*
X55204113Y-83764843D01*
X55203664Y-83770755D01*
X55202923Y-83776582D01*
X55201900Y-83782314D01*
X55200600Y-83787947D01*
X55199031Y-83793471D01*
X55197201Y-83798880D01*
X55195116Y-83804167D01*
X55192785Y-83809324D01*
X55190214Y-83814344D01*
X55187411Y-83819219D01*
X55184383Y-83823942D01*
X55181137Y-83828506D01*
X55177681Y-83832904D01*
X55174022Y-83837128D01*
X55170167Y-83841171D01*
X55166124Y-83845026D01*
X55161900Y-83848685D01*
X55157502Y-83852141D01*
X55152938Y-83855387D01*
X55148214Y-83858415D01*
X55143339Y-83861218D01*
X55138320Y-83863789D01*
X55133163Y-83866121D01*
X55127876Y-83868205D01*
X55122467Y-83870035D01*
X55116942Y-83871604D01*
X55111310Y-83872904D01*
X55105577Y-83873928D01*
X55099751Y-83874668D01*
X55093839Y-83875118D01*
X55087848Y-83875269D01*
X54664515Y-83875269D01*
X54658524Y-83875118D01*
X54652612Y-83874668D01*
X54646786Y-83873928D01*
X54641053Y-83872904D01*
X54635420Y-83871604D01*
X54629896Y-83870035D01*
X54624487Y-83868205D01*
X54619200Y-83866121D01*
X54614043Y-83863789D01*
X54609024Y-83861218D01*
X54604149Y-83858415D01*
X54599425Y-83855387D01*
X54594861Y-83852141D01*
X54590463Y-83848685D01*
X54586239Y-83845026D01*
X54582196Y-83841171D01*
X54578341Y-83837128D01*
X54574682Y-83832904D01*
X54571226Y-83828506D01*
X54567980Y-83823942D01*
X54564952Y-83819219D01*
X54562149Y-83814344D01*
X54559578Y-83809324D01*
X54557247Y-83804167D01*
X54555162Y-83798880D01*
X54553332Y-83793471D01*
X54551763Y-83787947D01*
X54550463Y-83782314D01*
X54549440Y-83776582D01*
X54548699Y-83770755D01*
X54548250Y-83764843D01*
X54548098Y-83758852D01*
X54548098Y-83335519D01*
X54548250Y-83329528D01*
X54548699Y-83323616D01*
X54549440Y-83317790D01*
X54550463Y-83312057D01*
X54551763Y-83306425D01*
X54553332Y-83300900D01*
X54555162Y-83295491D01*
X54557247Y-83290205D01*
X54559578Y-83285048D01*
X54562149Y-83280028D01*
X54564952Y-83275153D01*
X54567980Y-83270430D01*
X54571226Y-83265865D01*
X54574682Y-83261467D01*
X54578341Y-83257243D01*
X54582196Y-83253200D01*
X54586239Y-83249346D01*
X54590463Y-83245687D01*
X54594861Y-83242231D01*
X54599425Y-83238985D01*
X54604149Y-83235957D01*
X54609024Y-83233154D01*
X54614043Y-83230583D01*
X54619200Y-83228251D01*
X54624487Y-83226167D01*
X54629896Y-83224336D01*
X54635420Y-83222768D01*
X54641053Y-83221468D01*
X54646786Y-83220444D01*
X54652612Y-83219704D01*
X54658524Y-83219254D01*
X54664515Y-83219103D01*
X55087848Y-83219103D01*
X55093839Y-83219254D01*
G37*
G36*
X55093839Y-84187629D02*
G01*
X55099751Y-84188079D01*
X55105577Y-84188819D01*
X55111310Y-84189843D01*
X55116942Y-84191143D01*
X55122467Y-84192711D01*
X55127876Y-84194542D01*
X55133163Y-84196626D01*
X55138320Y-84198958D01*
X55143339Y-84201528D01*
X55148214Y-84204332D01*
X55152938Y-84207360D01*
X55157502Y-84210605D01*
X55161900Y-84214061D01*
X55166124Y-84217720D01*
X55170167Y-84221575D01*
X55174022Y-84225618D01*
X55177681Y-84229842D01*
X55181137Y-84234240D01*
X55184383Y-84238805D01*
X55187411Y-84243528D01*
X55190214Y-84248403D01*
X55192785Y-84253423D01*
X55195116Y-84258580D01*
X55197201Y-84263866D01*
X55199031Y-84269275D01*
X55200600Y-84274800D01*
X55201900Y-84280432D01*
X55202923Y-84286165D01*
X55203664Y-84291991D01*
X55204113Y-84297903D01*
X55204265Y-84303894D01*
X55204265Y-84727227D01*
X55204113Y-84733218D01*
X55203664Y-84739130D01*
X55202923Y-84744957D01*
X55201900Y-84750690D01*
X55200600Y-84756322D01*
X55199031Y-84761846D01*
X55197201Y-84767255D01*
X55195116Y-84772542D01*
X55192785Y-84777699D01*
X55190214Y-84782719D01*
X55187411Y-84787594D01*
X55184383Y-84792317D01*
X55181137Y-84796881D01*
X55177681Y-84801279D01*
X55174022Y-84805503D01*
X55170167Y-84809546D01*
X55166124Y-84813401D01*
X55161900Y-84817060D01*
X55157502Y-84820516D01*
X55152938Y-84823762D01*
X55148214Y-84826790D01*
X55143339Y-84829593D01*
X55138320Y-84832164D01*
X55133163Y-84834495D01*
X55127876Y-84836580D01*
X55122467Y-84838410D01*
X55116942Y-84839979D01*
X55111310Y-84841279D01*
X55105577Y-84842303D01*
X55099751Y-84843043D01*
X55093839Y-84843492D01*
X55087848Y-84843644D01*
X54664515Y-84843644D01*
X54658524Y-84843492D01*
X54652612Y-84843043D01*
X54646786Y-84842303D01*
X54641053Y-84841279D01*
X54635420Y-84839979D01*
X54629896Y-84838410D01*
X54624487Y-84836580D01*
X54619200Y-84834495D01*
X54614043Y-84832164D01*
X54609024Y-84829593D01*
X54604149Y-84826790D01*
X54599425Y-84823762D01*
X54594861Y-84820516D01*
X54590463Y-84817060D01*
X54586239Y-84813401D01*
X54582196Y-84809546D01*
X54578341Y-84805503D01*
X54574682Y-84801279D01*
X54571226Y-84796881D01*
X54567980Y-84792317D01*
X54564952Y-84787594D01*
X54562149Y-84782719D01*
X54559578Y-84777699D01*
X54557247Y-84772542D01*
X54555162Y-84767255D01*
X54553332Y-84761846D01*
X54551763Y-84756322D01*
X54550463Y-84750690D01*
X54549440Y-84744957D01*
X54548699Y-84739130D01*
X54548250Y-84733218D01*
X54548098Y-84727227D01*
X54548098Y-84303894D01*
X54548250Y-84297903D01*
X54548699Y-84291991D01*
X54549440Y-84286165D01*
X54550463Y-84280432D01*
X54551763Y-84274800D01*
X54553332Y-84269275D01*
X54555162Y-84263866D01*
X54557247Y-84258580D01*
X54559578Y-84253423D01*
X54562149Y-84248403D01*
X54564952Y-84243528D01*
X54567980Y-84238805D01*
X54571226Y-84234240D01*
X54574682Y-84229842D01*
X54578341Y-84225618D01*
X54582196Y-84221575D01*
X54586239Y-84217720D01*
X54590463Y-84214061D01*
X54594861Y-84210605D01*
X54599425Y-84207360D01*
X54604149Y-84204332D01*
X54609024Y-84201528D01*
X54614043Y-84198958D01*
X54619200Y-84196626D01*
X54624487Y-84194542D01*
X54629896Y-84192711D01*
X54635420Y-84191143D01*
X54641053Y-84189843D01*
X54646786Y-84188819D01*
X54652612Y-84188079D01*
X54658524Y-84187629D01*
X54664515Y-84187478D01*
X55087848Y-84187478D01*
X55093839Y-84187629D01*
G37*
G36*
X55093839Y-85153358D02*
G01*
X55099751Y-85153808D01*
X55105577Y-85154548D01*
X55111310Y-85155572D01*
X55116942Y-85156872D01*
X55122467Y-85158440D01*
X55127876Y-85160271D01*
X55133163Y-85162355D01*
X55138320Y-85164687D01*
X55143339Y-85167257D01*
X55148214Y-85170061D01*
X55152938Y-85173089D01*
X55157502Y-85176335D01*
X55161900Y-85179791D01*
X55166124Y-85183450D01*
X55170167Y-85187304D01*
X55174022Y-85191347D01*
X55177681Y-85195572D01*
X55181137Y-85199969D01*
X55184383Y-85204534D01*
X55187411Y-85209257D01*
X55190214Y-85214132D01*
X55192785Y-85219152D01*
X55195116Y-85224309D01*
X55197201Y-85229595D01*
X55199031Y-85235005D01*
X55200600Y-85240529D01*
X55201900Y-85246161D01*
X55202923Y-85251894D01*
X55203664Y-85257721D01*
X55204113Y-85263633D01*
X55204265Y-85269624D01*
X55204265Y-85692956D01*
X55204113Y-85698947D01*
X55203664Y-85704859D01*
X55202923Y-85710685D01*
X55201900Y-85716418D01*
X55200600Y-85722051D01*
X55199031Y-85727575D01*
X55197201Y-85732984D01*
X55195116Y-85738271D01*
X55192785Y-85743428D01*
X55190214Y-85748447D01*
X55187411Y-85753323D01*
X55184383Y-85758046D01*
X55181137Y-85762610D01*
X55177681Y-85767008D01*
X55174022Y-85771232D01*
X55170167Y-85775275D01*
X55166124Y-85779130D01*
X55161900Y-85782789D01*
X55157502Y-85786245D01*
X55152938Y-85789491D01*
X55148214Y-85792519D01*
X55143339Y-85795322D01*
X55138320Y-85797893D01*
X55133163Y-85800225D01*
X55127876Y-85802309D01*
X55122467Y-85804139D01*
X55116942Y-85805708D01*
X55111310Y-85807008D01*
X55105577Y-85808032D01*
X55099751Y-85808772D01*
X55093839Y-85809222D01*
X55087848Y-85809373D01*
X54664515Y-85809373D01*
X54658524Y-85809222D01*
X54652612Y-85808772D01*
X54646786Y-85808032D01*
X54641053Y-85807008D01*
X54635420Y-85805708D01*
X54629896Y-85804139D01*
X54624487Y-85802309D01*
X54619200Y-85800225D01*
X54614043Y-85797893D01*
X54609024Y-85795322D01*
X54604149Y-85792519D01*
X54599425Y-85789491D01*
X54594861Y-85786245D01*
X54590463Y-85782789D01*
X54586239Y-85779130D01*
X54582196Y-85775275D01*
X54578341Y-85771232D01*
X54574682Y-85767008D01*
X54571226Y-85762610D01*
X54567980Y-85758046D01*
X54564952Y-85753323D01*
X54562149Y-85748447D01*
X54559578Y-85743428D01*
X54557247Y-85738271D01*
X54555162Y-85732984D01*
X54553332Y-85727575D01*
X54551763Y-85722051D01*
X54550463Y-85716418D01*
X54549440Y-85710685D01*
X54548699Y-85704859D01*
X54548250Y-85698947D01*
X54548098Y-85692956D01*
X54548098Y-85269624D01*
X54548250Y-85263633D01*
X54548699Y-85257721D01*
X54549440Y-85251894D01*
X54550463Y-85246161D01*
X54551763Y-85240529D01*
X54553332Y-85235005D01*
X54555162Y-85229595D01*
X54557247Y-85224309D01*
X54559578Y-85219152D01*
X54562149Y-85214132D01*
X54564952Y-85209257D01*
X54567980Y-85204534D01*
X54571226Y-85199969D01*
X54574682Y-85195572D01*
X54578341Y-85191347D01*
X54582196Y-85187304D01*
X54586239Y-85183450D01*
X54590463Y-85179791D01*
X54594861Y-85176335D01*
X54599425Y-85173089D01*
X54604149Y-85170061D01*
X54609024Y-85167257D01*
X54614043Y-85164687D01*
X54619200Y-85162355D01*
X54624487Y-85160271D01*
X54629896Y-85158440D01*
X54635420Y-85156872D01*
X54641053Y-85155572D01*
X54646786Y-85154548D01*
X54652612Y-85153808D01*
X54658524Y-85153358D01*
X54664515Y-85153207D01*
X55087848Y-85153207D01*
X55093839Y-85153358D01*
G37*
G36*
X55093839Y-85153358D02*
G01*
X55099751Y-85153808D01*
X55105577Y-85154548D01*
X55111310Y-85155572D01*
X55116942Y-85156872D01*
X55122467Y-85158440D01*
X55127876Y-85160271D01*
X55133163Y-85162355D01*
X55138320Y-85164687D01*
X55143339Y-85167257D01*
X55148214Y-85170061D01*
X55152938Y-85173089D01*
X55157502Y-85176335D01*
X55161900Y-85179791D01*
X55166124Y-85183450D01*
X55170167Y-85187304D01*
X55174022Y-85191347D01*
X55177681Y-85195572D01*
X55181137Y-85199969D01*
X55184383Y-85204534D01*
X55187411Y-85209257D01*
X55190214Y-85214132D01*
X55192785Y-85219152D01*
X55195116Y-85224309D01*
X55197201Y-85229595D01*
X55199031Y-85235005D01*
X55200600Y-85240529D01*
X55201900Y-85246161D01*
X55202923Y-85251894D01*
X55203664Y-85257721D01*
X55204113Y-85263633D01*
X55204265Y-85269624D01*
X55204265Y-85692956D01*
X55204113Y-85698947D01*
X55203664Y-85704859D01*
X55202923Y-85710685D01*
X55201900Y-85716418D01*
X55200600Y-85722051D01*
X55199031Y-85727575D01*
X55197201Y-85732984D01*
X55195116Y-85738271D01*
X55192785Y-85743428D01*
X55190214Y-85748447D01*
X55187411Y-85753323D01*
X55184383Y-85758046D01*
X55181137Y-85762610D01*
X55177681Y-85767008D01*
X55174022Y-85771232D01*
X55170167Y-85775275D01*
X55166124Y-85779130D01*
X55161900Y-85782789D01*
X55157502Y-85786245D01*
X55152938Y-85789491D01*
X55148214Y-85792519D01*
X55143339Y-85795322D01*
X55138320Y-85797893D01*
X55133163Y-85800225D01*
X55127876Y-85802309D01*
X55122467Y-85804139D01*
X55116942Y-85805708D01*
X55111310Y-85807008D01*
X55105577Y-85808032D01*
X55099751Y-85808772D01*
X55093839Y-85809222D01*
X55087848Y-85809373D01*
X54664515Y-85809373D01*
X54658524Y-85809222D01*
X54652612Y-85808772D01*
X54646786Y-85808032D01*
X54641053Y-85807008D01*
X54635420Y-85805708D01*
X54629896Y-85804139D01*
X54624487Y-85802309D01*
X54619200Y-85800225D01*
X54614043Y-85797893D01*
X54609024Y-85795322D01*
X54604149Y-85792519D01*
X54599425Y-85789491D01*
X54594861Y-85786245D01*
X54590463Y-85782789D01*
X54586239Y-85779130D01*
X54582196Y-85775275D01*
X54578341Y-85771232D01*
X54574682Y-85767008D01*
X54571226Y-85762610D01*
X54567980Y-85758046D01*
X54564952Y-85753323D01*
X54562149Y-85748447D01*
X54559578Y-85743428D01*
X54557247Y-85738271D01*
X54555162Y-85732984D01*
X54553332Y-85727575D01*
X54551763Y-85722051D01*
X54550463Y-85716418D01*
X54549440Y-85710685D01*
X54548699Y-85704859D01*
X54548250Y-85698947D01*
X54548098Y-85692956D01*
X54548098Y-85269624D01*
X54548250Y-85263633D01*
X54548699Y-85257721D01*
X54549440Y-85251894D01*
X54550463Y-85246161D01*
X54551763Y-85240529D01*
X54553332Y-85235005D01*
X54555162Y-85229595D01*
X54557247Y-85224309D01*
X54559578Y-85219152D01*
X54562149Y-85214132D01*
X54564952Y-85209257D01*
X54567980Y-85204534D01*
X54571226Y-85199969D01*
X54574682Y-85195572D01*
X54578341Y-85191347D01*
X54582196Y-85187304D01*
X54586239Y-85183450D01*
X54590463Y-85179791D01*
X54594861Y-85176335D01*
X54599425Y-85173089D01*
X54604149Y-85170061D01*
X54609024Y-85167257D01*
X54614043Y-85164687D01*
X54619200Y-85162355D01*
X54624487Y-85160271D01*
X54629896Y-85158440D01*
X54635420Y-85156872D01*
X54641053Y-85155572D01*
X54646786Y-85154548D01*
X54652612Y-85153808D01*
X54658524Y-85153358D01*
X54664515Y-85153207D01*
X55087848Y-85153207D01*
X55093839Y-85153358D01*
G37*
G36*
X56059568Y-83219254D02*
G01*
X56065480Y-83219704D01*
X56071306Y-83220444D01*
X56077039Y-83221468D01*
X56082671Y-83222768D01*
X56088196Y-83224336D01*
X56093605Y-83226167D01*
X56098892Y-83228251D01*
X56104048Y-83230583D01*
X56109068Y-83233154D01*
X56113943Y-83235957D01*
X56118667Y-83238985D01*
X56123231Y-83242231D01*
X56127629Y-83245687D01*
X56131853Y-83249346D01*
X56135896Y-83253200D01*
X56139751Y-83257243D01*
X56143410Y-83261467D01*
X56146866Y-83265865D01*
X56150112Y-83270430D01*
X56153140Y-83275153D01*
X56155943Y-83280028D01*
X56158514Y-83285048D01*
X56160845Y-83290205D01*
X56162930Y-83295491D01*
X56164760Y-83300900D01*
X56166329Y-83306425D01*
X56167629Y-83312057D01*
X56168652Y-83317790D01*
X56169393Y-83323616D01*
X56169842Y-83329528D01*
X56169994Y-83335519D01*
X56169994Y-83758852D01*
X56169842Y-83764843D01*
X56169393Y-83770755D01*
X56168652Y-83776582D01*
X56167629Y-83782314D01*
X56166329Y-83787947D01*
X56164760Y-83793471D01*
X56162930Y-83798880D01*
X56160845Y-83804167D01*
X56158514Y-83809324D01*
X56155943Y-83814344D01*
X56153140Y-83819219D01*
X56150112Y-83823942D01*
X56146866Y-83828506D01*
X56143410Y-83832904D01*
X56139751Y-83837128D01*
X56135896Y-83841171D01*
X56131853Y-83845026D01*
X56127629Y-83848685D01*
X56123231Y-83852141D01*
X56118667Y-83855387D01*
X56113943Y-83858415D01*
X56109068Y-83861218D01*
X56104048Y-83863789D01*
X56098892Y-83866121D01*
X56093605Y-83868205D01*
X56088196Y-83870035D01*
X56082671Y-83871604D01*
X56077039Y-83872904D01*
X56071306Y-83873928D01*
X56065480Y-83874668D01*
X56059568Y-83875118D01*
X56053577Y-83875269D01*
X55630244Y-83875269D01*
X55624253Y-83875118D01*
X55618341Y-83874668D01*
X55612515Y-83873928D01*
X55606782Y-83872904D01*
X55601150Y-83871604D01*
X55595625Y-83870035D01*
X55590216Y-83868205D01*
X55584929Y-83866121D01*
X55579773Y-83863789D01*
X55574753Y-83861218D01*
X55569878Y-83858415D01*
X55565154Y-83855387D01*
X55560590Y-83852141D01*
X55556192Y-83848685D01*
X55551968Y-83845026D01*
X55547925Y-83841171D01*
X55544070Y-83837128D01*
X55540411Y-83832904D01*
X55536955Y-83828506D01*
X55533709Y-83823942D01*
X55530681Y-83819219D01*
X55527878Y-83814344D01*
X55525307Y-83809324D01*
X55522976Y-83804167D01*
X55520891Y-83798880D01*
X55519061Y-83793471D01*
X55517492Y-83787947D01*
X55516192Y-83782314D01*
X55515169Y-83776582D01*
X55514428Y-83770755D01*
X55513979Y-83764843D01*
X55513827Y-83758852D01*
X55513827Y-83335519D01*
X55513979Y-83329528D01*
X55514428Y-83323616D01*
X55515169Y-83317790D01*
X55516192Y-83312057D01*
X55517492Y-83306425D01*
X55519061Y-83300900D01*
X55520891Y-83295491D01*
X55522976Y-83290205D01*
X55525307Y-83285048D01*
X55527878Y-83280028D01*
X55530681Y-83275153D01*
X55533709Y-83270430D01*
X55536955Y-83265865D01*
X55540411Y-83261467D01*
X55544070Y-83257243D01*
X55547925Y-83253200D01*
X55551968Y-83249346D01*
X55556192Y-83245687D01*
X55560590Y-83242231D01*
X55565154Y-83238985D01*
X55569878Y-83235957D01*
X55574753Y-83233154D01*
X55579773Y-83230583D01*
X55584929Y-83228251D01*
X55590216Y-83226167D01*
X55595625Y-83224336D01*
X55601150Y-83222768D01*
X55606782Y-83221468D01*
X55612515Y-83220444D01*
X55618341Y-83219704D01*
X55624253Y-83219254D01*
X55630244Y-83219103D01*
X56053577Y-83219103D01*
X56059568Y-83219254D01*
G37*
G36*
X56059568Y-84187629D02*
G01*
X56065480Y-84188079D01*
X56071306Y-84188819D01*
X56077039Y-84189843D01*
X56082671Y-84191143D01*
X56088196Y-84192711D01*
X56093605Y-84194542D01*
X56098892Y-84196626D01*
X56104048Y-84198958D01*
X56109068Y-84201528D01*
X56113943Y-84204332D01*
X56118667Y-84207360D01*
X56123231Y-84210605D01*
X56127629Y-84214061D01*
X56131853Y-84217720D01*
X56135896Y-84221575D01*
X56139751Y-84225618D01*
X56143410Y-84229842D01*
X56146866Y-84234240D01*
X56150112Y-84238805D01*
X56153140Y-84243528D01*
X56155943Y-84248403D01*
X56158514Y-84253423D01*
X56160845Y-84258580D01*
X56162930Y-84263866D01*
X56164760Y-84269275D01*
X56166329Y-84274800D01*
X56167629Y-84280432D01*
X56168652Y-84286165D01*
X56169393Y-84291991D01*
X56169842Y-84297903D01*
X56169994Y-84303894D01*
X56169994Y-84727227D01*
X56169842Y-84733218D01*
X56169393Y-84739130D01*
X56168652Y-84744957D01*
X56167629Y-84750690D01*
X56166329Y-84756322D01*
X56164760Y-84761846D01*
X56162930Y-84767255D01*
X56160845Y-84772542D01*
X56158514Y-84777699D01*
X56155943Y-84782719D01*
X56153140Y-84787594D01*
X56150112Y-84792317D01*
X56146866Y-84796881D01*
X56143410Y-84801279D01*
X56139751Y-84805503D01*
X56135896Y-84809546D01*
X56131853Y-84813401D01*
X56127629Y-84817060D01*
X56123231Y-84820516D01*
X56118667Y-84823762D01*
X56113943Y-84826790D01*
X56109068Y-84829593D01*
X56104048Y-84832164D01*
X56098892Y-84834495D01*
X56093605Y-84836580D01*
X56088196Y-84838410D01*
X56082671Y-84839979D01*
X56077039Y-84841279D01*
X56071306Y-84842303D01*
X56065480Y-84843043D01*
X56059568Y-84843492D01*
X56053577Y-84843644D01*
X55630244Y-84843644D01*
X55624253Y-84843492D01*
X55618341Y-84843043D01*
X55612515Y-84842303D01*
X55606782Y-84841279D01*
X55601150Y-84839979D01*
X55595625Y-84838410D01*
X55590216Y-84836580D01*
X55584929Y-84834495D01*
X55579773Y-84832164D01*
X55574753Y-84829593D01*
X55569878Y-84826790D01*
X55565154Y-84823762D01*
X55560590Y-84820516D01*
X55556192Y-84817060D01*
X55551968Y-84813401D01*
X55547925Y-84809546D01*
X55544070Y-84805503D01*
X55540411Y-84801279D01*
X55536955Y-84796881D01*
X55533709Y-84792317D01*
X55530681Y-84787594D01*
X55527878Y-84782719D01*
X55525307Y-84777699D01*
X55522976Y-84772542D01*
X55520891Y-84767255D01*
X55519061Y-84761846D01*
X55517492Y-84756322D01*
X55516192Y-84750690D01*
X55515169Y-84744957D01*
X55514428Y-84739130D01*
X55513979Y-84733218D01*
X55513827Y-84727227D01*
X55513827Y-84303894D01*
X55513979Y-84297903D01*
X55514428Y-84291991D01*
X55515169Y-84286165D01*
X55516192Y-84280432D01*
X55517492Y-84274800D01*
X55519061Y-84269275D01*
X55520891Y-84263866D01*
X55522976Y-84258580D01*
X55525307Y-84253423D01*
X55527878Y-84248403D01*
X55530681Y-84243528D01*
X55533709Y-84238805D01*
X55536955Y-84234240D01*
X55540411Y-84229842D01*
X55544070Y-84225618D01*
X55547925Y-84221575D01*
X55551968Y-84217720D01*
X55556192Y-84214061D01*
X55560590Y-84210605D01*
X55565154Y-84207360D01*
X55569878Y-84204332D01*
X55574753Y-84201528D01*
X55579773Y-84198958D01*
X55584929Y-84196626D01*
X55590216Y-84194542D01*
X55595625Y-84192711D01*
X55601150Y-84191143D01*
X55606782Y-84189843D01*
X55612515Y-84188819D01*
X55618341Y-84188079D01*
X55624253Y-84187629D01*
X55630244Y-84187478D01*
X56053577Y-84187478D01*
X56059568Y-84187629D01*
G37*
G36*
X56059568Y-85153358D02*
G01*
X56065480Y-85153808D01*
X56071306Y-85154548D01*
X56077039Y-85155572D01*
X56082671Y-85156872D01*
X56088196Y-85158440D01*
X56093605Y-85160271D01*
X56098892Y-85162355D01*
X56104048Y-85164687D01*
X56109068Y-85167257D01*
X56113943Y-85170061D01*
X56118667Y-85173089D01*
X56123231Y-85176335D01*
X56127629Y-85179791D01*
X56131853Y-85183450D01*
X56135896Y-85187304D01*
X56139751Y-85191347D01*
X56143410Y-85195572D01*
X56146866Y-85199969D01*
X56150112Y-85204534D01*
X56153140Y-85209257D01*
X56155943Y-85214132D01*
X56158514Y-85219152D01*
X56160845Y-85224309D01*
X56162930Y-85229595D01*
X56164760Y-85235005D01*
X56166329Y-85240529D01*
X56167629Y-85246161D01*
X56168652Y-85251894D01*
X56169393Y-85257721D01*
X56169842Y-85263633D01*
X56169994Y-85269624D01*
X56169994Y-85692956D01*
X56169842Y-85698947D01*
X56169393Y-85704859D01*
X56168652Y-85710685D01*
X56167629Y-85716418D01*
X56166329Y-85722051D01*
X56164760Y-85727575D01*
X56162930Y-85732984D01*
X56160845Y-85738271D01*
X56158514Y-85743428D01*
X56155943Y-85748447D01*
X56153140Y-85753323D01*
X56150112Y-85758046D01*
X56146866Y-85762610D01*
X56143410Y-85767008D01*
X56139751Y-85771232D01*
X56135896Y-85775275D01*
X56131853Y-85779130D01*
X56127629Y-85782789D01*
X56123231Y-85786245D01*
X56118667Y-85789491D01*
X56113943Y-85792519D01*
X56109068Y-85795322D01*
X56104048Y-85797893D01*
X56098892Y-85800225D01*
X56093605Y-85802309D01*
X56088196Y-85804139D01*
X56082671Y-85805708D01*
X56077039Y-85807008D01*
X56071306Y-85808032D01*
X56065480Y-85808772D01*
X56059568Y-85809222D01*
X56053577Y-85809373D01*
X55630244Y-85809373D01*
X55624253Y-85809222D01*
X55618341Y-85808772D01*
X55612515Y-85808032D01*
X55606782Y-85807008D01*
X55601150Y-85805708D01*
X55595625Y-85804139D01*
X55590216Y-85802309D01*
X55584929Y-85800225D01*
X55579773Y-85797893D01*
X55574753Y-85795322D01*
X55569878Y-85792519D01*
X55565154Y-85789491D01*
X55560590Y-85786245D01*
X55556192Y-85782789D01*
X55551968Y-85779130D01*
X55547925Y-85775275D01*
X55544070Y-85771232D01*
X55540411Y-85767008D01*
X55536955Y-85762610D01*
X55533709Y-85758046D01*
X55530681Y-85753323D01*
X55527878Y-85748447D01*
X55525307Y-85743428D01*
X55522976Y-85738271D01*
X55520891Y-85732984D01*
X55519061Y-85727575D01*
X55517492Y-85722051D01*
X55516192Y-85716418D01*
X55515169Y-85710685D01*
X55514428Y-85704859D01*
X55513979Y-85698947D01*
X55513827Y-85692956D01*
X55513827Y-85269624D01*
X55513979Y-85263633D01*
X55514428Y-85257721D01*
X55515169Y-85251894D01*
X55516192Y-85246161D01*
X55517492Y-85240529D01*
X55519061Y-85235005D01*
X55520891Y-85229595D01*
X55522976Y-85224309D01*
X55525307Y-85219152D01*
X55527878Y-85214132D01*
X55530681Y-85209257D01*
X55533709Y-85204534D01*
X55536955Y-85199969D01*
X55540411Y-85195572D01*
X55544070Y-85191347D01*
X55547925Y-85187304D01*
X55551968Y-85183450D01*
X55556192Y-85179791D01*
X55560590Y-85176335D01*
X55565154Y-85173089D01*
X55569878Y-85170061D01*
X55574753Y-85167257D01*
X55579773Y-85164687D01*
X55584929Y-85162355D01*
X55590216Y-85160271D01*
X55595625Y-85158440D01*
X55601150Y-85156872D01*
X55606782Y-85155572D01*
X55612515Y-85154548D01*
X55618341Y-85153808D01*
X55624253Y-85153358D01*
X55630244Y-85153207D01*
X56053577Y-85153207D01*
X56059568Y-85153358D01*
G37*
G36*
X57022651Y-83219254D02*
G01*
X57028563Y-83219704D01*
X57034389Y-83220444D01*
X57040122Y-83221468D01*
X57045755Y-83222768D01*
X57051279Y-83224336D01*
X57056688Y-83226167D01*
X57061975Y-83228251D01*
X57067132Y-83230583D01*
X57072151Y-83233154D01*
X57077027Y-83235957D01*
X57081750Y-83238985D01*
X57086314Y-83242231D01*
X57090712Y-83245687D01*
X57094936Y-83249346D01*
X57098979Y-83253200D01*
X57102834Y-83257243D01*
X57106493Y-83261467D01*
X57109949Y-83265865D01*
X57113195Y-83270430D01*
X57116223Y-83275153D01*
X57119026Y-83280028D01*
X57121597Y-83285048D01*
X57123929Y-83290205D01*
X57126013Y-83295491D01*
X57127843Y-83300900D01*
X57129412Y-83306425D01*
X57130712Y-83312057D01*
X57131736Y-83317790D01*
X57132476Y-83323616D01*
X57132926Y-83329528D01*
X57133077Y-83335519D01*
X57133077Y-83758852D01*
X57132926Y-83764843D01*
X57132476Y-83770755D01*
X57131736Y-83776582D01*
X57130712Y-83782314D01*
X57129412Y-83787947D01*
X57127843Y-83793471D01*
X57126013Y-83798880D01*
X57123929Y-83804167D01*
X57121597Y-83809324D01*
X57119026Y-83814344D01*
X57116223Y-83819219D01*
X57113195Y-83823942D01*
X57109949Y-83828506D01*
X57106493Y-83832904D01*
X57102834Y-83837128D01*
X57098979Y-83841171D01*
X57094936Y-83845026D01*
X57090712Y-83848685D01*
X57086314Y-83852141D01*
X57081750Y-83855387D01*
X57077027Y-83858415D01*
X57072151Y-83861218D01*
X57067132Y-83863789D01*
X57061975Y-83866121D01*
X57056688Y-83868205D01*
X57051279Y-83870035D01*
X57045755Y-83871604D01*
X57040122Y-83872904D01*
X57034389Y-83873928D01*
X57028563Y-83874668D01*
X57022651Y-83875118D01*
X57016660Y-83875269D01*
X56593327Y-83875269D01*
X56587336Y-83875118D01*
X56581424Y-83874668D01*
X56575598Y-83873928D01*
X56569865Y-83872904D01*
X56564233Y-83871604D01*
X56558708Y-83870035D01*
X56553299Y-83868205D01*
X56548012Y-83866121D01*
X56542856Y-83863789D01*
X56537836Y-83861218D01*
X56532961Y-83858415D01*
X56528237Y-83855387D01*
X56523673Y-83852141D01*
X56519275Y-83848685D01*
X56515051Y-83845026D01*
X56511008Y-83841171D01*
X56507153Y-83837128D01*
X56503494Y-83832904D01*
X56500038Y-83828506D01*
X56496793Y-83823942D01*
X56493765Y-83819219D01*
X56490961Y-83814344D01*
X56488390Y-83809324D01*
X56486059Y-83804167D01*
X56483975Y-83798880D01*
X56482144Y-83793471D01*
X56480576Y-83787947D01*
X56479276Y-83782314D01*
X56478252Y-83776582D01*
X56477512Y-83770755D01*
X56477062Y-83764843D01*
X56476911Y-83758852D01*
X56476911Y-83335519D01*
X56477062Y-83329528D01*
X56477512Y-83323616D01*
X56478252Y-83317790D01*
X56479276Y-83312057D01*
X56480576Y-83306425D01*
X56482144Y-83300900D01*
X56483975Y-83295491D01*
X56486059Y-83290205D01*
X56488390Y-83285048D01*
X56490961Y-83280028D01*
X56493765Y-83275153D01*
X56496793Y-83270430D01*
X56500038Y-83265865D01*
X56503494Y-83261467D01*
X56507153Y-83257243D01*
X56511008Y-83253200D01*
X56515051Y-83249346D01*
X56519275Y-83245687D01*
X56523673Y-83242231D01*
X56528237Y-83238985D01*
X56532961Y-83235957D01*
X56537836Y-83233154D01*
X56542856Y-83230583D01*
X56548012Y-83228251D01*
X56553299Y-83226167D01*
X56558708Y-83224336D01*
X56564233Y-83222768D01*
X56569865Y-83221468D01*
X56575598Y-83220444D01*
X56581424Y-83219704D01*
X56587336Y-83219254D01*
X56593327Y-83219103D01*
X57016660Y-83219103D01*
X57022651Y-83219254D01*
G37*
G36*
X57022651Y-84187629D02*
G01*
X57028563Y-84188079D01*
X57034389Y-84188819D01*
X57040122Y-84189843D01*
X57045755Y-84191143D01*
X57051279Y-84192711D01*
X57056688Y-84194542D01*
X57061975Y-84196626D01*
X57067132Y-84198958D01*
X57072151Y-84201528D01*
X57077027Y-84204332D01*
X57081750Y-84207360D01*
X57086314Y-84210605D01*
X57090712Y-84214061D01*
X57094936Y-84217720D01*
X57098979Y-84221575D01*
X57102834Y-84225618D01*
X57106493Y-84229842D01*
X57109949Y-84234240D01*
X57113195Y-84238805D01*
X57116223Y-84243528D01*
X57119026Y-84248403D01*
X57121597Y-84253423D01*
X57123929Y-84258580D01*
X57126013Y-84263866D01*
X57127843Y-84269275D01*
X57129412Y-84274800D01*
X57130712Y-84280432D01*
X57131736Y-84286165D01*
X57132476Y-84291991D01*
X57132926Y-84297903D01*
X57133077Y-84303894D01*
X57133077Y-84727227D01*
X57132926Y-84733218D01*
X57132476Y-84739130D01*
X57131736Y-84744957D01*
X57130712Y-84750690D01*
X57129412Y-84756322D01*
X57127843Y-84761846D01*
X57126013Y-84767255D01*
X57123929Y-84772542D01*
X57121597Y-84777699D01*
X57119026Y-84782719D01*
X57116223Y-84787594D01*
X57113195Y-84792317D01*
X57109949Y-84796881D01*
X57106493Y-84801279D01*
X57102834Y-84805503D01*
X57098979Y-84809546D01*
X57094936Y-84813401D01*
X57090712Y-84817060D01*
X57086314Y-84820516D01*
X57081750Y-84823762D01*
X57077027Y-84826790D01*
X57072151Y-84829593D01*
X57067132Y-84832164D01*
X57061975Y-84834495D01*
X57056688Y-84836580D01*
X57051279Y-84838410D01*
X57045755Y-84839979D01*
X57040122Y-84841279D01*
X57034389Y-84842303D01*
X57028563Y-84843043D01*
X57022651Y-84843492D01*
X57016660Y-84843644D01*
X56593327Y-84843644D01*
X56587336Y-84843492D01*
X56581424Y-84843043D01*
X56575598Y-84842303D01*
X56569865Y-84841279D01*
X56564233Y-84839979D01*
X56558708Y-84838410D01*
X56553299Y-84836580D01*
X56548012Y-84834495D01*
X56542856Y-84832164D01*
X56537836Y-84829593D01*
X56532961Y-84826790D01*
X56528237Y-84823762D01*
X56523673Y-84820516D01*
X56519275Y-84817060D01*
X56515051Y-84813401D01*
X56511008Y-84809546D01*
X56507153Y-84805503D01*
X56503494Y-84801279D01*
X56500038Y-84796881D01*
X56496793Y-84792317D01*
X56493765Y-84787594D01*
X56490961Y-84782719D01*
X56488390Y-84777699D01*
X56486059Y-84772542D01*
X56483975Y-84767255D01*
X56482144Y-84761846D01*
X56480576Y-84756322D01*
X56479276Y-84750690D01*
X56478252Y-84744957D01*
X56477512Y-84739130D01*
X56477062Y-84733218D01*
X56476911Y-84727227D01*
X56476911Y-84303894D01*
X56477062Y-84297903D01*
X56477512Y-84291991D01*
X56478252Y-84286165D01*
X56479276Y-84280432D01*
X56480576Y-84274800D01*
X56482144Y-84269275D01*
X56483975Y-84263866D01*
X56486059Y-84258580D01*
X56488390Y-84253423D01*
X56490961Y-84248403D01*
X56493765Y-84243528D01*
X56496793Y-84238805D01*
X56500038Y-84234240D01*
X56503494Y-84229842D01*
X56507153Y-84225618D01*
X56511008Y-84221575D01*
X56515051Y-84217720D01*
X56519275Y-84214061D01*
X56523673Y-84210605D01*
X56528237Y-84207360D01*
X56532961Y-84204332D01*
X56537836Y-84201528D01*
X56542856Y-84198958D01*
X56548012Y-84196626D01*
X56553299Y-84194542D01*
X56558708Y-84192711D01*
X56564233Y-84191143D01*
X56569865Y-84189843D01*
X56575598Y-84188819D01*
X56581424Y-84188079D01*
X56587336Y-84187629D01*
X56593327Y-84187478D01*
X57016660Y-84187478D01*
X57022651Y-84187629D01*
G37*
G36*
X57022651Y-85153358D02*
G01*
X57028563Y-85153808D01*
X57034389Y-85154548D01*
X57040122Y-85155572D01*
X57045755Y-85156872D01*
X57051279Y-85158440D01*
X57056688Y-85160271D01*
X57061975Y-85162355D01*
X57067132Y-85164687D01*
X57072151Y-85167257D01*
X57077027Y-85170061D01*
X57081750Y-85173089D01*
X57086314Y-85176335D01*
X57090712Y-85179791D01*
X57094936Y-85183450D01*
X57098979Y-85187304D01*
X57102834Y-85191347D01*
X57106493Y-85195572D01*
X57109949Y-85199969D01*
X57113195Y-85204534D01*
X57116223Y-85209257D01*
X57119026Y-85214132D01*
X57121597Y-85219152D01*
X57123929Y-85224309D01*
X57126013Y-85229595D01*
X57127843Y-85235005D01*
X57129412Y-85240529D01*
X57130712Y-85246161D01*
X57131736Y-85251894D01*
X57132476Y-85257721D01*
X57132926Y-85263633D01*
X57133077Y-85269624D01*
X57133077Y-85692956D01*
X57132926Y-85698947D01*
X57132476Y-85704859D01*
X57131736Y-85710685D01*
X57130712Y-85716418D01*
X57129412Y-85722051D01*
X57127843Y-85727575D01*
X57126013Y-85732984D01*
X57123929Y-85738271D01*
X57121597Y-85743428D01*
X57119026Y-85748447D01*
X57116223Y-85753323D01*
X57113195Y-85758046D01*
X57109949Y-85762610D01*
X57106493Y-85767008D01*
X57102834Y-85771232D01*
X57098979Y-85775275D01*
X57094936Y-85779130D01*
X57090712Y-85782789D01*
X57086314Y-85786245D01*
X57081750Y-85789491D01*
X57077027Y-85792519D01*
X57072151Y-85795322D01*
X57067132Y-85797893D01*
X57061975Y-85800225D01*
X57056688Y-85802309D01*
X57051279Y-85804139D01*
X57045755Y-85805708D01*
X57040122Y-85807008D01*
X57034389Y-85808032D01*
X57028563Y-85808772D01*
X57022651Y-85809222D01*
X57016660Y-85809373D01*
X56593327Y-85809373D01*
X56587336Y-85809222D01*
X56581424Y-85808772D01*
X56575598Y-85808032D01*
X56569865Y-85807008D01*
X56564233Y-85805708D01*
X56558708Y-85804139D01*
X56553299Y-85802309D01*
X56548012Y-85800225D01*
X56542856Y-85797893D01*
X56537836Y-85795322D01*
X56532961Y-85792519D01*
X56528237Y-85789491D01*
X56523673Y-85786245D01*
X56519275Y-85782789D01*
X56515051Y-85779130D01*
X56511008Y-85775275D01*
X56507153Y-85771232D01*
X56503494Y-85767008D01*
X56500038Y-85762610D01*
X56496793Y-85758046D01*
X56493765Y-85753323D01*
X56490961Y-85748447D01*
X56488390Y-85743428D01*
X56486059Y-85738271D01*
X56483975Y-85732984D01*
X56482144Y-85727575D01*
X56480576Y-85722051D01*
X56479276Y-85716418D01*
X56478252Y-85710685D01*
X56477512Y-85704859D01*
X56477062Y-85698947D01*
X56476911Y-85692956D01*
X56476911Y-85269624D01*
X56477062Y-85263633D01*
X56477512Y-85257721D01*
X56478252Y-85251894D01*
X56479276Y-85246161D01*
X56480576Y-85240529D01*
X56482144Y-85235005D01*
X56483975Y-85229595D01*
X56486059Y-85224309D01*
X56488390Y-85219152D01*
X56490961Y-85214132D01*
X56493765Y-85209257D01*
X56496793Y-85204534D01*
X56500038Y-85199969D01*
X56503494Y-85195572D01*
X56507153Y-85191347D01*
X56511008Y-85187304D01*
X56515051Y-85183450D01*
X56519275Y-85179791D01*
X56523673Y-85176335D01*
X56528237Y-85173089D01*
X56532961Y-85170061D01*
X56537836Y-85167257D01*
X56542856Y-85164687D01*
X56548012Y-85162355D01*
X56553299Y-85160271D01*
X56558708Y-85158440D01*
X56564233Y-85156872D01*
X56569865Y-85155572D01*
X56575598Y-85154548D01*
X56581424Y-85153808D01*
X56587336Y-85153358D01*
X56593327Y-85153207D01*
X57016660Y-85153207D01*
X57022651Y-85153358D01*
G37*
G36*
X57993672Y-83219254D02*
G01*
X57999584Y-83219704D01*
X58005410Y-83220444D01*
X58011143Y-83221468D01*
X58016775Y-83222768D01*
X58022300Y-83224336D01*
X58027709Y-83226167D01*
X58032996Y-83228251D01*
X58038152Y-83230583D01*
X58043172Y-83233154D01*
X58048047Y-83235957D01*
X58052771Y-83238985D01*
X58057335Y-83242231D01*
X58061733Y-83245687D01*
X58065957Y-83249346D01*
X58070000Y-83253200D01*
X58073855Y-83257243D01*
X58077514Y-83261467D01*
X58080970Y-83265865D01*
X58084216Y-83270430D01*
X58087244Y-83275153D01*
X58090047Y-83280028D01*
X58092618Y-83285048D01*
X58094949Y-83290205D01*
X58097034Y-83295491D01*
X58098864Y-83300900D01*
X58100433Y-83306425D01*
X58101733Y-83312057D01*
X58102756Y-83317790D01*
X58103497Y-83323616D01*
X58103946Y-83329528D01*
X58104098Y-83335519D01*
X58104098Y-83758852D01*
X58103946Y-83764843D01*
X58103497Y-83770755D01*
X58102756Y-83776582D01*
X58101733Y-83782314D01*
X58100433Y-83787947D01*
X58098864Y-83793471D01*
X58097034Y-83798880D01*
X58094949Y-83804167D01*
X58092618Y-83809324D01*
X58090047Y-83814344D01*
X58087244Y-83819219D01*
X58084216Y-83823942D01*
X58080970Y-83828506D01*
X58077514Y-83832904D01*
X58073855Y-83837128D01*
X58070000Y-83841171D01*
X58065957Y-83845026D01*
X58061733Y-83848685D01*
X58057335Y-83852141D01*
X58052771Y-83855387D01*
X58048047Y-83858415D01*
X58043172Y-83861218D01*
X58038152Y-83863789D01*
X58032996Y-83866121D01*
X58027709Y-83868205D01*
X58022300Y-83870035D01*
X58016775Y-83871604D01*
X58011143Y-83872904D01*
X58005410Y-83873928D01*
X57999584Y-83874668D01*
X57993672Y-83875118D01*
X57987681Y-83875269D01*
X57564348Y-83875269D01*
X57558357Y-83875118D01*
X57552445Y-83874668D01*
X57546619Y-83873928D01*
X57540886Y-83872904D01*
X57535254Y-83871604D01*
X57529729Y-83870035D01*
X57524320Y-83868205D01*
X57519033Y-83866121D01*
X57513877Y-83863789D01*
X57508857Y-83861218D01*
X57503982Y-83858415D01*
X57499258Y-83855387D01*
X57494694Y-83852141D01*
X57490296Y-83848685D01*
X57486072Y-83845026D01*
X57482029Y-83841171D01*
X57478174Y-83837128D01*
X57474515Y-83832904D01*
X57471059Y-83828506D01*
X57467813Y-83823942D01*
X57464785Y-83819219D01*
X57461982Y-83814344D01*
X57459411Y-83809324D01*
X57457080Y-83804167D01*
X57454995Y-83798880D01*
X57453165Y-83793471D01*
X57451596Y-83787947D01*
X57450296Y-83782314D01*
X57449273Y-83776582D01*
X57448532Y-83770755D01*
X57448083Y-83764843D01*
X57447931Y-83758852D01*
X57447931Y-83335519D01*
X57448083Y-83329528D01*
X57448532Y-83323616D01*
X57449273Y-83317790D01*
X57450296Y-83312057D01*
X57451596Y-83306425D01*
X57453165Y-83300900D01*
X57454995Y-83295491D01*
X57457080Y-83290205D01*
X57459411Y-83285048D01*
X57461982Y-83280028D01*
X57464785Y-83275153D01*
X57467813Y-83270430D01*
X57471059Y-83265865D01*
X57474515Y-83261467D01*
X57478174Y-83257243D01*
X57482029Y-83253200D01*
X57486072Y-83249346D01*
X57490296Y-83245687D01*
X57494694Y-83242231D01*
X57499258Y-83238985D01*
X57503982Y-83235957D01*
X57508857Y-83233154D01*
X57513877Y-83230583D01*
X57519033Y-83228251D01*
X57524320Y-83226167D01*
X57529729Y-83224336D01*
X57535254Y-83222768D01*
X57540886Y-83221468D01*
X57546619Y-83220444D01*
X57552445Y-83219704D01*
X57558357Y-83219254D01*
X57564348Y-83219103D01*
X57987681Y-83219103D01*
X57993672Y-83219254D01*
G37*
G36*
X57993672Y-84187629D02*
G01*
X57999584Y-84188079D01*
X58005410Y-84188819D01*
X58011143Y-84189843D01*
X58016775Y-84191143D01*
X58022300Y-84192711D01*
X58027709Y-84194542D01*
X58032996Y-84196626D01*
X58038152Y-84198958D01*
X58043172Y-84201528D01*
X58048047Y-84204332D01*
X58052771Y-84207360D01*
X58057335Y-84210605D01*
X58061733Y-84214061D01*
X58065957Y-84217720D01*
X58070000Y-84221575D01*
X58073855Y-84225618D01*
X58077514Y-84229842D01*
X58080970Y-84234240D01*
X58084216Y-84238805D01*
X58087244Y-84243528D01*
X58090047Y-84248403D01*
X58092618Y-84253423D01*
X58094949Y-84258580D01*
X58097034Y-84263866D01*
X58098864Y-84269275D01*
X58100433Y-84274800D01*
X58101733Y-84280432D01*
X58102756Y-84286165D01*
X58103497Y-84291991D01*
X58103946Y-84297903D01*
X58104098Y-84303894D01*
X58104098Y-84727227D01*
X58103946Y-84733218D01*
X58103497Y-84739130D01*
X58102756Y-84744957D01*
X58101733Y-84750690D01*
X58100433Y-84756322D01*
X58098864Y-84761846D01*
X58097034Y-84767255D01*
X58094949Y-84772542D01*
X58092618Y-84777699D01*
X58090047Y-84782719D01*
X58087244Y-84787594D01*
X58084216Y-84792317D01*
X58080970Y-84796881D01*
X58077514Y-84801279D01*
X58073855Y-84805503D01*
X58070000Y-84809546D01*
X58065957Y-84813401D01*
X58061733Y-84817060D01*
X58057335Y-84820516D01*
X58052771Y-84823762D01*
X58048047Y-84826790D01*
X58043172Y-84829593D01*
X58038152Y-84832164D01*
X58032996Y-84834495D01*
X58027709Y-84836580D01*
X58022300Y-84838410D01*
X58016775Y-84839979D01*
X58011143Y-84841279D01*
X58005410Y-84842303D01*
X57999584Y-84843043D01*
X57993672Y-84843492D01*
X57987681Y-84843644D01*
X57564348Y-84843644D01*
X57558357Y-84843492D01*
X57552445Y-84843043D01*
X57546619Y-84842303D01*
X57540886Y-84841279D01*
X57535254Y-84839979D01*
X57529729Y-84838410D01*
X57524320Y-84836580D01*
X57519033Y-84834495D01*
X57513877Y-84832164D01*
X57508857Y-84829593D01*
X57503982Y-84826790D01*
X57499258Y-84823762D01*
X57494694Y-84820516D01*
X57490296Y-84817060D01*
X57486072Y-84813401D01*
X57482029Y-84809546D01*
X57478174Y-84805503D01*
X57474515Y-84801279D01*
X57471059Y-84796881D01*
X57467813Y-84792317D01*
X57464785Y-84787594D01*
X57461982Y-84782719D01*
X57459411Y-84777699D01*
X57457080Y-84772542D01*
X57454995Y-84767255D01*
X57453165Y-84761846D01*
X57451596Y-84756322D01*
X57450296Y-84750690D01*
X57449273Y-84744957D01*
X57448532Y-84739130D01*
X57448083Y-84733218D01*
X57447931Y-84727227D01*
X57447931Y-84303894D01*
X57448083Y-84297903D01*
X57448532Y-84291991D01*
X57449273Y-84286165D01*
X57450296Y-84280432D01*
X57451596Y-84274800D01*
X57453165Y-84269275D01*
X57454995Y-84263866D01*
X57457080Y-84258580D01*
X57459411Y-84253423D01*
X57461982Y-84248403D01*
X57464785Y-84243528D01*
X57467813Y-84238805D01*
X57471059Y-84234240D01*
X57474515Y-84229842D01*
X57478174Y-84225618D01*
X57482029Y-84221575D01*
X57486072Y-84217720D01*
X57490296Y-84214061D01*
X57494694Y-84210605D01*
X57499258Y-84207360D01*
X57503982Y-84204332D01*
X57508857Y-84201528D01*
X57513877Y-84198958D01*
X57519033Y-84196626D01*
X57524320Y-84194542D01*
X57529729Y-84192711D01*
X57535254Y-84191143D01*
X57540886Y-84189843D01*
X57546619Y-84188819D01*
X57552445Y-84188079D01*
X57558357Y-84187629D01*
X57564348Y-84187478D01*
X57987681Y-84187478D01*
X57993672Y-84187629D01*
G37*
G36*
X57993672Y-85153358D02*
G01*
X57999584Y-85153808D01*
X58005410Y-85154548D01*
X58011143Y-85155572D01*
X58016775Y-85156872D01*
X58022300Y-85158440D01*
X58027709Y-85160271D01*
X58032996Y-85162355D01*
X58038152Y-85164687D01*
X58043172Y-85167257D01*
X58048047Y-85170061D01*
X58052771Y-85173089D01*
X58057335Y-85176335D01*
X58061733Y-85179791D01*
X58065957Y-85183450D01*
X58070000Y-85187304D01*
X58073855Y-85191347D01*
X58077514Y-85195572D01*
X58080970Y-85199969D01*
X58084216Y-85204534D01*
X58087244Y-85209257D01*
X58090047Y-85214132D01*
X58092618Y-85219152D01*
X58094949Y-85224309D01*
X58097034Y-85229595D01*
X58098864Y-85235005D01*
X58100433Y-85240529D01*
X58101733Y-85246161D01*
X58102756Y-85251894D01*
X58103497Y-85257721D01*
X58103946Y-85263633D01*
X58104098Y-85269624D01*
X58104098Y-85692956D01*
X58103946Y-85698947D01*
X58103497Y-85704859D01*
X58102756Y-85710685D01*
X58101733Y-85716418D01*
X58100433Y-85722051D01*
X58098864Y-85727575D01*
X58097034Y-85732984D01*
X58094949Y-85738271D01*
X58092618Y-85743428D01*
X58090047Y-85748447D01*
X58087244Y-85753323D01*
X58084216Y-85758046D01*
X58080970Y-85762610D01*
X58077514Y-85767008D01*
X58073855Y-85771232D01*
X58070000Y-85775275D01*
X58065957Y-85779130D01*
X58061733Y-85782789D01*
X58057335Y-85786245D01*
X58052771Y-85789491D01*
X58048047Y-85792519D01*
X58043172Y-85795322D01*
X58038152Y-85797893D01*
X58032996Y-85800225D01*
X58027709Y-85802309D01*
X58022300Y-85804139D01*
X58016775Y-85805708D01*
X58011143Y-85807008D01*
X58005410Y-85808032D01*
X57999584Y-85808772D01*
X57993672Y-85809222D01*
X57987681Y-85809373D01*
X57564348Y-85809373D01*
X57558357Y-85809222D01*
X57552445Y-85808772D01*
X57546619Y-85808032D01*
X57540886Y-85807008D01*
X57535254Y-85805708D01*
X57529729Y-85804139D01*
X57524320Y-85802309D01*
X57519033Y-85800225D01*
X57513877Y-85797893D01*
X57508857Y-85795322D01*
X57503982Y-85792519D01*
X57499258Y-85789491D01*
X57494694Y-85786245D01*
X57490296Y-85782789D01*
X57486072Y-85779130D01*
X57482029Y-85775275D01*
X57478174Y-85771232D01*
X57474515Y-85767008D01*
X57471059Y-85762610D01*
X57467813Y-85758046D01*
X57464785Y-85753323D01*
X57461982Y-85748447D01*
X57459411Y-85743428D01*
X57457080Y-85738271D01*
X57454995Y-85732984D01*
X57453165Y-85727575D01*
X57451596Y-85722051D01*
X57450296Y-85716418D01*
X57449273Y-85710685D01*
X57448532Y-85704859D01*
X57448083Y-85698947D01*
X57447931Y-85692956D01*
X57447931Y-85269624D01*
X57448083Y-85263633D01*
X57448532Y-85257721D01*
X57449273Y-85251894D01*
X57450296Y-85246161D01*
X57451596Y-85240529D01*
X57453165Y-85235005D01*
X57454995Y-85229595D01*
X57457080Y-85224309D01*
X57459411Y-85219152D01*
X57461982Y-85214132D01*
X57464785Y-85209257D01*
X57467813Y-85204534D01*
X57471059Y-85199969D01*
X57474515Y-85195572D01*
X57478174Y-85191347D01*
X57482029Y-85187304D01*
X57486072Y-85183450D01*
X57490296Y-85179791D01*
X57494694Y-85176335D01*
X57499258Y-85173089D01*
X57503982Y-85170061D01*
X57508857Y-85167257D01*
X57513877Y-85164687D01*
X57519033Y-85162355D01*
X57524320Y-85160271D01*
X57529729Y-85158440D01*
X57535254Y-85156872D01*
X57540886Y-85155572D01*
X57546619Y-85154548D01*
X57552445Y-85153808D01*
X57558357Y-85153358D01*
X57564348Y-85153207D01*
X57987681Y-85153207D01*
X57993672Y-85153358D01*
G37*
G36*
X58939260Y-86118274D02*
G01*
X58945885Y-86118718D01*
X58952432Y-86119481D01*
X58958893Y-86120558D01*
X58965258Y-86121941D01*
X58971520Y-86123623D01*
X58977668Y-86125598D01*
X58983694Y-86127856D01*
X58989589Y-86130393D01*
X58995344Y-86133201D01*
X59000950Y-86136272D01*
X59006398Y-86139600D01*
X59011678Y-86143178D01*
X59016783Y-86146998D01*
X59021702Y-86151054D01*
X59026428Y-86155339D01*
X59030950Y-86159844D01*
X59035261Y-86164564D01*
X59039350Y-86169491D01*
X59043210Y-86174619D01*
X59046831Y-86179939D01*
X59050203Y-86185446D01*
X59053319Y-86191132D01*
X59056169Y-86196990D01*
X59058744Y-86203012D01*
X59061035Y-86209193D01*
X59063033Y-86215524D01*
X59064730Y-86221999D01*
X59066115Y-86228611D01*
X59067181Y-86235352D01*
X59067180Y-86661332D01*
X59066114Y-86668073D01*
X59064729Y-86674685D01*
X59063033Y-86681160D01*
X59061034Y-86687491D01*
X59058743Y-86693672D01*
X59056168Y-86699694D01*
X59053319Y-86705552D01*
X59050203Y-86711238D01*
X59046830Y-86716744D01*
X59043210Y-86722065D01*
X59039350Y-86727192D01*
X59035261Y-86732120D01*
X59030950Y-86736840D01*
X59026428Y-86741345D01*
X59021702Y-86745630D01*
X59016783Y-86749685D01*
X59011678Y-86753506D01*
X59006398Y-86757083D01*
X59000950Y-86760411D01*
X58995344Y-86763483D01*
X58989589Y-86766290D01*
X58983694Y-86768827D01*
X58977668Y-86771086D01*
X58971520Y-86773060D01*
X58965259Y-86774742D01*
X58958893Y-86776125D01*
X58952432Y-86777202D01*
X58945885Y-86777966D01*
X58939261Y-86778410D01*
X58932568Y-86778526D01*
X58925817Y-86778308D01*
X58919014Y-86777748D01*
X54685681Y-86777748D01*
X54678879Y-86778308D01*
X54672127Y-86778526D01*
X54665435Y-86778410D01*
X54658810Y-86777966D01*
X54652263Y-86777202D01*
X54645802Y-86776125D01*
X54639437Y-86774742D01*
X54633175Y-86773060D01*
X54627027Y-86771086D01*
X54621001Y-86768827D01*
X54615106Y-86766290D01*
X54609351Y-86763483D01*
X54603745Y-86760411D01*
X54598297Y-86757083D01*
X54593017Y-86753506D01*
X54587912Y-86749685D01*
X54582993Y-86745630D01*
X54578267Y-86741345D01*
X54573745Y-86736840D01*
X54569434Y-86732120D01*
X54565345Y-86727192D01*
X54561485Y-86722065D01*
X54557865Y-86716744D01*
X54554492Y-86711238D01*
X54551376Y-86705552D01*
X54548526Y-86699694D01*
X54545951Y-86693672D01*
X54543660Y-86687491D01*
X54541662Y-86681160D01*
X54539966Y-86674685D01*
X54538580Y-86668073D01*
X54537515Y-86661332D01*
X54537514Y-86235352D01*
X54538580Y-86228611D01*
X54539966Y-86221999D01*
X54541662Y-86215524D01*
X54543660Y-86209193D01*
X54545951Y-86203012D01*
X54548526Y-86196990D01*
X54551376Y-86191132D01*
X54554492Y-86185446D01*
X54557864Y-86179939D01*
X54561485Y-86174619D01*
X54565345Y-86169491D01*
X54569434Y-86164564D01*
X54573745Y-86159844D01*
X54578267Y-86155339D01*
X54582993Y-86151054D01*
X54587912Y-86146998D01*
X54593017Y-86143178D01*
X54598297Y-86139600D01*
X54603745Y-86136272D01*
X54609351Y-86133201D01*
X54615106Y-86130393D01*
X54621001Y-86127856D01*
X54627027Y-86125598D01*
X54633175Y-86123623D01*
X54639437Y-86121941D01*
X54645803Y-86120558D01*
X54652263Y-86119481D01*
X54658811Y-86118718D01*
X54665435Y-86118274D01*
X54672128Y-86118158D01*
X54678879Y-86118376D01*
X54685682Y-86118935D01*
X58919014Y-86118935D01*
X58925816Y-86118376D01*
X58932568Y-86118158D01*
X58939260Y-86118274D01*
G37*
G36*
X58956755Y-83206025D02*
G01*
X58962668Y-83206475D01*
X58968494Y-83207215D01*
X58974227Y-83208239D01*
X58979859Y-83209539D01*
X58985383Y-83211107D01*
X58990793Y-83212938D01*
X58996079Y-83215022D01*
X59001236Y-83217353D01*
X59006256Y-83219924D01*
X59011131Y-83222727D01*
X59015854Y-83225756D01*
X59020419Y-83229001D01*
X59024817Y-83232457D01*
X59029041Y-83236116D01*
X59033084Y-83239971D01*
X59036939Y-83244014D01*
X59040598Y-83248238D01*
X59044054Y-83252636D01*
X59047299Y-83257200D01*
X59050328Y-83261924D01*
X59053131Y-83266799D01*
X59055702Y-83271819D01*
X59058033Y-83276975D01*
X59060117Y-83282262D01*
X59061948Y-83287671D01*
X59063516Y-83293196D01*
X59064816Y-83298828D01*
X59065840Y-83304561D01*
X59066581Y-83310387D01*
X59067030Y-83316299D01*
X59067182Y-83322290D01*
X59067182Y-83745624D01*
X59067030Y-83751614D01*
X59066581Y-83757527D01*
X59065840Y-83763353D01*
X59064816Y-83769086D01*
X59063516Y-83774718D01*
X59061948Y-83780242D01*
X59060117Y-83785652D01*
X59058033Y-83790938D01*
X59055702Y-83796095D01*
X59053131Y-83801115D01*
X59050328Y-83805990D01*
X59047299Y-83810713D01*
X59044054Y-83815278D01*
X59040598Y-83819675D01*
X59036939Y-83823900D01*
X59033084Y-83827943D01*
X59029041Y-83831797D01*
X59024817Y-83835456D01*
X59020419Y-83838912D01*
X59015854Y-83842158D01*
X59011131Y-83845186D01*
X59006256Y-83847989D01*
X59001236Y-83850560D01*
X58996079Y-83852892D01*
X58990793Y-83854976D01*
X58985383Y-83856806D01*
X58979859Y-83858375D01*
X58974227Y-83859675D01*
X58968494Y-83860699D01*
X58962668Y-83861439D01*
X58956755Y-83861889D01*
X58950765Y-83862040D01*
X58527431Y-83862040D01*
X58521441Y-83861889D01*
X58515529Y-83861439D01*
X58509702Y-83860699D01*
X58503969Y-83859675D01*
X58498337Y-83858375D01*
X58492813Y-83856806D01*
X58487403Y-83854976D01*
X58482117Y-83852892D01*
X58476960Y-83850560D01*
X58471940Y-83847989D01*
X58467065Y-83845186D01*
X58462342Y-83842158D01*
X58457778Y-83838912D01*
X58453380Y-83835456D01*
X58449156Y-83831797D01*
X58445113Y-83827943D01*
X58441258Y-83823900D01*
X58437599Y-83819675D01*
X58434143Y-83815278D01*
X58430897Y-83810713D01*
X58427869Y-83805990D01*
X58425066Y-83801115D01*
X58422495Y-83796095D01*
X58420164Y-83790938D01*
X58418079Y-83785652D01*
X58416249Y-83780242D01*
X58414680Y-83774718D01*
X58413380Y-83769086D01*
X58412356Y-83763353D01*
X58411616Y-83757527D01*
X58411166Y-83751614D01*
X58411015Y-83745624D01*
X58411015Y-83322290D01*
X58411166Y-83316299D01*
X58411616Y-83310387D01*
X58412356Y-83304561D01*
X58413380Y-83298828D01*
X58414680Y-83293196D01*
X58416249Y-83287671D01*
X58418079Y-83282262D01*
X58420164Y-83276975D01*
X58422495Y-83271819D01*
X58425066Y-83266799D01*
X58427869Y-83261924D01*
X58430897Y-83257200D01*
X58434143Y-83252636D01*
X58437599Y-83248238D01*
X58441258Y-83244014D01*
X58445113Y-83239971D01*
X58449156Y-83236116D01*
X58453380Y-83232457D01*
X58457778Y-83229001D01*
X58462342Y-83225756D01*
X58467065Y-83222727D01*
X58471940Y-83219924D01*
X58476960Y-83217353D01*
X58482117Y-83215022D01*
X58487403Y-83212938D01*
X58492813Y-83211107D01*
X58498337Y-83209539D01*
X58503969Y-83208239D01*
X58509702Y-83207215D01*
X58515529Y-83206475D01*
X58521441Y-83206025D01*
X58527431Y-83205873D01*
X58950765Y-83205873D01*
X58956755Y-83206025D01*
G37*
G36*
X58956755Y-83219254D02*
G01*
X58962668Y-83219704D01*
X58968494Y-83220444D01*
X58974227Y-83221468D01*
X58979859Y-83222768D01*
X58985383Y-83224336D01*
X58990793Y-83226167D01*
X58996079Y-83228251D01*
X59001236Y-83230583D01*
X59006256Y-83233154D01*
X59011131Y-83235957D01*
X59015854Y-83238985D01*
X59020419Y-83242231D01*
X59024817Y-83245687D01*
X59029041Y-83249346D01*
X59033084Y-83253200D01*
X59036939Y-83257243D01*
X59040598Y-83261467D01*
X59044054Y-83265865D01*
X59047299Y-83270430D01*
X59050328Y-83275153D01*
X59053131Y-83280028D01*
X59055702Y-83285048D01*
X59058033Y-83290205D01*
X59060117Y-83295491D01*
X59061948Y-83300900D01*
X59063516Y-83306425D01*
X59064816Y-83312057D01*
X59065840Y-83317790D01*
X59066581Y-83323616D01*
X59067030Y-83329528D01*
X59067182Y-83335519D01*
X59067182Y-83758852D01*
X59067030Y-83764843D01*
X59066581Y-83770755D01*
X59065840Y-83776582D01*
X59064816Y-83782314D01*
X59063516Y-83787947D01*
X59061948Y-83793471D01*
X59060117Y-83798880D01*
X59058033Y-83804167D01*
X59055702Y-83809324D01*
X59053131Y-83814344D01*
X59050328Y-83819219D01*
X59047299Y-83823942D01*
X59044054Y-83828506D01*
X59040598Y-83832904D01*
X59036939Y-83837128D01*
X59033084Y-83841171D01*
X59029041Y-83845026D01*
X59024817Y-83848685D01*
X59020419Y-83852141D01*
X59015854Y-83855387D01*
X59011131Y-83858415D01*
X59006256Y-83861218D01*
X59001236Y-83863789D01*
X58996079Y-83866121D01*
X58990793Y-83868205D01*
X58985383Y-83870035D01*
X58979859Y-83871604D01*
X58974227Y-83872904D01*
X58968494Y-83873928D01*
X58962668Y-83874668D01*
X58956755Y-83875118D01*
X58950765Y-83875269D01*
X58527431Y-83875269D01*
X58521441Y-83875118D01*
X58515529Y-83874668D01*
X58509702Y-83873928D01*
X58503969Y-83872904D01*
X58498337Y-83871604D01*
X58492813Y-83870035D01*
X58487403Y-83868205D01*
X58482117Y-83866121D01*
X58476960Y-83863789D01*
X58471940Y-83861218D01*
X58467065Y-83858415D01*
X58462342Y-83855387D01*
X58457778Y-83852141D01*
X58453380Y-83848685D01*
X58449156Y-83845026D01*
X58445113Y-83841171D01*
X58441258Y-83837128D01*
X58437599Y-83832904D01*
X58434143Y-83828506D01*
X58430897Y-83823942D01*
X58427869Y-83819219D01*
X58425066Y-83814344D01*
X58422495Y-83809324D01*
X58420164Y-83804167D01*
X58418079Y-83798880D01*
X58416249Y-83793471D01*
X58414680Y-83787947D01*
X58413380Y-83782314D01*
X58412356Y-83776582D01*
X58411616Y-83770755D01*
X58411166Y-83764843D01*
X58411015Y-83758852D01*
X58411015Y-83335519D01*
X58411166Y-83329528D01*
X58411616Y-83323616D01*
X58412356Y-83317790D01*
X58413380Y-83312057D01*
X58414680Y-83306425D01*
X58416249Y-83300900D01*
X58418079Y-83295491D01*
X58420164Y-83290205D01*
X58422495Y-83285048D01*
X58425066Y-83280028D01*
X58427869Y-83275153D01*
X58430897Y-83270430D01*
X58434143Y-83265865D01*
X58437599Y-83261467D01*
X58441258Y-83257243D01*
X58445113Y-83253200D01*
X58449156Y-83249346D01*
X58453380Y-83245687D01*
X58457778Y-83242231D01*
X58462342Y-83238985D01*
X58467065Y-83235957D01*
X58471940Y-83233154D01*
X58476960Y-83230583D01*
X58482117Y-83228251D01*
X58487403Y-83226167D01*
X58492813Y-83224336D01*
X58498337Y-83222768D01*
X58503969Y-83221468D01*
X58509702Y-83220444D01*
X58515529Y-83219704D01*
X58521441Y-83219254D01*
X58527431Y-83219103D01*
X58950765Y-83219103D01*
X58956755Y-83219254D01*
G37*
G36*
X58956755Y-84187629D02*
G01*
X58962668Y-84188079D01*
X58968494Y-84188819D01*
X58974227Y-84189843D01*
X58979859Y-84191143D01*
X58985383Y-84192711D01*
X58990793Y-84194542D01*
X58996079Y-84196626D01*
X59001236Y-84198958D01*
X59006256Y-84201528D01*
X59011131Y-84204332D01*
X59015854Y-84207360D01*
X59020419Y-84210605D01*
X59024817Y-84214061D01*
X59029041Y-84217720D01*
X59033084Y-84221575D01*
X59036939Y-84225618D01*
X59040598Y-84229842D01*
X59044054Y-84234240D01*
X59047299Y-84238805D01*
X59050328Y-84243528D01*
X59053131Y-84248403D01*
X59055702Y-84253423D01*
X59058033Y-84258580D01*
X59060117Y-84263866D01*
X59061948Y-84269275D01*
X59063516Y-84274800D01*
X59064816Y-84280432D01*
X59065840Y-84286165D01*
X59066581Y-84291991D01*
X59067030Y-84297903D01*
X59067182Y-84303894D01*
X59067182Y-84727227D01*
X59067030Y-84733218D01*
X59066581Y-84739130D01*
X59065840Y-84744957D01*
X59064816Y-84750690D01*
X59063516Y-84756322D01*
X59061948Y-84761846D01*
X59060117Y-84767255D01*
X59058033Y-84772542D01*
X59055702Y-84777699D01*
X59053131Y-84782719D01*
X59050328Y-84787594D01*
X59047299Y-84792317D01*
X59044054Y-84796881D01*
X59040598Y-84801279D01*
X59036939Y-84805503D01*
X59033084Y-84809546D01*
X59029041Y-84813401D01*
X59024817Y-84817060D01*
X59020419Y-84820516D01*
X59015854Y-84823762D01*
X59011131Y-84826790D01*
X59006256Y-84829593D01*
X59001236Y-84832164D01*
X58996079Y-84834495D01*
X58990793Y-84836580D01*
X58985383Y-84838410D01*
X58979859Y-84839979D01*
X58974227Y-84841279D01*
X58968494Y-84842303D01*
X58962668Y-84843043D01*
X58956755Y-84843492D01*
X58950765Y-84843644D01*
X58527431Y-84843644D01*
X58521441Y-84843492D01*
X58515529Y-84843043D01*
X58509702Y-84842303D01*
X58503969Y-84841279D01*
X58498337Y-84839979D01*
X58492813Y-84838410D01*
X58487403Y-84836580D01*
X58482117Y-84834495D01*
X58476960Y-84832164D01*
X58471940Y-84829593D01*
X58467065Y-84826790D01*
X58462342Y-84823762D01*
X58457778Y-84820516D01*
X58453380Y-84817060D01*
X58449156Y-84813401D01*
X58445113Y-84809546D01*
X58441258Y-84805503D01*
X58437599Y-84801279D01*
X58434143Y-84796881D01*
X58430897Y-84792317D01*
X58427869Y-84787594D01*
X58425066Y-84782719D01*
X58422495Y-84777699D01*
X58420164Y-84772542D01*
X58418079Y-84767255D01*
X58416249Y-84761846D01*
X58414680Y-84756322D01*
X58413380Y-84750690D01*
X58412356Y-84744957D01*
X58411616Y-84739130D01*
X58411166Y-84733218D01*
X58411015Y-84727227D01*
X58411015Y-84303894D01*
X58411166Y-84297903D01*
X58411616Y-84291991D01*
X58412356Y-84286165D01*
X58413380Y-84280432D01*
X58414680Y-84274800D01*
X58416249Y-84269275D01*
X58418079Y-84263866D01*
X58420164Y-84258580D01*
X58422495Y-84253423D01*
X58425066Y-84248403D01*
X58427869Y-84243528D01*
X58430897Y-84238805D01*
X58434143Y-84234240D01*
X58437599Y-84229842D01*
X58441258Y-84225618D01*
X58445113Y-84221575D01*
X58449156Y-84217720D01*
X58453380Y-84214061D01*
X58457778Y-84210605D01*
X58462342Y-84207360D01*
X58467065Y-84204332D01*
X58471940Y-84201528D01*
X58476960Y-84198958D01*
X58482117Y-84196626D01*
X58487403Y-84194542D01*
X58492813Y-84192711D01*
X58498337Y-84191143D01*
X58503969Y-84189843D01*
X58509702Y-84188819D01*
X58515529Y-84188079D01*
X58521441Y-84187629D01*
X58527431Y-84187478D01*
X58950765Y-84187478D01*
X58956755Y-84187629D01*
G37*
G36*
X58956755Y-85153358D02*
G01*
X58962668Y-85153808D01*
X58968494Y-85154548D01*
X58974227Y-85155572D01*
X58979859Y-85156872D01*
X58985383Y-85158440D01*
X58990793Y-85160271D01*
X58996079Y-85162355D01*
X59001236Y-85164687D01*
X59006256Y-85167257D01*
X59011131Y-85170061D01*
X59015854Y-85173089D01*
X59020419Y-85176335D01*
X59024817Y-85179791D01*
X59029041Y-85183450D01*
X59033084Y-85187304D01*
X59036939Y-85191347D01*
X59040598Y-85195572D01*
X59044054Y-85199969D01*
X59047299Y-85204534D01*
X59050328Y-85209257D01*
X59053131Y-85214132D01*
X59055702Y-85219152D01*
X59058033Y-85224309D01*
X59060117Y-85229595D01*
X59061948Y-85235005D01*
X59063516Y-85240529D01*
X59064816Y-85246161D01*
X59065840Y-85251894D01*
X59066581Y-85257721D01*
X59067030Y-85263633D01*
X59067182Y-85269624D01*
X59067182Y-85692956D01*
X59067030Y-85698947D01*
X59066581Y-85704859D01*
X59065840Y-85710685D01*
X59064816Y-85716418D01*
X59063516Y-85722051D01*
X59061948Y-85727575D01*
X59060117Y-85732984D01*
X59058033Y-85738271D01*
X59055702Y-85743428D01*
X59053131Y-85748447D01*
X59050328Y-85753323D01*
X59047299Y-85758046D01*
X59044054Y-85762610D01*
X59040598Y-85767008D01*
X59036939Y-85771232D01*
X59033084Y-85775275D01*
X59029041Y-85779130D01*
X59024817Y-85782789D01*
X59020419Y-85786245D01*
X59015854Y-85789491D01*
X59011131Y-85792519D01*
X59006256Y-85795322D01*
X59001236Y-85797893D01*
X58996079Y-85800225D01*
X58990793Y-85802309D01*
X58985383Y-85804139D01*
X58979859Y-85805708D01*
X58974227Y-85807008D01*
X58968494Y-85808032D01*
X58962668Y-85808772D01*
X58956755Y-85809222D01*
X58950765Y-85809373D01*
X58527431Y-85809373D01*
X58521441Y-85809222D01*
X58515529Y-85808772D01*
X58509702Y-85808032D01*
X58503969Y-85807008D01*
X58498337Y-85805708D01*
X58492813Y-85804139D01*
X58487403Y-85802309D01*
X58482117Y-85800225D01*
X58476960Y-85797893D01*
X58471940Y-85795322D01*
X58467065Y-85792519D01*
X58462342Y-85789491D01*
X58457778Y-85786245D01*
X58453380Y-85782789D01*
X58449156Y-85779130D01*
X58445113Y-85775275D01*
X58441258Y-85771232D01*
X58437599Y-85767008D01*
X58434143Y-85762610D01*
X58430897Y-85758046D01*
X58427869Y-85753323D01*
X58425066Y-85748447D01*
X58422495Y-85743428D01*
X58420164Y-85738271D01*
X58418079Y-85732984D01*
X58416249Y-85727575D01*
X58414680Y-85722051D01*
X58413380Y-85716418D01*
X58412356Y-85710685D01*
X58411616Y-85704859D01*
X58411166Y-85698947D01*
X58411015Y-85692956D01*
X58411015Y-85269624D01*
X58411166Y-85263633D01*
X58411616Y-85257721D01*
X58412356Y-85251894D01*
X58413380Y-85246161D01*
X58414680Y-85240529D01*
X58416249Y-85235005D01*
X58418079Y-85229595D01*
X58420164Y-85224309D01*
X58422495Y-85219152D01*
X58425066Y-85214132D01*
X58427869Y-85209257D01*
X58430897Y-85204534D01*
X58434143Y-85199969D01*
X58437599Y-85195572D01*
X58441258Y-85191347D01*
X58445113Y-85187304D01*
X58449156Y-85183450D01*
X58453380Y-85179791D01*
X58457778Y-85176335D01*
X58462342Y-85173089D01*
X58467065Y-85170061D01*
X58471940Y-85167257D01*
X58476960Y-85164687D01*
X58482117Y-85162355D01*
X58487403Y-85160271D01*
X58492813Y-85158440D01*
X58498337Y-85156872D01*
X58503969Y-85155572D01*
X58509702Y-85154548D01*
X58515529Y-85153808D01*
X58521441Y-85153358D01*
X58527431Y-85153207D01*
X58950765Y-85153207D01*
X58956755Y-85153358D01*
G37*
G36*
X58956755Y-85153358D02*
G01*
X58962668Y-85153808D01*
X58968494Y-85154548D01*
X58974227Y-85155572D01*
X58979859Y-85156872D01*
X58985383Y-85158440D01*
X58990793Y-85160271D01*
X58996079Y-85162355D01*
X59001236Y-85164687D01*
X59006256Y-85167257D01*
X59011131Y-85170061D01*
X59015854Y-85173089D01*
X59020419Y-85176335D01*
X59024817Y-85179791D01*
X59029041Y-85183450D01*
X59033084Y-85187304D01*
X59036939Y-85191347D01*
X59040598Y-85195572D01*
X59044054Y-85199969D01*
X59047299Y-85204534D01*
X59050328Y-85209257D01*
X59053131Y-85214132D01*
X59055702Y-85219152D01*
X59058033Y-85224309D01*
X59060117Y-85229595D01*
X59061948Y-85235005D01*
X59063516Y-85240529D01*
X59064816Y-85246161D01*
X59065840Y-85251894D01*
X59066581Y-85257721D01*
X59067030Y-85263633D01*
X59067182Y-85269624D01*
X59067182Y-85692956D01*
X59067030Y-85698947D01*
X59066581Y-85704859D01*
X59065840Y-85710685D01*
X59064816Y-85716418D01*
X59063516Y-85722051D01*
X59061948Y-85727575D01*
X59060117Y-85732984D01*
X59058033Y-85738271D01*
X59055702Y-85743428D01*
X59053131Y-85748447D01*
X59050328Y-85753323D01*
X59047299Y-85758046D01*
X59044054Y-85762610D01*
X59040598Y-85767008D01*
X59036939Y-85771232D01*
X59033084Y-85775275D01*
X59029041Y-85779130D01*
X59024817Y-85782789D01*
X59020419Y-85786245D01*
X59015854Y-85789491D01*
X59011131Y-85792519D01*
X59006256Y-85795322D01*
X59001236Y-85797893D01*
X58996079Y-85800225D01*
X58990793Y-85802309D01*
X58985383Y-85804139D01*
X58979859Y-85805708D01*
X58974227Y-85807008D01*
X58968494Y-85808032D01*
X58962668Y-85808772D01*
X58956755Y-85809222D01*
X58950765Y-85809373D01*
X58527431Y-85809373D01*
X58521441Y-85809222D01*
X58515529Y-85808772D01*
X58509702Y-85808032D01*
X58503969Y-85807008D01*
X58498337Y-85805708D01*
X58492813Y-85804139D01*
X58487403Y-85802309D01*
X58482117Y-85800225D01*
X58476960Y-85797893D01*
X58471940Y-85795322D01*
X58467065Y-85792519D01*
X58462342Y-85789491D01*
X58457778Y-85786245D01*
X58453380Y-85782789D01*
X58449156Y-85779130D01*
X58445113Y-85775275D01*
X58441258Y-85771232D01*
X58437599Y-85767008D01*
X58434143Y-85762610D01*
X58430897Y-85758046D01*
X58427869Y-85753323D01*
X58425066Y-85748447D01*
X58422495Y-85743428D01*
X58420164Y-85738271D01*
X58418079Y-85732984D01*
X58416249Y-85727575D01*
X58414680Y-85722051D01*
X58413380Y-85716418D01*
X58412356Y-85710685D01*
X58411616Y-85704859D01*
X58411166Y-85698947D01*
X58411015Y-85692956D01*
X58411015Y-85269624D01*
X58411166Y-85263633D01*
X58411616Y-85257721D01*
X58412356Y-85251894D01*
X58413380Y-85246161D01*
X58414680Y-85240529D01*
X58416249Y-85235005D01*
X58418079Y-85229595D01*
X58420164Y-85224309D01*
X58422495Y-85219152D01*
X58425066Y-85214132D01*
X58427869Y-85209257D01*
X58430897Y-85204534D01*
X58434143Y-85199969D01*
X58437599Y-85195572D01*
X58441258Y-85191347D01*
X58445113Y-85187304D01*
X58449156Y-85183450D01*
X58453380Y-85179791D01*
X58457778Y-85176335D01*
X58462342Y-85173089D01*
X58467065Y-85170061D01*
X58471940Y-85167257D01*
X58476960Y-85164687D01*
X58482117Y-85162355D01*
X58487403Y-85160271D01*
X58492813Y-85158440D01*
X58498337Y-85156872D01*
X58503969Y-85155572D01*
X58509702Y-85154548D01*
X58515529Y-85153808D01*
X58521441Y-85153358D01*
X58527431Y-85153207D01*
X58950765Y-85153207D01*
X58956755Y-85153358D01*
G37*
G36*
X59922484Y-84187629D02*
G01*
X59928396Y-84188079D01*
X59934223Y-84188819D01*
X59939956Y-84189843D01*
X59945588Y-84191143D01*
X59951112Y-84192711D01*
X59956522Y-84194542D01*
X59961808Y-84196626D01*
X59966965Y-84198958D01*
X59971985Y-84201528D01*
X59976860Y-84204332D01*
X59981583Y-84207360D01*
X59986148Y-84210605D01*
X59990546Y-84214061D01*
X59994770Y-84217720D01*
X59998813Y-84221575D01*
X60002667Y-84225618D01*
X60006327Y-84229842D01*
X60009783Y-84234240D01*
X60013028Y-84238805D01*
X60016056Y-84243528D01*
X60018860Y-84248403D01*
X60021430Y-84253423D01*
X60023762Y-84258580D01*
X60025846Y-84263866D01*
X60027676Y-84269275D01*
X60029245Y-84274800D01*
X60030545Y-84280432D01*
X60031569Y-84286165D01*
X60032309Y-84291991D01*
X60032759Y-84297903D01*
X60032910Y-84303894D01*
X60032910Y-84727227D01*
X60032759Y-84733218D01*
X60032309Y-84739130D01*
X60031569Y-84744957D01*
X60030545Y-84750690D01*
X60029245Y-84756322D01*
X60027676Y-84761846D01*
X60025846Y-84767255D01*
X60023762Y-84772542D01*
X60021430Y-84777699D01*
X60018860Y-84782719D01*
X60016056Y-84787594D01*
X60013028Y-84792317D01*
X60009783Y-84796881D01*
X60006327Y-84801279D01*
X60002667Y-84805503D01*
X59998813Y-84809546D01*
X59994770Y-84813401D01*
X59990546Y-84817060D01*
X59986148Y-84820516D01*
X59981583Y-84823762D01*
X59976860Y-84826790D01*
X59971985Y-84829593D01*
X59966965Y-84832164D01*
X59961808Y-84834495D01*
X59956522Y-84836580D01*
X59951112Y-84838410D01*
X59945588Y-84839979D01*
X59939956Y-84841279D01*
X59934223Y-84842303D01*
X59928396Y-84843043D01*
X59922484Y-84843492D01*
X59916493Y-84843644D01*
X59493161Y-84843644D01*
X59487170Y-84843492D01*
X59481258Y-84843043D01*
X59475432Y-84842303D01*
X59469699Y-84841279D01*
X59464066Y-84839979D01*
X59458542Y-84838410D01*
X59453133Y-84836580D01*
X59447846Y-84834495D01*
X59442689Y-84832164D01*
X59437669Y-84829593D01*
X59432794Y-84826790D01*
X59428071Y-84823762D01*
X59423507Y-84820516D01*
X59419109Y-84817060D01*
X59414885Y-84813401D01*
X59410842Y-84809546D01*
X59406987Y-84805503D01*
X59403328Y-84801279D01*
X59399872Y-84796881D01*
X59396626Y-84792317D01*
X59393598Y-84787594D01*
X59390795Y-84782719D01*
X59388224Y-84777699D01*
X59385892Y-84772542D01*
X59383808Y-84767255D01*
X59381978Y-84761846D01*
X59380409Y-84756322D01*
X59379109Y-84750690D01*
X59378085Y-84744957D01*
X59377345Y-84739130D01*
X59376895Y-84733218D01*
X59376744Y-84727227D01*
X59376744Y-84303894D01*
X59376895Y-84297903D01*
X59377345Y-84291991D01*
X59378085Y-84286165D01*
X59379109Y-84280432D01*
X59380409Y-84274800D01*
X59381978Y-84269275D01*
X59383808Y-84263866D01*
X59385892Y-84258580D01*
X59388224Y-84253423D01*
X59390795Y-84248403D01*
X59393598Y-84243528D01*
X59396626Y-84238805D01*
X59399872Y-84234240D01*
X59403328Y-84229842D01*
X59406987Y-84225618D01*
X59410842Y-84221575D01*
X59414885Y-84217720D01*
X59419109Y-84214061D01*
X59423507Y-84210605D01*
X59428071Y-84207360D01*
X59432794Y-84204332D01*
X59437669Y-84201528D01*
X59442689Y-84198958D01*
X59447846Y-84196626D01*
X59453133Y-84194542D01*
X59458542Y-84192711D01*
X59464066Y-84191143D01*
X59469699Y-84189843D01*
X59475432Y-84188819D01*
X59481258Y-84188079D01*
X59487170Y-84187629D01*
X59493161Y-84187478D01*
X59916493Y-84187478D01*
X59922484Y-84187629D01*
G37*
G36*
X59922484Y-86105858D02*
G01*
X59928396Y-86106308D01*
X59934223Y-86107048D01*
X59939956Y-86108072D01*
X59945588Y-86109372D01*
X59951112Y-86110940D01*
X59956522Y-86112771D01*
X59961808Y-86114855D01*
X59966965Y-86117186D01*
X59971985Y-86119757D01*
X59976860Y-86122561D01*
X59981583Y-86125589D01*
X59986148Y-86128834D01*
X59990546Y-86132290D01*
X59994770Y-86135949D01*
X59998813Y-86139804D01*
X60002667Y-86143847D01*
X60006327Y-86148071D01*
X60009783Y-86152469D01*
X60013028Y-86157034D01*
X60016056Y-86161757D01*
X60018860Y-86166632D01*
X60021430Y-86171652D01*
X60023762Y-86176809D01*
X60025846Y-86182095D01*
X60027676Y-86187505D01*
X60029245Y-86193029D01*
X60030545Y-86198661D01*
X60031569Y-86204394D01*
X60032309Y-86210220D01*
X60032759Y-86216133D01*
X60032910Y-86222123D01*
X60032910Y-86645456D01*
X60032759Y-86651447D01*
X60032309Y-86657359D01*
X60031569Y-86663185D01*
X60030545Y-86668918D01*
X60029245Y-86674550D01*
X60027676Y-86680075D01*
X60025846Y-86685484D01*
X60023762Y-86690771D01*
X60021430Y-86695928D01*
X60018860Y-86700947D01*
X60016056Y-86705822D01*
X60013028Y-86710546D01*
X60009783Y-86715110D01*
X60006327Y-86719508D01*
X60002667Y-86723732D01*
X59998813Y-86727775D01*
X59994770Y-86731630D01*
X59990546Y-86735289D01*
X59986148Y-86738745D01*
X59981583Y-86741991D01*
X59976860Y-86745019D01*
X59971985Y-86747822D01*
X59966965Y-86750393D01*
X59961808Y-86752724D01*
X59956522Y-86754809D01*
X59951112Y-86756639D01*
X59945588Y-86758208D01*
X59939956Y-86759508D01*
X59934223Y-86760532D01*
X59928396Y-86761272D01*
X59922484Y-86761722D01*
X59916493Y-86761873D01*
X59493161Y-86761873D01*
X59487170Y-86761722D01*
X59481258Y-86761272D01*
X59475432Y-86760532D01*
X59469699Y-86759508D01*
X59464066Y-86758208D01*
X59458542Y-86756639D01*
X59453133Y-86754809D01*
X59447846Y-86752724D01*
X59442689Y-86750393D01*
X59437669Y-86747822D01*
X59432794Y-86745019D01*
X59428071Y-86741991D01*
X59423507Y-86738745D01*
X59419109Y-86735289D01*
X59414885Y-86731630D01*
X59410842Y-86727775D01*
X59406987Y-86723732D01*
X59403328Y-86719508D01*
X59399872Y-86715110D01*
X59396626Y-86710546D01*
X59393598Y-86705822D01*
X59390795Y-86700947D01*
X59388224Y-86695928D01*
X59385892Y-86690771D01*
X59383808Y-86685484D01*
X59381978Y-86680075D01*
X59380409Y-86674550D01*
X59379109Y-86668918D01*
X59378085Y-86663185D01*
X59377345Y-86657359D01*
X59376895Y-86651447D01*
X59376744Y-86645456D01*
X59376744Y-86222123D01*
X59376895Y-86216133D01*
X59377345Y-86210220D01*
X59378085Y-86204394D01*
X59379109Y-86198661D01*
X59380409Y-86193029D01*
X59381978Y-86187505D01*
X59383808Y-86182095D01*
X59385892Y-86176809D01*
X59388224Y-86171652D01*
X59390795Y-86166632D01*
X59393598Y-86161757D01*
X59396626Y-86157034D01*
X59399872Y-86152469D01*
X59403328Y-86148071D01*
X59406987Y-86143847D01*
X59410842Y-86139804D01*
X59414885Y-86135949D01*
X59419109Y-86132290D01*
X59423507Y-86128834D01*
X59428071Y-86125589D01*
X59432794Y-86122561D01*
X59437669Y-86119757D01*
X59442689Y-86117186D01*
X59447846Y-86114855D01*
X59453133Y-86112771D01*
X59458542Y-86110940D01*
X59464066Y-86109372D01*
X59469699Y-86108072D01*
X59475432Y-86107048D01*
X59481258Y-86106308D01*
X59487170Y-86105858D01*
X59493161Y-86105706D01*
X59916493Y-86105706D01*
X59922484Y-86105858D01*
G37*
G36*
X59922484Y-86119088D02*
G01*
X59928396Y-86119537D01*
X59934223Y-86120278D01*
X59939956Y-86121301D01*
X59945588Y-86122601D01*
X59951112Y-86124170D01*
X59956522Y-86126000D01*
X59961808Y-86128085D01*
X59966965Y-86130416D01*
X59971985Y-86132987D01*
X59976860Y-86135790D01*
X59981583Y-86138818D01*
X59986148Y-86142064D01*
X59990546Y-86145520D01*
X59994770Y-86149179D01*
X59998813Y-86153034D01*
X60002667Y-86157077D01*
X60006327Y-86161301D01*
X60009783Y-86165699D01*
X60013028Y-86170263D01*
X60016056Y-86174986D01*
X60018860Y-86179862D01*
X60021430Y-86184881D01*
X60023762Y-86190038D01*
X60025846Y-86195325D01*
X60027676Y-86200734D01*
X60029245Y-86206258D01*
X60030545Y-86211891D01*
X60031569Y-86217624D01*
X60032309Y-86223450D01*
X60032759Y-86229362D01*
X60032910Y-86235353D01*
X60032910Y-86658686D01*
X60032759Y-86664677D01*
X60032309Y-86670589D01*
X60031569Y-86676415D01*
X60030545Y-86682148D01*
X60029245Y-86687780D01*
X60027676Y-86693305D01*
X60025846Y-86698714D01*
X60023762Y-86704001D01*
X60021430Y-86709157D01*
X60018860Y-86714177D01*
X60016056Y-86719052D01*
X60013028Y-86723776D01*
X60009783Y-86728340D01*
X60006327Y-86732738D01*
X60002667Y-86736962D01*
X59998813Y-86741005D01*
X59994770Y-86744860D01*
X59990546Y-86748519D01*
X59986148Y-86751975D01*
X59981583Y-86755220D01*
X59976860Y-86758248D01*
X59971985Y-86761052D01*
X59966965Y-86763622D01*
X59961808Y-86765954D01*
X59956522Y-86768038D01*
X59951112Y-86769869D01*
X59945588Y-86771437D01*
X59939956Y-86772737D01*
X59934223Y-86773761D01*
X59928396Y-86774501D01*
X59922484Y-86774951D01*
X59916493Y-86775102D01*
X59493161Y-86775102D01*
X59487170Y-86774951D01*
X59481258Y-86774501D01*
X59475432Y-86773761D01*
X59469699Y-86772737D01*
X59464066Y-86771437D01*
X59458542Y-86769869D01*
X59453133Y-86768038D01*
X59447846Y-86765954D01*
X59442689Y-86763622D01*
X59437669Y-86761052D01*
X59432794Y-86758248D01*
X59428071Y-86755220D01*
X59423507Y-86751975D01*
X59419109Y-86748519D01*
X59414885Y-86744860D01*
X59410842Y-86741005D01*
X59406987Y-86736962D01*
X59403328Y-86732738D01*
X59399872Y-86728340D01*
X59396626Y-86723776D01*
X59393598Y-86719052D01*
X59390795Y-86714177D01*
X59388224Y-86709157D01*
X59385892Y-86704001D01*
X59383808Y-86698714D01*
X59381978Y-86693305D01*
X59380409Y-86687780D01*
X59379109Y-86682148D01*
X59378085Y-86676415D01*
X59377345Y-86670589D01*
X59376895Y-86664677D01*
X59376744Y-86658686D01*
X59376744Y-86235353D01*
X59376895Y-86229362D01*
X59377345Y-86223450D01*
X59378085Y-86217624D01*
X59379109Y-86211891D01*
X59380409Y-86206258D01*
X59381978Y-86200734D01*
X59383808Y-86195325D01*
X59385892Y-86190038D01*
X59388224Y-86184881D01*
X59390795Y-86179862D01*
X59393598Y-86174986D01*
X59396626Y-86170263D01*
X59399872Y-86165699D01*
X59403328Y-86161301D01*
X59406987Y-86157077D01*
X59410842Y-86153034D01*
X59414885Y-86149179D01*
X59419109Y-86145520D01*
X59423507Y-86142064D01*
X59428071Y-86138818D01*
X59432794Y-86135790D01*
X59437669Y-86132987D01*
X59442689Y-86130416D01*
X59447846Y-86128085D01*
X59453133Y-86126000D01*
X59458542Y-86124170D01*
X59464066Y-86122601D01*
X59469699Y-86121301D01*
X59475432Y-86120278D01*
X59481258Y-86119537D01*
X59487170Y-86119088D01*
X59493161Y-86118936D01*
X59916493Y-86118936D01*
X59922484Y-86119088D01*
G37*
G36*
X60893506Y-84187629D02*
G01*
X60899418Y-84188079D01*
X60905244Y-84188819D01*
X60910977Y-84189843D01*
X60916609Y-84191143D01*
X60922134Y-84192711D01*
X60927543Y-84194542D01*
X60932829Y-84196626D01*
X60937986Y-84198958D01*
X60943006Y-84201528D01*
X60947881Y-84204332D01*
X60952604Y-84207360D01*
X60957169Y-84210605D01*
X60961566Y-84214061D01*
X60965791Y-84217720D01*
X60969834Y-84221575D01*
X60973688Y-84225618D01*
X60977347Y-84229842D01*
X60980803Y-84234240D01*
X60984049Y-84238805D01*
X60987077Y-84243528D01*
X60989880Y-84248403D01*
X60992451Y-84253423D01*
X60994782Y-84258580D01*
X60996867Y-84263866D01*
X60998697Y-84269275D01*
X61000266Y-84274800D01*
X61001566Y-84280432D01*
X61002590Y-84286165D01*
X61003330Y-84291991D01*
X61003780Y-84297903D01*
X61003931Y-84303894D01*
X61003931Y-84727227D01*
X61003780Y-84733218D01*
X61003330Y-84739130D01*
X61002590Y-84744957D01*
X61001566Y-84750690D01*
X61000266Y-84756322D01*
X60998697Y-84761846D01*
X60996867Y-84767255D01*
X60994782Y-84772542D01*
X60992451Y-84777699D01*
X60989880Y-84782719D01*
X60987077Y-84787594D01*
X60984049Y-84792317D01*
X60980803Y-84796881D01*
X60977347Y-84801279D01*
X60973688Y-84805503D01*
X60969834Y-84809546D01*
X60965791Y-84813401D01*
X60961566Y-84817060D01*
X60957169Y-84820516D01*
X60952604Y-84823762D01*
X60947881Y-84826790D01*
X60943006Y-84829593D01*
X60937986Y-84832164D01*
X60932829Y-84834495D01*
X60927543Y-84836580D01*
X60922134Y-84838410D01*
X60916609Y-84839979D01*
X60910977Y-84841279D01*
X60905244Y-84842303D01*
X60899418Y-84843043D01*
X60893506Y-84843492D01*
X60887515Y-84843644D01*
X60464181Y-84843644D01*
X60458190Y-84843492D01*
X60452278Y-84843043D01*
X60446452Y-84842303D01*
X60440719Y-84841279D01*
X60435087Y-84839979D01*
X60429562Y-84838410D01*
X60424153Y-84836580D01*
X60418867Y-84834495D01*
X60413710Y-84832164D01*
X60408690Y-84829593D01*
X60403815Y-84826790D01*
X60399092Y-84823762D01*
X60394527Y-84820516D01*
X60390130Y-84817060D01*
X60385905Y-84813401D01*
X60381862Y-84809546D01*
X60378008Y-84805503D01*
X60374349Y-84801279D01*
X60370893Y-84796881D01*
X60367647Y-84792317D01*
X60364619Y-84787594D01*
X60361816Y-84782719D01*
X60359245Y-84777699D01*
X60356913Y-84772542D01*
X60354829Y-84767255D01*
X60352999Y-84761846D01*
X60351430Y-84756322D01*
X60350130Y-84750690D01*
X60349106Y-84744957D01*
X60348366Y-84739130D01*
X60347916Y-84733218D01*
X60347765Y-84727227D01*
X60347765Y-84303894D01*
X60347916Y-84297903D01*
X60348366Y-84291991D01*
X60349106Y-84286165D01*
X60350130Y-84280432D01*
X60351430Y-84274800D01*
X60352999Y-84269275D01*
X60354829Y-84263866D01*
X60356913Y-84258580D01*
X60359245Y-84253423D01*
X60361816Y-84248403D01*
X60364619Y-84243528D01*
X60367647Y-84238805D01*
X60370893Y-84234240D01*
X60374349Y-84229842D01*
X60378008Y-84225618D01*
X60381862Y-84221575D01*
X60385905Y-84217720D01*
X60390130Y-84214061D01*
X60394527Y-84210605D01*
X60399092Y-84207360D01*
X60403815Y-84204332D01*
X60408690Y-84201528D01*
X60413710Y-84198958D01*
X60418867Y-84196626D01*
X60424153Y-84194542D01*
X60429562Y-84192711D01*
X60435087Y-84191143D01*
X60440719Y-84189843D01*
X60446452Y-84188819D01*
X60452278Y-84188079D01*
X60458190Y-84187629D01*
X60464181Y-84187478D01*
X60887515Y-84187478D01*
X60893506Y-84187629D01*
G37*
G36*
X60893506Y-86105858D02*
G01*
X60899418Y-86106308D01*
X60905244Y-86107048D01*
X60910977Y-86108072D01*
X60916609Y-86109372D01*
X60922134Y-86110940D01*
X60927543Y-86112771D01*
X60932829Y-86114855D01*
X60937986Y-86117186D01*
X60943006Y-86119757D01*
X60947881Y-86122561D01*
X60952604Y-86125589D01*
X60957169Y-86128834D01*
X60961566Y-86132290D01*
X60965791Y-86135949D01*
X60969834Y-86139804D01*
X60973688Y-86143847D01*
X60977347Y-86148071D01*
X60980803Y-86152469D01*
X60984049Y-86157034D01*
X60987077Y-86161757D01*
X60989880Y-86166632D01*
X60992451Y-86171652D01*
X60994782Y-86176809D01*
X60996867Y-86182095D01*
X60998697Y-86187505D01*
X61000266Y-86193029D01*
X61001566Y-86198661D01*
X61002590Y-86204394D01*
X61003330Y-86210220D01*
X61003780Y-86216133D01*
X61003931Y-86222123D01*
X61003931Y-86645456D01*
X61003780Y-86651447D01*
X61003330Y-86657359D01*
X61002590Y-86663185D01*
X61001566Y-86668918D01*
X61000266Y-86674550D01*
X60998697Y-86680075D01*
X60996867Y-86685484D01*
X60994782Y-86690771D01*
X60992451Y-86695928D01*
X60989880Y-86700947D01*
X60987077Y-86705822D01*
X60984049Y-86710546D01*
X60980803Y-86715110D01*
X60977347Y-86719508D01*
X60973688Y-86723732D01*
X60969834Y-86727775D01*
X60965791Y-86731630D01*
X60961566Y-86735289D01*
X60957169Y-86738745D01*
X60952604Y-86741991D01*
X60947881Y-86745019D01*
X60943006Y-86747822D01*
X60937986Y-86750393D01*
X60932829Y-86752724D01*
X60927543Y-86754809D01*
X60922134Y-86756639D01*
X60916609Y-86758208D01*
X60910977Y-86759508D01*
X60905244Y-86760532D01*
X60899418Y-86761272D01*
X60893506Y-86761722D01*
X60887515Y-86761873D01*
X60464181Y-86761873D01*
X60458190Y-86761722D01*
X60452278Y-86761272D01*
X60446452Y-86760532D01*
X60440719Y-86759508D01*
X60435087Y-86758208D01*
X60429562Y-86756639D01*
X60424153Y-86754809D01*
X60418867Y-86752724D01*
X60413710Y-86750393D01*
X60408690Y-86747822D01*
X60403815Y-86745019D01*
X60399092Y-86741991D01*
X60394527Y-86738745D01*
X60390130Y-86735289D01*
X60385905Y-86731630D01*
X60381862Y-86727775D01*
X60378008Y-86723732D01*
X60374349Y-86719508D01*
X60370893Y-86715110D01*
X60367647Y-86710546D01*
X60364619Y-86705822D01*
X60361816Y-86700947D01*
X60359245Y-86695928D01*
X60356913Y-86690771D01*
X60354829Y-86685484D01*
X60352999Y-86680075D01*
X60351430Y-86674550D01*
X60350130Y-86668918D01*
X60349106Y-86663185D01*
X60348366Y-86657359D01*
X60347916Y-86651447D01*
X60347765Y-86645456D01*
X60347765Y-86222123D01*
X60347916Y-86216133D01*
X60348366Y-86210220D01*
X60349106Y-86204394D01*
X60350130Y-86198661D01*
X60351430Y-86193029D01*
X60352999Y-86187505D01*
X60354829Y-86182095D01*
X60356913Y-86176809D01*
X60359245Y-86171652D01*
X60361816Y-86166632D01*
X60364619Y-86161757D01*
X60367647Y-86157034D01*
X60370893Y-86152469D01*
X60374349Y-86148071D01*
X60378008Y-86143847D01*
X60381862Y-86139804D01*
X60385905Y-86135949D01*
X60390130Y-86132290D01*
X60394527Y-86128834D01*
X60399092Y-86125589D01*
X60403815Y-86122561D01*
X60408690Y-86119757D01*
X60413710Y-86117186D01*
X60418867Y-86114855D01*
X60424153Y-86112771D01*
X60429562Y-86110940D01*
X60435087Y-86109372D01*
X60440719Y-86108072D01*
X60446452Y-86107048D01*
X60452278Y-86106308D01*
X60458190Y-86105858D01*
X60464181Y-86105706D01*
X60887515Y-86105706D01*
X60893506Y-86105858D01*
G37*
G36*
X60893506Y-86119088D02*
G01*
X60899418Y-86119537D01*
X60905244Y-86120278D01*
X60910977Y-86121301D01*
X60916609Y-86122601D01*
X60922134Y-86124170D01*
X60927543Y-86126000D01*
X60932829Y-86128085D01*
X60937986Y-86130416D01*
X60943006Y-86132987D01*
X60947881Y-86135790D01*
X60952604Y-86138818D01*
X60957169Y-86142064D01*
X60961566Y-86145520D01*
X60965791Y-86149179D01*
X60969834Y-86153034D01*
X60973688Y-86157077D01*
X60977347Y-86161301D01*
X60980803Y-86165699D01*
X60984049Y-86170263D01*
X60987077Y-86174986D01*
X60989880Y-86179862D01*
X60992451Y-86184881D01*
X60994782Y-86190038D01*
X60996867Y-86195325D01*
X60998697Y-86200734D01*
X61000266Y-86206258D01*
X61001566Y-86211891D01*
X61002590Y-86217624D01*
X61003330Y-86223450D01*
X61003780Y-86229362D01*
X61003931Y-86235353D01*
X61003931Y-86658686D01*
X61003780Y-86664677D01*
X61003330Y-86670589D01*
X61002590Y-86676415D01*
X61001566Y-86682148D01*
X61000266Y-86687780D01*
X60998697Y-86693305D01*
X60996867Y-86698714D01*
X60994782Y-86704001D01*
X60992451Y-86709157D01*
X60989880Y-86714177D01*
X60987077Y-86719052D01*
X60984049Y-86723776D01*
X60980803Y-86728340D01*
X60977347Y-86732738D01*
X60973688Y-86736962D01*
X60969834Y-86741005D01*
X60965791Y-86744860D01*
X60961566Y-86748519D01*
X60957169Y-86751975D01*
X60952604Y-86755220D01*
X60947881Y-86758248D01*
X60943006Y-86761052D01*
X60937986Y-86763622D01*
X60932829Y-86765954D01*
X60927543Y-86768038D01*
X60922134Y-86769869D01*
X60916609Y-86771437D01*
X60910977Y-86772737D01*
X60905244Y-86773761D01*
X60899418Y-86774501D01*
X60893506Y-86774951D01*
X60887515Y-86775102D01*
X60464181Y-86775102D01*
X60458190Y-86774951D01*
X60452278Y-86774501D01*
X60446452Y-86773761D01*
X60440719Y-86772737D01*
X60435087Y-86771437D01*
X60429562Y-86769869D01*
X60424153Y-86768038D01*
X60418867Y-86765954D01*
X60413710Y-86763622D01*
X60408690Y-86761052D01*
X60403815Y-86758248D01*
X60399092Y-86755220D01*
X60394527Y-86751975D01*
X60390130Y-86748519D01*
X60385905Y-86744860D01*
X60381862Y-86741005D01*
X60378008Y-86736962D01*
X60374349Y-86732738D01*
X60370893Y-86728340D01*
X60367647Y-86723776D01*
X60364619Y-86719052D01*
X60361816Y-86714177D01*
X60359245Y-86709157D01*
X60356913Y-86704001D01*
X60354829Y-86698714D01*
X60352999Y-86693305D01*
X60351430Y-86687780D01*
X60350130Y-86682148D01*
X60349106Y-86676415D01*
X60348366Y-86670589D01*
X60347916Y-86664677D01*
X60347765Y-86658686D01*
X60347765Y-86235353D01*
X60347916Y-86229362D01*
X60348366Y-86223450D01*
X60349106Y-86217624D01*
X60350130Y-86211891D01*
X60351430Y-86206258D01*
X60352999Y-86200734D01*
X60354829Y-86195325D01*
X60356913Y-86190038D01*
X60359245Y-86184881D01*
X60361816Y-86179862D01*
X60364619Y-86174986D01*
X60367647Y-86170263D01*
X60370893Y-86165699D01*
X60374349Y-86161301D01*
X60378008Y-86157077D01*
X60381862Y-86153034D01*
X60385905Y-86149179D01*
X60390130Y-86145520D01*
X60394527Y-86142064D01*
X60399092Y-86138818D01*
X60403815Y-86135790D01*
X60408690Y-86132987D01*
X60413710Y-86130416D01*
X60418867Y-86128085D01*
X60424153Y-86126000D01*
X60429562Y-86124170D01*
X60435087Y-86122601D01*
X60440719Y-86121301D01*
X60446452Y-86120278D01*
X60452278Y-86119537D01*
X60458190Y-86119088D01*
X60464181Y-86118936D01*
X60887515Y-86118936D01*
X60893506Y-86119088D01*
G37*
G36*
X60899381Y-85153272D02*
G01*
X60905260Y-85153754D01*
X60911089Y-85154531D01*
X60916858Y-85155598D01*
X60922554Y-85156951D01*
X60928169Y-85158587D01*
X60933692Y-85160502D01*
X60939111Y-85162692D01*
X60944417Y-85165152D01*
X60949598Y-85167879D01*
X60954645Y-85170868D01*
X60959547Y-85174117D01*
X60964293Y-85177620D01*
X60968873Y-85181374D01*
X60973275Y-85185375D01*
X60977468Y-85189596D01*
X60981422Y-85194004D01*
X60985133Y-85198590D01*
X60988596Y-85203343D01*
X60991807Y-85208252D01*
X60994761Y-85213307D01*
X60997455Y-85218499D01*
X60999883Y-85223816D01*
X61002041Y-85229247D01*
X61003925Y-85234784D01*
X61005530Y-85240415D01*
X61006853Y-85246130D01*
X61007887Y-85251919D01*
X61008630Y-85257771D01*
X61009076Y-85263676D01*
X61009222Y-85269624D01*
X61009222Y-85692957D01*
X61009071Y-85698947D01*
X61008621Y-85704860D01*
X61007881Y-85710686D01*
X61006857Y-85716419D01*
X61005557Y-85722051D01*
X61003988Y-85727576D01*
X61002158Y-85732985D01*
X61000073Y-85738271D01*
X60997742Y-85743428D01*
X60995171Y-85748448D01*
X60992368Y-85753323D01*
X60989340Y-85758047D01*
X60986094Y-85762611D01*
X60982638Y-85767009D01*
X60978979Y-85771233D01*
X60975125Y-85775276D01*
X60971082Y-85779131D01*
X60966857Y-85782790D01*
X60962460Y-85786246D01*
X60957895Y-85789491D01*
X60953172Y-85792520D01*
X60948297Y-85795323D01*
X60943277Y-85797894D01*
X60938120Y-85800225D01*
X60932834Y-85802309D01*
X60927425Y-85804140D01*
X60921900Y-85805709D01*
X60916268Y-85807008D01*
X60910535Y-85808032D01*
X60904709Y-85808773D01*
X60898797Y-85809222D01*
X60892806Y-85809374D01*
X59495806Y-85809374D01*
X59490078Y-85809231D01*
X59484390Y-85808803D01*
X59478752Y-85808093D01*
X59473174Y-85807106D01*
X59467664Y-85805846D01*
X59462233Y-85804317D01*
X59456891Y-85802523D01*
X59451648Y-85800467D01*
X59446512Y-85798155D01*
X59441495Y-85795590D01*
X59436605Y-85792776D01*
X59431852Y-85789718D01*
X59427246Y-85786419D01*
X59422797Y-85782884D01*
X59418514Y-85779117D01*
X59414408Y-85775121D01*
X59410507Y-85770924D01*
X59406839Y-85766556D01*
X59403407Y-85762026D01*
X59400215Y-85757346D01*
X59397267Y-85752524D01*
X59394567Y-85747571D01*
X59392118Y-85742495D01*
X59389924Y-85737308D01*
X59387990Y-85732019D01*
X59386319Y-85726637D01*
X59384915Y-85721173D01*
X59383781Y-85715636D01*
X59382923Y-85710036D01*
X59382343Y-85704383D01*
X59382046Y-85698686D01*
X59382035Y-85692957D01*
X59382035Y-85269623D01*
X59382046Y-85263893D01*
X59382343Y-85258197D01*
X59382923Y-85252544D01*
X59383781Y-85246944D01*
X59384915Y-85241407D01*
X59386319Y-85235943D01*
X59387990Y-85230561D01*
X59389924Y-85225272D01*
X59392118Y-85220084D01*
X59394567Y-85215009D01*
X59397267Y-85210056D01*
X59400215Y-85205234D01*
X59403407Y-85200553D01*
X59406839Y-85196024D01*
X59410507Y-85191656D01*
X59414408Y-85187459D01*
X59418514Y-85183463D01*
X59422797Y-85179695D01*
X59427246Y-85176160D01*
X59431852Y-85172861D01*
X59436605Y-85169803D01*
X59441495Y-85166990D01*
X59446512Y-85164425D01*
X59451648Y-85162112D01*
X59456891Y-85160057D01*
X59462233Y-85158263D01*
X59467664Y-85156734D01*
X59473174Y-85155473D01*
X59478752Y-85154487D01*
X59484390Y-85153777D01*
X59490078Y-85153349D01*
X59495806Y-85153207D01*
X60887514Y-85153207D01*
X60893462Y-85153088D01*
X60899381Y-85153272D01*
G37*
G36*
X60899382Y-83219168D02*
G01*
X60905261Y-83219650D01*
X60911090Y-83220427D01*
X60916858Y-83221494D01*
X60922555Y-83222847D01*
X60928170Y-83224483D01*
X60933692Y-83226398D01*
X60939111Y-83228588D01*
X60944417Y-83231048D01*
X60949599Y-83233775D01*
X60954646Y-83236764D01*
X60959547Y-83240013D01*
X60964293Y-83243516D01*
X60968873Y-83247271D01*
X60973275Y-83251272D01*
X60977468Y-83255492D01*
X60981422Y-83259901D01*
X60985133Y-83264486D01*
X60988596Y-83269239D01*
X60991807Y-83274148D01*
X60994761Y-83279204D01*
X60997455Y-83284395D01*
X60999883Y-83289712D01*
X61002041Y-83295143D01*
X61003925Y-83300680D01*
X61005530Y-83306311D01*
X61006853Y-83312026D01*
X61007887Y-83317815D01*
X61008630Y-83323667D01*
X61009076Y-83329571D01*
X61009222Y-83335519D01*
X61009223Y-83761499D01*
X61008942Y-83767391D01*
X61008374Y-83773201D01*
X61007525Y-83778924D01*
X61006403Y-83784550D01*
X61005015Y-83790075D01*
X61003368Y-83795490D01*
X61001469Y-83800789D01*
X60999324Y-83805965D01*
X60996942Y-83811011D01*
X60994330Y-83815920D01*
X60991493Y-83820686D01*
X60988440Y-83825300D01*
X60985178Y-83829757D01*
X60981713Y-83834049D01*
X60978052Y-83838170D01*
X60974204Y-83842113D01*
X60970174Y-83845869D01*
X60965970Y-83849434D01*
X60961600Y-83852799D01*
X60957069Y-83855959D01*
X60952385Y-83858905D01*
X60947556Y-83861631D01*
X60942588Y-83864130D01*
X60937489Y-83866396D01*
X60932265Y-83868420D01*
X60926923Y-83870197D01*
X60921472Y-83871720D01*
X60915917Y-83872980D01*
X60910265Y-83873973D01*
X60904525Y-83874690D01*
X60898703Y-83875124D01*
X60892806Y-83875270D01*
X59495806Y-83875270D01*
X59490165Y-83875130D01*
X59484561Y-83874713D01*
X59479006Y-83874023D01*
X59473507Y-83873063D01*
X59468075Y-83871838D01*
X59462718Y-83870352D01*
X59457446Y-83868608D01*
X59452268Y-83866609D01*
X59447194Y-83864361D01*
X59442233Y-83861867D01*
X59437394Y-83859130D01*
X59432686Y-83856155D01*
X59428119Y-83852945D01*
X59423703Y-83849505D01*
X59419446Y-83845837D01*
X59415358Y-83841947D01*
X59411468Y-83837859D01*
X59407800Y-83833602D01*
X59404360Y-83829185D01*
X59401150Y-83824619D01*
X59398175Y-83819911D01*
X59395438Y-83815072D01*
X59392944Y-83810111D01*
X59390695Y-83805037D01*
X59388697Y-83799859D01*
X59386953Y-83794587D01*
X59385466Y-83789230D01*
X59384241Y-83783798D01*
X59383282Y-83778299D01*
X59382592Y-83772744D01*
X59382175Y-83767140D01*
X59382035Y-83761499D01*
X59382035Y-83335520D01*
X59382181Y-83329623D01*
X59382615Y-83323801D01*
X59383332Y-83318061D01*
X59384324Y-83312410D01*
X59385585Y-83306855D01*
X59387107Y-83301403D01*
X59388884Y-83296062D01*
X59390909Y-83290838D01*
X59393174Y-83285738D01*
X59395674Y-83280770D01*
X59398400Y-83275941D01*
X59401346Y-83271257D01*
X59404505Y-83266727D01*
X59407870Y-83262356D01*
X59411435Y-83258152D01*
X59415192Y-83254122D01*
X59419134Y-83250274D01*
X59423255Y-83246614D01*
X59427547Y-83243149D01*
X59432004Y-83239886D01*
X59436619Y-83236833D01*
X59441384Y-83233997D01*
X59446293Y-83231384D01*
X59451339Y-83229002D01*
X59456515Y-83226857D01*
X59461815Y-83224958D01*
X59467230Y-83223311D01*
X59472754Y-83221923D01*
X59478381Y-83220801D01*
X59484103Y-83219952D01*
X59489914Y-83219384D01*
X59495806Y-83219103D01*
X60887515Y-83219103D01*
X60893463Y-83218984D01*
X60899382Y-83219168D01*
G37*
G36*
X54122600Y-85153349D02*
G01*
X54128334Y-85153776D01*
X54134018Y-85154482D01*
X54139645Y-85155464D01*
X54145204Y-85156717D01*
X54150685Y-85158238D01*
X54156080Y-85160023D01*
X54161378Y-85162068D01*
X54166570Y-85164368D01*
X54171647Y-85166921D01*
X54176598Y-85169721D01*
X54181415Y-85172766D01*
X54186088Y-85176050D01*
X54190607Y-85179570D01*
X54194963Y-85183323D01*
X54199146Y-85187304D01*
X54203127Y-85191487D01*
X54206879Y-85195843D01*
X54210400Y-85200362D01*
X54213684Y-85205035D01*
X54216729Y-85209852D01*
X54219529Y-85214803D01*
X54222082Y-85219880D01*
X54224382Y-85225072D01*
X54226427Y-85230370D01*
X54228212Y-85235765D01*
X54229733Y-85241247D01*
X54230986Y-85246805D01*
X54231968Y-85252432D01*
X54232674Y-85258117D01*
X54233101Y-85263851D01*
X54233244Y-85269624D01*
X54233244Y-85692957D01*
X54233101Y-85698729D01*
X54232674Y-85704463D01*
X54231968Y-85710148D01*
X54230986Y-85715775D01*
X54229733Y-85721333D01*
X54228212Y-85726815D01*
X54226427Y-85732209D01*
X54224382Y-85737507D01*
X54222082Y-85742700D01*
X54219529Y-85747776D01*
X54216729Y-85752728D01*
X54213685Y-85757545D01*
X54210400Y-85762217D01*
X54206880Y-85766737D01*
X54203127Y-85771092D01*
X54199146Y-85775275D01*
X54194963Y-85779256D01*
X54190607Y-85783009D01*
X54186088Y-85786529D01*
X54181415Y-85789814D01*
X54176598Y-85792858D01*
X54171647Y-85795659D01*
X54166570Y-85798211D01*
X54161378Y-85800512D01*
X54156080Y-85802556D01*
X54150685Y-85804341D01*
X54145204Y-85805863D01*
X54139645Y-85807116D01*
X54134019Y-85808098D01*
X54128334Y-85808804D01*
X54122600Y-85809231D01*
X54116827Y-85809374D01*
X52725119Y-85809374D01*
X52719346Y-85809231D01*
X52713613Y-85808804D01*
X52707928Y-85808098D01*
X52702301Y-85807116D01*
X52696742Y-85805863D01*
X52691261Y-85804341D01*
X52685866Y-85802556D01*
X52680568Y-85800512D01*
X52675376Y-85798211D01*
X52670300Y-85795659D01*
X52665348Y-85792858D01*
X52660531Y-85789814D01*
X52655858Y-85786529D01*
X52651339Y-85783009D01*
X52646983Y-85779256D01*
X52642800Y-85775275D01*
X52638819Y-85771092D01*
X52635067Y-85766737D01*
X52631546Y-85762217D01*
X52628262Y-85757545D01*
X52625217Y-85752728D01*
X52622417Y-85747776D01*
X52619865Y-85742700D01*
X52617564Y-85737507D01*
X52615519Y-85732209D01*
X52613734Y-85726815D01*
X52612213Y-85721333D01*
X52610960Y-85715775D01*
X52609978Y-85710148D01*
X52609272Y-85704463D01*
X52608845Y-85698729D01*
X52608702Y-85692957D01*
X52608702Y-85269623D01*
X52608845Y-85263850D01*
X52609272Y-85258117D01*
X52609978Y-85252432D01*
X52610960Y-85246805D01*
X52612213Y-85241246D01*
X52613734Y-85235765D01*
X52615519Y-85230370D01*
X52617564Y-85225072D01*
X52619864Y-85219880D01*
X52622417Y-85214803D01*
X52625217Y-85209852D01*
X52628262Y-85205035D01*
X52631546Y-85200362D01*
X52635066Y-85195843D01*
X52638819Y-85191487D01*
X52642800Y-85187304D01*
X52646983Y-85183323D01*
X52651339Y-85179570D01*
X52655858Y-85176050D01*
X52660531Y-85172766D01*
X52665348Y-85169721D01*
X52670299Y-85166921D01*
X52675376Y-85164369D01*
X52680568Y-85162068D01*
X52685866Y-85160023D01*
X52691261Y-85158238D01*
X52696742Y-85156717D01*
X52702301Y-85155464D01*
X52707928Y-85154482D01*
X52713613Y-85153776D01*
X52719346Y-85153350D01*
X52725119Y-85153207D01*
X54116827Y-85153207D01*
X54116827Y-85153206D01*
X54122600Y-85153349D01*
G37*
G36*
X61304891Y-80201410D02*
G01*
X61348237Y-80206502D01*
X61391312Y-80214726D01*
X61433947Y-80226105D01*
X61475973Y-80240660D01*
X61517222Y-80258415D01*
X61557500Y-80278528D01*
X61595834Y-80301300D01*
X61632133Y-80326590D01*
X61666304Y-80354254D01*
X61698257Y-80384149D01*
X61727900Y-80416132D01*
X61755140Y-80450060D01*
X61779886Y-80485790D01*
X61802046Y-80523179D01*
X61821529Y-80562083D01*
X61838242Y-80602361D01*
X61852094Y-80643868D01*
X61862994Y-80686461D01*
X61870848Y-80729999D01*
X61875566Y-80774337D01*
X61877056Y-80819332D01*
X61877056Y-87248707D01*
X61876164Y-87279404D01*
X61873765Y-87309887D01*
X61869881Y-87340104D01*
X61864532Y-87370005D01*
X61857740Y-87399539D01*
X61849526Y-87428656D01*
X61839911Y-87457305D01*
X61828917Y-87485435D01*
X61816565Y-87512995D01*
X61802875Y-87539936D01*
X61787870Y-87566206D01*
X61771570Y-87591754D01*
X61753997Y-87616530D01*
X61735172Y-87640484D01*
X61715115Y-87663564D01*
X61693850Y-87685721D01*
X61671512Y-87706796D01*
X61648262Y-87726654D01*
X61624148Y-87745274D01*
X61599222Y-87762635D01*
X61573535Y-87778716D01*
X61547138Y-87793496D01*
X61520082Y-87806955D01*
X61492417Y-87819072D01*
X61464194Y-87829825D01*
X61435464Y-87839195D01*
X61406278Y-87847160D01*
X61376686Y-87853699D01*
X61346741Y-87858793D01*
X61316491Y-87862419D01*
X61285989Y-87864557D01*
X61255285Y-87865186D01*
X52352049Y-87865186D01*
X52320678Y-87863867D01*
X52289733Y-87861014D01*
X52259251Y-87856665D01*
X52229269Y-87850858D01*
X52199825Y-87843629D01*
X52170955Y-87835018D01*
X52142697Y-87825060D01*
X52115087Y-87813795D01*
X52088163Y-87801259D01*
X52061962Y-87787490D01*
X52036521Y-87772525D01*
X52011877Y-87756403D01*
X51988068Y-87739161D01*
X51965129Y-87720836D01*
X51943099Y-87701466D01*
X51922014Y-87681089D01*
X51901912Y-87659741D01*
X51882830Y-87637462D01*
X51864804Y-87614287D01*
X51847872Y-87590256D01*
X51832071Y-87565405D01*
X51817438Y-87539772D01*
X51804011Y-87513395D01*
X51791825Y-87486311D01*
X51780919Y-87458558D01*
X51771330Y-87430173D01*
X51763094Y-87401195D01*
X51756248Y-87371660D01*
X51750830Y-87341606D01*
X51746878Y-87311070D01*
X51744427Y-87280092D01*
X51743515Y-87248707D01*
X52206536Y-87248707D01*
X52206712Y-87256327D01*
X52207255Y-87263855D01*
X52208157Y-87271282D01*
X52209409Y-87278598D01*
X52211002Y-87285794D01*
X52212929Y-87292862D01*
X52215180Y-87299793D01*
X52217747Y-87306577D01*
X52220621Y-87313206D01*
X52223795Y-87319671D01*
X52227259Y-87325962D01*
X52231006Y-87332071D01*
X52235025Y-87337989D01*
X52239310Y-87343707D01*
X52243851Y-87349215D01*
X52248641Y-87354506D01*
X52253670Y-87359569D01*
X52258929Y-87364396D01*
X52264412Y-87368978D01*
X52270108Y-87373306D01*
X52276010Y-87377372D01*
X52282108Y-87381165D01*
X52288395Y-87384677D01*
X52294862Y-87387899D01*
X52301501Y-87390823D01*
X52308302Y-87393438D01*
X52315258Y-87395737D01*
X52322360Y-87397710D01*
X52329599Y-87399349D01*
X52336968Y-87400643D01*
X52344456Y-87401585D01*
X52352057Y-87402165D01*
X61252639Y-87402165D01*
X61255286Y-87399519D01*
X61263089Y-87399325D01*
X61270792Y-87398747D01*
X61278386Y-87397794D01*
X61285861Y-87396476D01*
X61293208Y-87394801D01*
X61300417Y-87392780D01*
X61307479Y-87390420D01*
X61314385Y-87387732D01*
X61321125Y-87384725D01*
X61327690Y-87381408D01*
X61334070Y-87377790D01*
X61340256Y-87373880D01*
X61346239Y-87369688D01*
X61352009Y-87365224D01*
X61357557Y-87360495D01*
X61362873Y-87355511D01*
X61367948Y-87350283D01*
X61372772Y-87344818D01*
X61377337Y-87339127D01*
X61381632Y-87333218D01*
X61385649Y-87327101D01*
X61389377Y-87320784D01*
X61392808Y-87314278D01*
X61395932Y-87307591D01*
X61398739Y-87300733D01*
X61401221Y-87293713D01*
X61403367Y-87286540D01*
X61405169Y-87279223D01*
X61406617Y-87271773D01*
X61407702Y-87264197D01*
X61408413Y-87256505D01*
X61408743Y-87248707D01*
X61408742Y-82787832D01*
X61408491Y-82777892D01*
X61407745Y-82768084D01*
X61406516Y-82758417D01*
X61404818Y-82748906D01*
X61402661Y-82739561D01*
X61400059Y-82730396D01*
X61397022Y-82721422D01*
X61393564Y-82712650D01*
X61389696Y-82704095D01*
X61385431Y-82695767D01*
X61380780Y-82687678D01*
X61375756Y-82679842D01*
X61370371Y-82672269D01*
X61364637Y-82664973D01*
X61358567Y-82657965D01*
X61352171Y-82651257D01*
X61345464Y-82644862D01*
X61338455Y-82638791D01*
X61331159Y-82633057D01*
X61323587Y-82627672D01*
X61315750Y-82622648D01*
X61307662Y-82617997D01*
X61299334Y-82613732D01*
X61290778Y-82609864D01*
X61282007Y-82606406D01*
X61273033Y-82603369D01*
X61263868Y-82600767D01*
X61254523Y-82598610D01*
X61245012Y-82596911D01*
X61235346Y-82595683D01*
X61225537Y-82594937D01*
X61215598Y-82594686D01*
X52399682Y-82594686D01*
X52390104Y-82594923D01*
X52380592Y-82595631D01*
X52371160Y-82596802D01*
X52361825Y-82598431D01*
X52352602Y-82600511D01*
X52343508Y-82603035D01*
X52334558Y-82605996D01*
X52325768Y-82609388D01*
X52317154Y-82613205D01*
X52308731Y-82617440D01*
X52300516Y-82622086D01*
X52292524Y-82627137D01*
X52284772Y-82632586D01*
X52277274Y-82638426D01*
X52270047Y-82644652D01*
X52263107Y-82651257D01*
X52256502Y-82658197D01*
X52250277Y-82665424D01*
X52244436Y-82672922D01*
X52238987Y-82680674D01*
X52233936Y-82688666D01*
X52229290Y-82696881D01*
X52225055Y-82705304D01*
X52221238Y-82713918D01*
X52217846Y-82722708D01*
X52214885Y-82731658D01*
X52212361Y-82740752D01*
X52210281Y-82749975D01*
X52208653Y-82759310D01*
X52207481Y-82768742D01*
X52206773Y-82778254D01*
X52206536Y-82787832D01*
X52206536Y-87248707D01*
X51743515Y-87248707D01*
X51743515Y-80819332D01*
X51743744Y-80796799D01*
X51744793Y-80774409D01*
X51746650Y-80752180D01*
X51749304Y-80730131D01*
X51752743Y-80708278D01*
X51756957Y-80686640D01*
X51761933Y-80665236D01*
X51767660Y-80644082D01*
X51774127Y-80623197D01*
X51781323Y-80602599D01*
X51789235Y-80582306D01*
X51797852Y-80562336D01*
X51807164Y-80542707D01*
X51817157Y-80523437D01*
X51827822Y-80504543D01*
X51839147Y-80486044D01*
X51851119Y-80467958D01*
X51863729Y-80450302D01*
X51876963Y-80433096D01*
X51890812Y-80416355D01*
X51905262Y-80400100D01*
X51920304Y-80384347D01*
X51935925Y-80369115D01*
X51952114Y-80354421D01*
X51968860Y-80340284D01*
X51986151Y-80326721D01*
X52003975Y-80313751D01*
X52022322Y-80301391D01*
X52041180Y-80289659D01*
X52060536Y-80278574D01*
X52080381Y-80268154D01*
X52100702Y-80258415D01*
X52141966Y-80240781D01*
X52183997Y-80226330D01*
X52226628Y-80215038D01*
X52269693Y-80206884D01*
X52313024Y-80201845D01*
X52356455Y-80199900D01*
X52399818Y-80201027D01*
X52442947Y-80205202D01*
X52485675Y-80212405D01*
X52527834Y-80222613D01*
X52569259Y-80235804D01*
X52609782Y-80251956D01*
X52649235Y-80271046D01*
X52687454Y-80293053D01*
X52724269Y-80317954D01*
X52759515Y-80345728D01*
X54831202Y-82091978D01*
X54836654Y-82096628D01*
X54842266Y-82100979D01*
X54848029Y-82105029D01*
X54853931Y-82108779D01*
X54859963Y-82112230D01*
X54866112Y-82115380D01*
X54872369Y-82118230D01*
X54878723Y-82120780D01*
X54885163Y-82123031D01*
X54891677Y-82124981D01*
X54898257Y-82126631D01*
X54904890Y-82127981D01*
X54911566Y-82129031D01*
X54918274Y-82129781D01*
X54925004Y-82130231D01*
X54931744Y-82130381D01*
X54938485Y-82130231D01*
X54945214Y-82129781D01*
X54951923Y-82129031D01*
X54958599Y-82127981D01*
X54965232Y-82126631D01*
X54971811Y-82124981D01*
X54978326Y-82123031D01*
X54984766Y-82120780D01*
X54991119Y-82118230D01*
X54997376Y-82115380D01*
X55003526Y-82112230D01*
X55009557Y-82108779D01*
X55015460Y-82105029D01*
X55021222Y-82100979D01*
X55026835Y-82096628D01*
X55032286Y-82091978D01*
X56397536Y-80898707D01*
X56419742Y-80880182D01*
X56442579Y-80862853D01*
X56466005Y-80846718D01*
X56489978Y-80831779D01*
X56514455Y-80818035D01*
X56539395Y-80805486D01*
X56564756Y-80794132D01*
X56590496Y-80783974D01*
X56616572Y-80775010D01*
X56642943Y-80767242D01*
X56669566Y-80760669D01*
X56696399Y-80755291D01*
X56723401Y-80751108D01*
X56750528Y-80748120D01*
X56777740Y-80746327D01*
X56804994Y-80745729D01*
X56832248Y-80746327D01*
X56859460Y-80748120D01*
X56886588Y-80751108D01*
X56913589Y-80755291D01*
X56940423Y-80760669D01*
X56967046Y-80767242D01*
X56993416Y-80775010D01*
X57019492Y-80783974D01*
X57045232Y-80794132D01*
X57070593Y-80805486D01*
X57095533Y-80818035D01*
X57120011Y-80831779D01*
X57143984Y-80846718D01*
X57167409Y-80862853D01*
X57190246Y-80880182D01*
X57212452Y-80898707D01*
X58582993Y-82084040D01*
X58588482Y-82088584D01*
X58594125Y-82092835D01*
X58599911Y-82096792D01*
X58605831Y-82100457D01*
X58611874Y-82103828D01*
X58618029Y-82106906D01*
X58624287Y-82109691D01*
X58630638Y-82112183D01*
X58637070Y-82114382D01*
X58643575Y-82116287D01*
X58650141Y-82117899D01*
X58656758Y-82119219D01*
X58663416Y-82120245D01*
X58670105Y-82120978D01*
X58676815Y-82121417D01*
X58683535Y-82121564D01*
X58690254Y-82121417D01*
X58696964Y-82120978D01*
X58703653Y-82120245D01*
X58710311Y-82119219D01*
X58716928Y-82117899D01*
X58723494Y-82116287D01*
X58729999Y-82114382D01*
X58736431Y-82112183D01*
X58742782Y-82109691D01*
X58749040Y-82106906D01*
X58755196Y-82103828D01*
X58761238Y-82100457D01*
X58767158Y-82096792D01*
X58772945Y-82092835D01*
X58778587Y-82088584D01*
X58784076Y-82084040D01*
X60858410Y-80345728D01*
X60893610Y-80317841D01*
X60930394Y-80292841D01*
X60968593Y-80270749D01*
X61008038Y-80251588D01*
X61048561Y-80235381D01*
X61089994Y-80222150D01*
X61132167Y-80211916D01*
X61174911Y-80204703D01*
X61218060Y-80200533D01*
X61261442Y-80199427D01*
X61304891Y-80201410D01*
G37*
%TD*%
D11*
%TO.C,SW32*%
X175577500Y-75009375D03*
D12*
X180657500Y-75009375D03*
D11*
X185737500Y-75009375D03*
%TD*%
%TO.C,SW39*%
X80327500Y-94059375D03*
D12*
X85407500Y-94059375D03*
D11*
X90487500Y-94059375D03*
%TD*%
D12*
%TO.C,S2*%
X199707500Y-85804375D03*
X104457500Y-85804375D03*
%TD*%
D11*
%TO.C,SW16*%
X99377500Y-55959375D03*
D12*
X104457500Y-55959375D03*
D11*
X109537500Y-55959375D03*
%TD*%
%TO.C,SW44*%
X175577500Y-94059375D03*
D12*
X180657500Y-94059375D03*
D11*
X185737500Y-94059375D03*
%TD*%
%TO.C,SW11*%
X232727500Y-36909375D03*
D12*
X237807500Y-36909375D03*
D11*
X242887500Y-36909375D03*
%TD*%
D12*
%TO.C,SW53*%
X256857500Y-36909375D03*
D13*
X260357500Y-40909375D03*
X260357500Y-38409375D03*
X253357500Y-38409375D03*
X253357500Y-40909375D03*
%TD*%
D11*
%TO.C,SW8*%
X175577500Y-36909375D03*
D12*
X180657500Y-36909375D03*
D11*
X185737500Y-36909375D03*
%TD*%
%TO.C,SW51*%
X166052500Y-94059375D03*
D12*
X171132500Y-94059375D03*
D11*
X176212500Y-94059375D03*
%TD*%
%TO.C,SW22*%
X213677500Y-55959375D03*
D12*
X218757500Y-55959375D03*
D11*
X223837500Y-55959375D03*
%TD*%
%TO.C,SW28*%
X99377500Y-75009375D03*
D12*
X104457500Y-75009375D03*
D11*
X109537500Y-75009375D03*
%TD*%
%TO.C,SW47*%
X232727500Y-94059375D03*
D12*
X237807500Y-94059375D03*
D11*
X242887500Y-94059375D03*
%TD*%
%TO.C,SW46*%
X213677500Y-94059375D03*
D12*
X218757500Y-94059375D03*
D11*
X223837500Y-94059375D03*
%TD*%
D12*
%TO.C,S1*%
X163988750Y-85804375D03*
X140176250Y-85804375D03*
%TD*%
D11*
%TO.C,SW43*%
X156527500Y-94059375D03*
D12*
X161607500Y-94059375D03*
D11*
X166687500Y-94059375D03*
%TD*%
%TO.C,SW10*%
X213677500Y-36909375D03*
D12*
X218757500Y-36909375D03*
D11*
X223837500Y-36909375D03*
%TD*%
D12*
%TO.C,S3*%
X142557500Y-85804375D03*
X104457500Y-85804375D03*
%TD*%
D11*
%TO.C,SW34*%
X213677500Y-75009375D03*
D12*
X218757500Y-75009375D03*
D11*
X223837500Y-75009375D03*
%TD*%
%TO.C,SW29*%
X118427500Y-75009375D03*
D12*
X123507500Y-75009375D03*
D11*
X128587500Y-75009375D03*
%TD*%
%TO.C,SW19*%
X156527500Y-55959375D03*
D12*
X161607500Y-55959375D03*
D11*
X166687500Y-55959375D03*
%TD*%
%TO.C,SW4*%
X99377500Y-36909375D03*
D12*
X104457500Y-36909375D03*
D11*
X109537500Y-36909375D03*
%TD*%
%TO.C,SW49*%
X127881875Y-94059375D03*
D12*
X132961875Y-94059375D03*
D11*
X138041875Y-94059375D03*
%TD*%
%TO.C,SW45*%
X194627500Y-94059375D03*
D12*
X199707500Y-94059375D03*
D11*
X204787500Y-94059375D03*
%TD*%
%TO.C,SW9*%
X194627500Y-36909375D03*
D12*
X199707500Y-36909375D03*
D11*
X204787500Y-36909375D03*
%TD*%
D12*
%TO.C,S4*%
X199707500Y-85804375D03*
X161607500Y-85804375D03*
%TD*%
D11*
%TO.C,SW1*%
X42227500Y-36909375D03*
D12*
X47307500Y-36909375D03*
D11*
X52387500Y-36909375D03*
%TD*%
%TO.C,SW36*%
X251777500Y-75009375D03*
D12*
X256857500Y-75009375D03*
D11*
X261937500Y-75009375D03*
%TD*%
%TO.C,SW33*%
X194627500Y-75009375D03*
D12*
X199707500Y-75009375D03*
D11*
X204787500Y-75009375D03*
%TD*%
%TO.C,SW3*%
X80327500Y-36909375D03*
D12*
X85407500Y-36909375D03*
D11*
X90487500Y-36909375D03*
%TD*%
%TO.C,SW27*%
X80327500Y-75009375D03*
D12*
X85407500Y-75009375D03*
D11*
X90487500Y-75009375D03*
%TD*%
%TO.C,SW12*%
X251777500Y-36909375D03*
D12*
X256857500Y-36909375D03*
D11*
X261937500Y-36909375D03*
%TD*%
%TO.C,SW48*%
X251777500Y-94059375D03*
D12*
X256857500Y-94059375D03*
D11*
X261937500Y-94059375D03*
%TD*%
D12*
%TO.C,S7*%
X209232500Y-85804375D03*
X94932500Y-85804375D03*
%TD*%
D11*
%TO.C,SW35*%
X232727500Y-75009375D03*
D12*
X237807500Y-75009375D03*
D11*
X242887500Y-75009375D03*
%TD*%
%TO.C,SW13*%
X42227500Y-55959375D03*
D12*
X47307500Y-55959375D03*
D11*
X52387500Y-55959375D03*
%TD*%
%TO.C,SW38*%
X61277500Y-94059375D03*
D12*
X66357500Y-94059375D03*
D11*
X71437500Y-94059375D03*
%TD*%
%TO.C,SW31*%
X156527500Y-75009375D03*
D12*
X161607500Y-75009375D03*
D11*
X166687500Y-75009375D03*
%TD*%
%TO.C,SW50*%
X147002500Y-94059375D03*
D12*
X152082500Y-94059375D03*
D11*
X157162500Y-94059375D03*
%TD*%
%TO.C,SW23*%
X232727500Y-55959375D03*
D12*
X237807500Y-55959375D03*
D11*
X242887500Y-55959375D03*
%TD*%
%TO.C,SW17*%
X118427500Y-55959375D03*
D12*
X123507500Y-55959375D03*
D11*
X128587500Y-55959375D03*
%TD*%
%TO.C,SW25*%
X42227500Y-75009375D03*
D12*
X47307500Y-75009375D03*
D11*
X52387500Y-75009375D03*
%TD*%
D12*
%TO.C,S6*%
X183038750Y-85804375D03*
X159226250Y-85804375D03*
%TD*%
D11*
%TO.C,SW5*%
X118427500Y-36909375D03*
D12*
X123507500Y-36909375D03*
D11*
X128587500Y-36909375D03*
%TD*%
D12*
%TO.C,SW52*%
X47307500Y-36909375D03*
D13*
X50807500Y-40909375D03*
X50807500Y-38409375D03*
X43807500Y-38409375D03*
X43807500Y-40909375D03*
%TD*%
D11*
%TO.C,SW7*%
X156527500Y-36909375D03*
D12*
X161607500Y-36909375D03*
D11*
X166687500Y-36909375D03*
%TD*%
%TO.C,SW30*%
X137477500Y-75009375D03*
D12*
X142557500Y-75009375D03*
D11*
X147637500Y-75009375D03*
%TD*%
%TO.C,SW2*%
X61277500Y-36909375D03*
D12*
X66357500Y-36909375D03*
D11*
X71437500Y-36909375D03*
%TD*%
%TO.C,SW42*%
X137477500Y-94059375D03*
D12*
X142557500Y-94059375D03*
D11*
X147637500Y-94059375D03*
%TD*%
%TO.C,SW15*%
X80327500Y-55959375D03*
D12*
X85407500Y-55959375D03*
D11*
X90487500Y-55959375D03*
%TD*%
%TO.C,SW24*%
X251777500Y-55959375D03*
D12*
X256857500Y-55959375D03*
D11*
X261937500Y-55959375D03*
%TD*%
%TO.C,SW18*%
X137477500Y-55959375D03*
D12*
X142557500Y-55959375D03*
D11*
X147637500Y-55959375D03*
%TD*%
%TO.C,SW21*%
X194627500Y-55959375D03*
D12*
X199707500Y-55959375D03*
D11*
X204787500Y-55959375D03*
%TD*%
%TO.C,SW40*%
X99377500Y-94059375D03*
D12*
X104457500Y-94059375D03*
D11*
X109537500Y-94059375D03*
%TD*%
%TO.C,SW26*%
X61277500Y-75009375D03*
D12*
X66357500Y-75009375D03*
D11*
X71437500Y-75009375D03*
%TD*%
%TO.C,SW41*%
X118427500Y-94059375D03*
D12*
X123507500Y-94059375D03*
D11*
X128587500Y-94059375D03*
%TD*%
%TO.C,SW37*%
X42227500Y-94059375D03*
D12*
X47307500Y-94059375D03*
D11*
X52387500Y-94059375D03*
%TD*%
%TO.C,SW20*%
X175577500Y-55959375D03*
D12*
X180657500Y-55959375D03*
D11*
X185737500Y-55959375D03*
%TD*%
%TO.C,SW6*%
X137477500Y-36909375D03*
D12*
X142557500Y-36909375D03*
D11*
X147637500Y-36909375D03*
%TD*%
%TO.C,SW14*%
X61277500Y-55959375D03*
D12*
X66357500Y-55959375D03*
D11*
X71437500Y-55959375D03*
%TD*%
D12*
%TO.C,S5*%
X144938750Y-85804375D03*
X121126250Y-85804375D03*
%TD*%
D14*
%TO.C,JP2*%
X132407500Y-55934375D03*
D15*
X133677500Y-55934375D03*
%TD*%
D16*
%TO.C,J2*%
X171132500Y-73724375D03*
X170116500Y-68644375D03*
X172148500Y-68644375D03*
%TD*%
M02*
