M48
; DRILL file {KiCad 7.99.0-unknown-e01ef0a38d~172~ubuntu23.04.1} date 2023-10-19T19:27:51-0400
; FORMAT={-:-/ absolute / inch / decimal}
; #@! TF.CreationDate,2023-10-19T19:27:51-04:00
; #@! TF.GenerationSoftware,Kicad,Pcbnew,7.99.0-unknown-e01ef0a38d~172~ubuntu23.04.1
; #@! TF.FileFunction,Plated,1,4,PTH
FMAT,2
INCH
; #@! TA.AperFunction,Plated,PTH,ViaDrill
T1C0.0118
; #@! TA.AperFunction,Plated,PTH,ComponentDrill
T2C0.0118
; #@! TA.AperFunction,Plated,PTH,ComponentDrill
T3C0.0256
; #@! TA.AperFunction,Plated,PTH,ComponentDrill
T4C0.0600
; #@! TA.AperFunction,Plated,PTH,ComponentDrill
T5C0.1200
%
G90
G05
T1
X1.6597Y-1.5348
X1.7125Y-1.8803
X1.7503Y-2.3911
X1.7513Y-3.1401
X1.7552Y-3.8911
X1.7611Y-1.6411
X1.771Y-1.7415
X2.0003Y-1.5604
X2.0003Y-1.6618
X2.0279Y-1.8527
X2.0279Y-1.9069
X2.0653Y-1.8527
X2.0653Y-1.9049
X2.0958Y-1.5624
X2.4749Y-1.8021
X2.4749Y-1.8399
X2.5003Y-2.3911
X2.5013Y-3.1401
X2.5052Y-3.8911
X2.5111Y-1.6411
X2.5655Y-1.912
X2.6005Y-1.7832
X2.6013Y-1.8588
X2.8595Y-1.7931
X2.956Y-1.7931
X3.1775Y-2.3911
X3.2503Y-2.3911
X3.2513Y-3.1401
X3.2552Y-3.8911
X3.2611Y-1.6411
X3.9284Y-2.3911
X4.0003Y-2.3911
X4.0013Y-3.1401
X4.0111Y-1.6411
X4.3891Y-3.8527
X4.6853Y-2.3911
X4.7503Y-2.3911
X4.7513Y-3.1401
X4.7611Y-1.6411
X5.1312Y-2.3911
X5.1469Y-3.8813
X5.4314Y-2.4334
X5.5013Y-3.1401
X5.5023Y-2.4334
X5.5111Y-1.6411
X5.5249Y-1.7523
X5.5249Y-1.7809
X5.5249Y-1.8232
X5.5249Y-1.8547
X5.5249Y-1.8813
X5.5908Y-2.3321
X5.6568Y-2.464
X5.6568Y-2.5033
X5.6568Y-2.5427
X5.658Y-2.6132
X5.658Y-2.6529
X5.7473Y-2.5033
X5.7473Y-2.5427
X5.7619Y-2.3179
X5.767Y-2.7037
X5.7942Y-2.6293
X5.7997Y-2.3179
X5.8316Y-2.6758
X5.841Y-2.2789
X5.8522Y-2.3952
X5.8847Y-2.2454
X5.8847Y-2.3356
X5.8881Y-2.8951
X5.9097Y-3.8439
X5.9166Y-2.8951
X6.0257Y-2.2454
X6.0265Y-2.3352
X6.0269Y-2.8171
X6.0273Y-2.7274
X6.0879Y-2.4915
X6.1194Y-2.7651
X6.1391Y-2.7386
X6.1647Y-2.6854
X6.1666Y-1.8429
X6.1676Y-1.7317
X6.1676Y-1.7602
X6.1676Y-1.7878
X6.1676Y-1.8163
X6.1676Y-2.339
X6.1694Y-2.5486
X6.1853Y-2.7661
X6.1863Y-2.7386
X6.2473Y-2.4453
X6.2483Y-2.338
X6.2513Y-3.1401
X6.2611Y-1.6411
X6.2765Y-2.5486
X6.2765Y-2.5884
X6.3172Y-2.7395
X6.3883Y-2.4084
X6.404Y-2.4565
X6.4058Y-2.8222
X6.4379Y-2.488
X6.4708Y-2.6204
X6.52Y-2.4433
X6.5218Y-2.5431
X6.5505Y-2.6175
X6.5859Y-2.5319
X6.6233Y-2.8025
X6.6253Y-2.3911
X6.6391Y-2.6214
X6.6519Y-2.5407
X6.6765Y-2.8025
X6.6775Y-2.7474
X6.6794Y-2.8616
X6.6804Y-2.6077
X6.6883Y-2.9029
X6.7513Y-3.8813
X6.7847Y-2.9108
X6.7995Y-2.8311
X6.8418Y-2.5092
X6.8861Y-2.5771
X6.8871Y-3.1401
X6.9107Y-2.7405
X6.9107Y-3.0624
X6.9137Y-3.3291
X7.0013Y-3.1401
X7.0052Y-2.3911
X7.0111Y-1.6411
X7.5023Y-3.8911
X7.7513Y-3.1401
X7.7552Y-2.3911
X7.7611Y-1.6411
X8.1617Y-3.8813
X8.5013Y-3.1401
X8.5052Y-2.3911
X8.5052Y-3.8911
X8.5111Y-1.6411
X9.2513Y-3.1401
X9.2552Y-2.3911
X9.2552Y-3.8911
X9.2611Y-1.6411
X9.9137Y-1.7159
X9.9235Y-1.5643
X9.9324Y-1.6736
X10.0013Y-3.1401
X10.0052Y-2.3911
X10.0052Y-3.8911
X10.0111Y-1.6411
X10.1794Y-1.5801
X10.2493Y-1.6608
X10.3989Y-1.6903
T2
X5.7808Y-2.4011
T3
X5.2129Y-2.2021
X5.2131Y-2.0801
X5.2629Y-2.2021
X5.2631Y-2.0801
T4
X1.7125Y-1.3531
X1.7125Y-2.1031
X1.7125Y-2.8531
X1.7125Y-3.6031
X1.9625Y-1.2531
X1.9625Y-2.0031
X1.9625Y-2.7531
X1.9625Y-3.5031
X2.4625Y-1.3531
X2.4625Y-2.1031
X2.4625Y-2.8531
X2.4625Y-3.6031
X2.7125Y-1.2531
X2.7125Y-2.0031
X2.7125Y-2.7531
X2.7125Y-3.5031
X3.2125Y-1.3531
X3.2125Y-2.1031
X3.2125Y-2.8531
X3.2125Y-3.6031
X3.4625Y-1.2531
X3.4625Y-2.0031
X3.4625Y-2.7531
X3.4625Y-3.5031
X3.9625Y-1.3531
X3.9625Y-2.1031
X3.9625Y-2.8531
X3.9625Y-3.6031
X4.2125Y-1.2531
X4.2125Y-2.0031
X4.2125Y-2.7531
X4.2125Y-3.5031
X4.7125Y-1.3531
X4.7125Y-2.1031
X4.7125Y-2.8531
X4.7125Y-3.6031
X4.9625Y-1.2531
X4.9625Y-2.0031
X4.9625Y-2.7531
X4.9625Y-3.5031
X5.0847Y-3.6031
X5.3347Y-3.5031
X5.4625Y-1.3531
X5.4625Y-2.1031
X5.4625Y-2.8531
X5.4625Y-3.6031
X5.7125Y-1.2531
X5.7125Y-2.0031
X5.7125Y-2.7531
X5.7125Y-3.5031
X5.8375Y-3.6031
X6.0875Y-3.5031
X6.2125Y-1.3531
X6.2125Y-2.1031
X6.2125Y-2.8531
X6.2125Y-3.6031
X6.4625Y-1.2531
X6.4625Y-2.0031
X6.4625Y-2.7531
X6.4625Y-3.5031
X6.5875Y-3.6031
X6.8375Y-3.5031
X6.9625Y-1.3531
X6.9625Y-2.1031
X6.9625Y-2.8531
X6.9625Y-3.6031
X7.2125Y-1.2531
X7.2125Y-2.0031
X7.2125Y-2.7531
X7.2125Y-3.5031
X7.7125Y-1.3531
X7.7125Y-2.1031
X7.7125Y-2.8531
X7.7125Y-3.6031
X7.9625Y-1.2531
X7.9625Y-2.0031
X7.9625Y-2.7531
X7.9625Y-3.5031
X8.4625Y-1.3531
X8.4625Y-2.1031
X8.4625Y-2.8531
X8.4625Y-3.6031
X8.7125Y-1.2531
X8.7125Y-2.0031
X8.7125Y-2.7531
X8.7125Y-3.5031
X9.2125Y-1.3531
X9.2125Y-2.1031
X9.2125Y-2.8531
X9.2125Y-3.6031
X9.4625Y-1.2531
X9.4625Y-2.0031
X9.4625Y-2.7531
X9.4625Y-3.5031
X9.9625Y-1.3531
X9.9625Y-2.1031
X9.9625Y-2.8531
X9.9625Y-3.6031
X10.2125Y-1.2531
X10.2125Y-2.0031
X10.2125Y-2.7531
X10.2125Y-3.5031
T5
X3.7375Y-3.9781
X4.1125Y-3.9781
X4.1125Y-3.9781
X4.7687Y-3.9781
X5.5187Y-3.9781
X5.6125Y-3.9781
X5.7062Y-3.9781
X6.2687Y-3.9781
X6.3625Y-3.9781
X6.4562Y-3.9781
X7.2062Y-3.9781
X7.8625Y-3.9781
X7.8625Y-3.9781
X8.2375Y-3.9781
T0
M30
