M48
; DRILL file {KiCad 7.0.1} date Sun Jul 16 15:06:49 2023
; FORMAT={-:-/ absolute / inch / decimal}
; #@! TF.CreationDate,2023-07-16T15:06:49-04:00
; #@! TF.GenerationSoftware,Kicad,Pcbnew,7.0.1
; #@! TF.FileFunction,Plated,1,4,PTH
FMAT,2
INCH
; #@! TA.AperFunction,Plated,PTH,ComponentDrill
T1C0.0079
; #@! TA.AperFunction,Plated,PTH,ViaDrill
T2C0.0118
; #@! TA.AperFunction,Plated,PTH,ComponentDrill
T3C0.0600
; #@! TA.AperFunction,Plated,PTH,ComponentDrill
T4C0.1200
%
G90
G05
T1
X5.8455Y-2.5781
X5.881Y-2.5426
X5.881Y-2.6136
X5.9165Y-2.5071
X5.9165Y-2.5781
X5.9165Y-2.6491
X5.952Y-2.4716
X5.952Y-2.5426
X5.952Y-2.6136
X5.952Y-2.6846
X5.9875Y-2.4361
X5.9875Y-2.5071
X5.9875Y-2.5781
X5.9875Y-2.6491
X5.9875Y-2.7201
X6.023Y-2.4716
X6.023Y-2.5426
X6.023Y-2.6136
X6.023Y-2.6846
X6.0585Y-2.5071
X6.0585Y-2.5781
X6.0585Y-2.6491
X6.094Y-2.5426
X6.094Y-2.6136
X6.1295Y-2.5781
T2
X1.6304Y-2.5277
X1.7481Y-2.5947
X1.7489Y-2.5612
X1.7493Y-2.6297
X1.7505Y-3.8903
X1.7509Y-1.6486
X1.7509Y-2.3907
X1.7509Y-3.1407
X1.9922Y-1.7998
X2.0005Y-1.6655
X2.0501Y-1.5561
X2.0501Y-1.8041
X2.0962Y-1.562
X2.1639Y-1.5226
X2.3255Y-1.8661
X2.3285Y-1.7921
X2.3725Y-1.9181
X2.5009Y-2.3907
X2.5009Y-3.1407
X2.5052Y-3.8907
X2.5065Y-1.6411
X2.5125Y-1.7381
X2.6835Y-1.8311
X2.7202Y-1.7447
X2.934Y-1.4222
X2.9367Y-3.8206
X2.9525Y-1.6631
X2.9651Y-3.8045
X2.9706Y-1.5706
X3.0005Y-1.7237
X3.0005Y-1.7483
X3.0044Y-3.2462
X3.0056Y-1.4073
X3.0379Y-1.223
X3.0399Y-3.8112
X3.1619Y-1.9219
X3.2509Y-2.3907
X3.2509Y-3.1407
X3.256Y-3.8907
X3.2565Y-1.6411
X4.0009Y-2.3907
X4.0009Y-3.1407
X4.0065Y-1.6411
X4.3001Y-3.8894
X4.4371Y-1.221
X4.4371Y-3.8218
X4.4706Y-3.8108
X4.471Y-1.5706
X4.5044Y-1.2234
X4.5044Y-3.2462
X4.5375Y-1.2151
X4.5403Y-3.8143
X4.7509Y-2.3907
X4.7509Y-3.1407
X4.7565Y-1.6411
X5.1371Y-3.8813
X5.5009Y-2.3907
X5.5009Y-3.1407
X5.5065Y-1.6411
X5.7875Y-2.6836
X5.7918Y-2.8108
X5.8143Y-2.7112
X5.8296Y-3.2462
X5.8564Y-2.7143
X5.8655Y-3.8817
X5.9052Y-2.3604
X5.932Y-2.3336
X5.9371Y-3.821
X5.9379Y-1.2175
X5.9706Y-3.8203
X5.971Y-1.5706
X6.004Y-1.2175
X6.0379Y-1.2179
X6.0458Y-2.8234
X6.0721Y-2.7966
X6.0891Y-2.7769
X6.108Y-3.851
X6.1107Y-3.021
X6.1409Y-2.4328
X6.1656Y-2.4328
X6.2347Y-2.5651
X6.2367Y-2.4695
X6.2509Y-2.3907
X6.2509Y-3.1407
X6.2565Y-1.6411
X6.2635Y-2.4966
X6.7509Y-3.8817
X6.7942Y-2.5281
X6.7942Y-2.5781
X6.7942Y-2.6281
X7.0009Y-2.3907
X7.0009Y-3.1407
X7.0065Y-1.6411
X7.3434Y-3.8817
X7.4355Y-1.2077
X7.4367Y-3.8281
X7.4702Y-1.5706
X7.4706Y-3.7577
X7.5056Y-1.208
X7.5501Y-3.2462
X7.6139Y-3.8411
X7.7509Y-2.3907
X7.7509Y-3.1407
X7.7565Y-1.6411
X8.1607Y-3.8813
X8.5009Y-2.3907
X8.5009Y-3.1407
X8.5056Y-3.8907
X8.5065Y-1.6411
X8.884Y-1.2136
X8.9367Y-3.7545
X8.9371Y-3.8285
X8.9718Y-1.5706
X9.0044Y-1.4006
X9.0044Y-3.3718
X9.0375Y-1.3958
X9.0403Y-3.3234
X9.2509Y-2.3907
X9.2509Y-3.1407
X9.2564Y-3.8907
X9.2565Y-1.6411
X9.7072Y-2.5616
X9.7805Y-1.6661
X9.9155Y-1.7161
X10.0009Y-2.3907
X10.0009Y-3.1407
X10.0056Y-3.8903
X10.0065Y-1.6411
X10.0092Y-1.7458
X10.0092Y-1.7805
X10.1135Y-2.5266
X10.1627Y-2.6281
T3
X1.7125Y-1.3531
X1.7125Y-2.1031
X1.7125Y-2.8531
X1.7125Y-3.6031
X1.9625Y-1.2531
X1.9625Y-2.0031
X1.9625Y-2.7531
X1.9625Y-3.5031
X2.4625Y-1.3531
X2.4625Y-2.1031
X2.4625Y-2.8531
X2.4625Y-3.6031
X2.7125Y-1.2531
X2.7125Y-2.0031
X2.7125Y-2.7531
X2.7125Y-3.5031
X3.2125Y-1.3531
X3.2125Y-2.1031
X3.2125Y-2.8531
X3.2125Y-3.6031
X3.4625Y-1.2531
X3.4625Y-2.0031
X3.4625Y-2.7531
X3.4625Y-3.5031
X3.9625Y-1.3531
X3.9625Y-2.1031
X3.9625Y-2.8531
X3.9625Y-3.6031
X4.2125Y-1.2531
X4.2125Y-2.0031
X4.2125Y-2.7531
X4.2125Y-3.5031
X4.7125Y-1.3531
X4.7125Y-2.1031
X4.7125Y-2.8531
X4.7125Y-3.6031
X4.9625Y-1.2531
X4.9625Y-2.0031
X4.9625Y-2.7531
X4.9625Y-3.5031
X5.0847Y-3.6031
X5.3347Y-3.5031
X5.4625Y-1.3531
X5.4625Y-2.1031
X5.4625Y-2.8531
X5.4625Y-3.6031
X5.7125Y-1.2531
X5.7125Y-2.0031
X5.7125Y-2.7531
X5.7125Y-3.5031
X5.8375Y-3.6031
X6.0875Y-3.5031
X6.2125Y-1.3531
X6.2125Y-2.1031
X6.2125Y-2.8531
X6.2125Y-3.6031
X6.4625Y-1.2531
X6.4625Y-2.0031
X6.4625Y-2.7531
X6.4625Y-3.5031
X6.5875Y-3.6031
X6.8375Y-3.5031
X6.9625Y-1.3531
X6.9625Y-2.1031
X6.9625Y-2.8531
X6.9625Y-3.6031
X7.2125Y-1.2531
X7.2125Y-2.0031
X7.2125Y-2.7531
X7.2125Y-3.5031
X7.7125Y-1.3531
X7.7125Y-2.1031
X7.7125Y-2.8531
X7.7125Y-3.6031
X7.9625Y-1.2531
X7.9625Y-2.0031
X7.9625Y-2.7531
X7.9625Y-3.5031
X8.4625Y-1.3531
X8.4625Y-2.1031
X8.4625Y-2.8531
X8.4625Y-3.6031
X8.7125Y-1.2531
X8.7125Y-2.0031
X8.7125Y-2.7531
X8.7125Y-3.5031
X9.2125Y-1.3531
X9.2125Y-2.1031
X9.2125Y-2.8531
X9.2125Y-3.6031
X9.4625Y-1.2531
X9.4625Y-2.0031
X9.4625Y-2.7531
X9.4625Y-3.5031
X9.9625Y-1.3531
X9.9625Y-2.1031
X9.9625Y-2.8531
X9.9625Y-3.6031
X10.2125Y-1.2531
X10.2125Y-2.0031
X10.2125Y-2.7531
X10.2125Y-3.5031
T4
X4.1125Y-3.9781
X4.1125Y-3.9781
X4.7687Y-3.9781
X5.5187Y-3.9781
X5.6125Y-3.9781
X5.7062Y-3.9781
X6.2687Y-3.9781
X6.3625Y-3.9781
X6.4562Y-3.9781
X7.2062Y-3.9781
X7.8625Y-3.9781
X7.8625Y-3.9781
T0
M30
