%TF.GenerationSoftware,KiCad,Pcbnew,7.0.1*%
%TF.CreationDate,2023-07-16T15:06:48-04:00*%
%TF.ProjectId,PCB,5043422e-6b69-4636-9164-5f7063625858,rev?*%
%TF.SameCoordinates,Original*%
%TF.FileFunction,Soldermask,Top*%
%TF.FilePolarity,Negative*%
%FSLAX46Y46*%
G04 Gerber Fmt 4.6, Leading zero omitted, Abs format (unit mm)*
G04 Created by KiCad (PCBNEW 7.0.1) date 2023-07-16 15:06:48*
%MOMM*%
%LPD*%
G01*
G04 APERTURE LIST*
%ADD10C,1.750000*%
%ADD11C,3.987800*%
%ADD12C,1.500000*%
%ADD13C,0.990600*%
G04 APERTURE END LIST*
D10*
%TO.C,SW32*%
X175577500Y-75009375D03*
D11*
X180657500Y-75009375D03*
D10*
X185737500Y-75009375D03*
%TD*%
%TO.C,SW39*%
X80327500Y-94059375D03*
D11*
X85407500Y-94059375D03*
D10*
X90487500Y-94059375D03*
%TD*%
D11*
%TO.C,S2*%
X199707500Y-85804375D03*
X104457500Y-85804375D03*
%TD*%
D10*
%TO.C,SW16*%
X99377500Y-55959375D03*
D11*
X104457500Y-55959375D03*
D10*
X109537500Y-55959375D03*
%TD*%
%TO.C,SW44*%
X175577500Y-94059375D03*
D11*
X180657500Y-94059375D03*
D10*
X185737500Y-94059375D03*
%TD*%
%TO.C,SW11*%
X232727500Y-36909375D03*
D11*
X237807500Y-36909375D03*
D10*
X242887500Y-36909375D03*
%TD*%
D11*
%TO.C,SW53*%
X256857500Y-36909375D03*
D12*
X260357500Y-40909375D03*
X260357500Y-38409375D03*
X253357500Y-38409375D03*
X253357500Y-40909375D03*
%TD*%
D10*
%TO.C,SW8*%
X175577500Y-36909375D03*
D11*
X180657500Y-36909375D03*
D10*
X185737500Y-36909375D03*
%TD*%
%TO.C,SW51*%
X166052500Y-94059375D03*
D11*
X171132500Y-94059375D03*
D10*
X176212500Y-94059375D03*
%TD*%
%TO.C,SW22*%
X213677500Y-55959375D03*
D11*
X218757500Y-55959375D03*
D10*
X223837500Y-55959375D03*
%TD*%
%TO.C,SW28*%
X99377500Y-75009375D03*
D11*
X104457500Y-75009375D03*
D10*
X109537500Y-75009375D03*
%TD*%
%TO.C,SW47*%
X232727500Y-94059375D03*
D11*
X237807500Y-94059375D03*
D10*
X242887500Y-94059375D03*
%TD*%
%TO.C,SW46*%
X213677500Y-94059375D03*
D11*
X218757500Y-94059375D03*
D10*
X223837500Y-94059375D03*
%TD*%
D11*
%TO.C,S1*%
X163988750Y-85804375D03*
X140176250Y-85804375D03*
%TD*%
D10*
%TO.C,SW43*%
X156527500Y-94059375D03*
D11*
X161607500Y-94059375D03*
D10*
X166687500Y-94059375D03*
%TD*%
%TO.C,SW10*%
X213677500Y-36909375D03*
D11*
X218757500Y-36909375D03*
D10*
X223837500Y-36909375D03*
%TD*%
D11*
%TO.C,S3*%
X142557500Y-85804375D03*
X104457500Y-85804375D03*
%TD*%
D10*
%TO.C,SW34*%
X213677500Y-75009375D03*
D11*
X218757500Y-75009375D03*
D10*
X223837500Y-75009375D03*
%TD*%
%TO.C,SW29*%
X118427500Y-75009375D03*
D11*
X123507500Y-75009375D03*
D10*
X128587500Y-75009375D03*
%TD*%
%TO.C,SW19*%
X156527500Y-55959375D03*
D11*
X161607500Y-55959375D03*
D10*
X166687500Y-55959375D03*
%TD*%
%TO.C,SW4*%
X99377500Y-36909375D03*
D11*
X104457500Y-36909375D03*
D10*
X109537500Y-36909375D03*
%TD*%
%TO.C,SW49*%
X127881875Y-94059375D03*
D11*
X132961875Y-94059375D03*
D10*
X138041875Y-94059375D03*
%TD*%
%TO.C,SW45*%
X194627500Y-94059375D03*
D11*
X199707500Y-94059375D03*
D10*
X204787500Y-94059375D03*
%TD*%
%TO.C,SW9*%
X194627500Y-36909375D03*
D11*
X199707500Y-36909375D03*
D10*
X204787500Y-36909375D03*
%TD*%
D11*
%TO.C,S4*%
X199707500Y-85804375D03*
X161607500Y-85804375D03*
%TD*%
D10*
%TO.C,SW1*%
X42227500Y-36909375D03*
D11*
X47307500Y-36909375D03*
D10*
X52387500Y-36909375D03*
%TD*%
%TO.C,SW36*%
X251777500Y-75009375D03*
D11*
X256857500Y-75009375D03*
D10*
X261937500Y-75009375D03*
%TD*%
%TO.C,SW33*%
X194627500Y-75009375D03*
D11*
X199707500Y-75009375D03*
D10*
X204787500Y-75009375D03*
%TD*%
%TO.C,SW3*%
X80327500Y-36909375D03*
D11*
X85407500Y-36909375D03*
D10*
X90487500Y-36909375D03*
%TD*%
%TO.C,SW27*%
X80327500Y-75009375D03*
D11*
X85407500Y-75009375D03*
D10*
X90487500Y-75009375D03*
%TD*%
%TO.C,SW12*%
X251777500Y-36909375D03*
D11*
X256857500Y-36909375D03*
D10*
X261937500Y-36909375D03*
%TD*%
%TO.C,SW48*%
X251777500Y-94059375D03*
D11*
X256857500Y-94059375D03*
D10*
X261937500Y-94059375D03*
%TD*%
%TO.C,SW35*%
X232727500Y-75009375D03*
D11*
X237807500Y-75009375D03*
D10*
X242887500Y-75009375D03*
%TD*%
%TO.C,SW13*%
X42227500Y-55959375D03*
D11*
X47307500Y-55959375D03*
D10*
X52387500Y-55959375D03*
%TD*%
%TO.C,SW38*%
X61277500Y-94059375D03*
D11*
X66357500Y-94059375D03*
D10*
X71437500Y-94059375D03*
%TD*%
%TO.C,SW31*%
X156527500Y-75009375D03*
D11*
X161607500Y-75009375D03*
D10*
X166687500Y-75009375D03*
%TD*%
%TO.C,SW50*%
X147002500Y-94059375D03*
D11*
X152082500Y-94059375D03*
D10*
X157162500Y-94059375D03*
%TD*%
%TO.C,SW23*%
X232727500Y-55959375D03*
D11*
X237807500Y-55959375D03*
D10*
X242887500Y-55959375D03*
%TD*%
%TO.C,SW17*%
X118427500Y-55959375D03*
D11*
X123507500Y-55959375D03*
D10*
X128587500Y-55959375D03*
%TD*%
%TO.C,SW25*%
X42227500Y-75009375D03*
D11*
X47307500Y-75009375D03*
D10*
X52387500Y-75009375D03*
%TD*%
D11*
%TO.C,S6*%
X183038750Y-85804375D03*
X159226250Y-85804375D03*
%TD*%
D10*
%TO.C,SW5*%
X118427500Y-36909375D03*
D11*
X123507500Y-36909375D03*
D10*
X128587500Y-36909375D03*
%TD*%
D11*
%TO.C,SW52*%
X47307500Y-36909375D03*
D12*
X50807500Y-40909375D03*
X50807500Y-38409375D03*
X43807500Y-38409375D03*
X43807500Y-40909375D03*
%TD*%
D10*
%TO.C,SW7*%
X156527500Y-36909375D03*
D11*
X161607500Y-36909375D03*
D10*
X166687500Y-36909375D03*
%TD*%
%TO.C,SW30*%
X137477500Y-75009375D03*
D11*
X142557500Y-75009375D03*
D10*
X147637500Y-75009375D03*
%TD*%
%TO.C,SW2*%
X61277500Y-36909375D03*
D11*
X66357500Y-36909375D03*
D10*
X71437500Y-36909375D03*
%TD*%
%TO.C,SW42*%
X137477500Y-94059375D03*
D11*
X142557500Y-94059375D03*
D10*
X147637500Y-94059375D03*
%TD*%
%TO.C,SW15*%
X80327500Y-55959375D03*
D11*
X85407500Y-55959375D03*
D10*
X90487500Y-55959375D03*
%TD*%
%TO.C,SW24*%
X251777500Y-55959375D03*
D11*
X256857500Y-55959375D03*
D10*
X261937500Y-55959375D03*
%TD*%
%TO.C,SW18*%
X137477500Y-55959375D03*
D11*
X142557500Y-55959375D03*
D10*
X147637500Y-55959375D03*
%TD*%
%TO.C,SW21*%
X194627500Y-55959375D03*
D11*
X199707500Y-55959375D03*
D10*
X204787500Y-55959375D03*
%TD*%
%TO.C,SW40*%
X99377500Y-94059375D03*
D11*
X104457500Y-94059375D03*
D10*
X109537500Y-94059375D03*
%TD*%
%TO.C,SW26*%
X61277500Y-75009375D03*
D11*
X66357500Y-75009375D03*
D10*
X71437500Y-75009375D03*
%TD*%
%TO.C,SW41*%
X118427500Y-94059375D03*
D11*
X123507500Y-94059375D03*
D10*
X128587500Y-94059375D03*
%TD*%
%TO.C,SW37*%
X42227500Y-94059375D03*
D11*
X47307500Y-94059375D03*
D10*
X52387500Y-94059375D03*
%TD*%
%TO.C,SW20*%
X175577500Y-55959375D03*
D11*
X180657500Y-55959375D03*
D10*
X185737500Y-55959375D03*
%TD*%
%TO.C,SW6*%
X137477500Y-36909375D03*
D11*
X142557500Y-36909375D03*
D10*
X147637500Y-36909375D03*
%TD*%
%TO.C,SW14*%
X61277500Y-55959375D03*
D11*
X66357500Y-55959375D03*
D10*
X71437500Y-55959375D03*
%TD*%
D11*
%TO.C,S5*%
X144938750Y-85804375D03*
X121126250Y-85804375D03*
%TD*%
D13*
%TO.C,J2*%
X171132500Y-62944375D03*
X172148500Y-68024375D03*
X170116500Y-68024375D03*
%TD*%
M02*
